<?xml version="1.0" standalone="no"?>
<!DOCTYPE svg PUBLIC "-//W3C//DTD SVG 20010904//EN"
 "http://www.w3.org/TR/2001/REC-SVG-20010904/DTD/svg10.dtd">
<svg version="1.0" xmlns="http://www.w3.org/2000/svg"
 width="48.000000pt" height="48.000000pt" viewBox="0 0 48.000000 48.000000"
 preserveAspectRatio="xMidYMid meet">

<g transform="translate(0.000000,48.000000) scale(0.100000,-0.100000)"
fill="#000000" stroke="none">
<path d="M4 467 c-3 -8 -4 -52 -2 -98 3 -83 3 -84 30 -87 l28 -3 0 -88 c0 -60
4 -92 13 -99 7 -6 35 -12 61 -14 28 -2 51 -8 54 -15 2 -7 -3 -13 -12 -13 -10
0 -16 -9 -16 -25 l0 -25 110 0 c93 0 112 3 117 16 4 10 -1 22 -10 29 -31 22
-19 35 31 35 26 0 53 5 60 12 17 17 17 279 0 296 -8 8 -50 12 -124 12 l-113 0
-3 38 -3 37 -108 3 c-84 2 -109 0 -113 -11z m214 -89 l-3 -83 -35 -3 c-19 -2
-38 -9 -42 -15 -5 -9 -10 -9 -20 1 -6 6 -31 12 -55 12 l-43 0 0 85 0 85 100 0
101 0 -3 -82z m237 -138 l0 -145 -185 0 -185 0 -1 95 c-1 89 0 90 5 25 l6 -70
175 0 175 0 3 113 3 112 -111 0 c-69 0 -110 4 -110 10 0 7 40 10 113 8 l112
-3 0 -145z m-25 20 l0 -100 -160 0 -160 0 0 50 c0 40 3 48 15 43 9 -3 21 1 28
10 7 8 30 17 52 20 34 5 37 4 17 -5 -26 -13 -24 -29 5 -43 12 -6 27 -16 34
-21 13 -10 109 -44 125 -44 3 0 4 13 1 30 -5 23 -2 32 14 41 16 8 18 13 8 25
-6 8 -18 14 -25 14 -8 0 -23 9 -34 20 -11 11 -28 20 -39 20 -27 0 -83 25 -74
33 3 4 48 7 100 7 l93 0 0 -100z m-160 51 c0 -17 -18 -21 -24 -6 -3 9 0 15 9
15 8 0 15 -4 15 -9z m80 -33 c0 -6 -6 -5 -15 2 -8 7 -15 14 -15 16 0 2 7 1 15
-2 8 -4 15 -11 15 -16z m-28 -5 c27 -24 22 -33 -16 -33 -38 0 -49 10 -40 34 8
21 33 20 56 -1z m-75 -19 c-3 -3 -12 -4 -19 -1 -8 3 -5 6 6 6 11 1 17 -2 13
-5z m150 0 c-3 -3 -12 -4 -19 -1 -8 3 -5 6 6 6 11 1 17 -2 13 -5z m-64 -36
c-2 -5 -13 -8 -23 -8 -10 0 -21 3 -23 8 -3 4 8 7 23 7 15 0 26 -3 23 -7z m42
-26 c-8 -8 -25 10 -19 20 4 6 9 5 15 -3 4 -7 6 -15 4 -17z m-35 -127 c0 -12
-14 -15 -70 -15 -56 0 -70 3 -70 15 0 12 14 15 70 15 56 0 70 -3 70 -15z m-17
-42 c-29 -2 -77 -2 -105 0 -29 2 -6 3 52 3 58 0 81 -1 53 -3z"/>
<path d="M72 434 c-31 -21 -31 -87 0 -108 32 -23 65 -20 93 9 32 31 32 59 0
90 -28 29 -61 32 -93 9z m65 -10 c39 -11 39 -71 0 -89 -43 -20 -83 17 -70 64
4 17 14 24 43 30 3 0 15 -2 27 -5z"/>
<path d="M92 408 c-28 -28 -1 -75 38 -63 33 11 21 75 -15 75 -6 0 -16 -5 -23
-12z m46 -25 c5 -17 -26 -29 -40 -15 -6 6 -7 15 -3 22 9 14 37 9 43 -7z"/>
<path d="M125 210 c-4 -6 10 -10 34 -10 23 0 41 5 41 10 0 6 -15 10 -34 10
-19 0 -38 -4 -41 -10z"/>
<path d="M125 180 c-4 -6 10 -10 34 -10 23 0 41 5 41 10 0 6 -15 10 -34 10
-19 0 -38 -4 -41 -10z"/>
</g>
</svg>
