<svg width="52" height="48" viewBox="0 0 52 48" fill="none" xmlns="http://www.w3.org/2000/svg">
<path d="M8.56174 0.140625C7.76955 0.337498 7.28205 0.599998 6.70315 1.125C6.1344 1.65937 5.89065 2.05312 5.6469 2.82187C5.49455 3.29062 5.4844 5.29688 5.50471 24.1875L5.53518 45.0469L5.76877 45.5812C6.19534 46.5562 7.04846 47.3438 8.10471 47.7375L8.68362 47.9531L27.6047 47.9812L46.5156 48V24V0L27.8078 0.00937271C12.0149 0.00937271 9.00862 0.0374985 8.56174 0.140625ZM44.8906 20.9531V40.4062H28.1836H11.4766V23.625V6.84375H10.6641H9.85158V23.6062V40.3594L9.07971 40.4812C8.64299 40.5375 8.04377 40.7156 7.70862 40.8656L7.1094 41.1375V22.3219C7.1094 1.17188 7.0383 2.9625 7.88127 2.19375C8.67346 1.4625 7.19065 1.50937 27.0969 1.50937L44.8906 1.5V20.9531ZM44.8906 42.6562V43.4062L27.2492 43.425L9.59768 43.4531V44.2031V44.9531L27.2492 44.9812L44.8906 45V45.75V46.5H27.1375C7.19065 46.5 8.68362 46.5562 7.87112 45.8062C6.80471 44.8125 6.91643 43.2281 8.11487 42.4125C8.36877 42.2437 8.76487 42.0562 8.9883 42.0094C9.23205 41.9625 16.6867 41.925 27.1477 41.9156L44.8906 41.9062V42.6562Z" fill="black"/>
<path d="M9.85156 4.54687V5.34375H10.6641H11.4766V4.54687V3.75H10.6641H9.85156V4.54687Z" fill="black"/>
<path d="M16.4531 15.9375V25.7812H28.7422H41.0312V15.9375V6.09375H28.7422H16.4531V15.9375ZM39.4062 15.9375V24.2812H28.7422H18.0781V15.9375V7.59375H28.7422H39.4062V15.9375Z" fill="black"/>
<path d="M27.7774 9.2155C26.3657 9.56238 25.2383 10.5374 24.8321 11.7749C24.6289 12.3843 24.6391 13.4436 24.8524 14.0249C25.4313 15.6186 26.8938 16.6124 28.6914 16.6218C29.6969 16.6311 30.3672 16.4343 31.1492 15.8999C32.9164 14.6999 33.3227 12.5436 32.1344 10.8093C31.261 9.54363 29.3414 8.8405 27.7774 9.2155ZM29.8492 10.8749C30.9969 11.4186 31.4844 12.7405 30.936 13.828C30.5297 14.653 29.7274 15.1218 28.7422 15.1218C27.9907 15.1218 27.4016 14.878 26.9141 14.3718C26.1016 13.5093 26.0813 12.3093 26.8735 11.4561C27.6352 10.6311 28.8438 10.3968 29.8492 10.8749Z" fill="black"/>
<path d="M27.7875 17.25C25.218 17.6813 23.2781 19.3219 22.6484 21.6188C22.5367 22.0219 22.4453 22.4813 22.4453 22.6594V22.9688H23.2578H24.0602L24.1211 22.6125C24.3141 21.4875 24.568 20.9438 25.2078 20.2313C26.5789 18.7031 29.1281 18.2719 30.9664 19.2469C31.6164 19.5938 32.1852 20.0719 32.5508 20.5875C32.957 21.1406 33.3125 22.0125 33.3125 22.4156C33.3125 22.9313 33.3734 22.9688 34.2367 22.9688H35.0391V22.7063C35.0289 21.7688 34.4703 20.4094 33.6781 19.425C32.4086 17.85 29.8594 16.9031 27.7875 17.25Z" fill="black"/>
<path d="M22.75 29.0625V29.8125H29.3008H35.8516V29.0625V28.3125H29.3008H22.75V29.0625Z" fill="black"/>
<path d="M18.3828 32.0625V32.8125H29.3008H40.2188V32.0625V31.3125H29.3008H18.3828V32.0625Z" fill="black"/>
</svg>
