<svg width="48" height="48" viewBox="0 0 48 48" fill="none" xmlns="http://www.w3.org/2000/svg">
<path d="M8.76563 1.14355C8.52188 1.75292 8.07188 4.19042 7.82813 6.29042L7.7625 6.8248L8.18438 7.11543C8.71875 7.48105 9.0375 7.85605 9.38438 8.5498C9.675 9.12167 10.125 10.6592 10.125 11.0717C10.125 11.531 7.71563 13.8373 4.81875 16.1435C3.08438 17.531 2.55 18.0654 1.875 19.0873C1.28438 19.9873 1.07812 20.6623 1.07812 21.656C1.0875 22.3217 1.125 22.5467 1.34063 22.9967C1.6875 23.7561 2.52188 24.5529 3.42188 24.9842C4.58438 25.5467 5.50313 25.6873 7.96875 25.6685C9.68438 25.6498 10.2188 25.6779 10.8188 25.8186C11.4469 25.9592 12.7219 26.3717 12.8156 26.4748C12.8531 26.5123 13.5938 30.5623 13.5938 30.7217C13.5938 30.7873 13.4906 30.8623 13.3594 30.8998C13.0594 30.9748 12.6938 31.406 12.6094 31.781C12.5625 31.9967 12.6094 32.2029 12.7875 32.5685C12.9469 32.906 13.0313 33.2154 13.0313 33.5342C13.0313 33.8623 13.0875 34.0779 13.2188 34.2467C13.3219 34.3779 13.4063 34.5748 13.4063 34.6873C13.4063 34.7904 13.4719 35.006 13.5469 35.156C13.6875 35.4185 13.6688 35.4748 13.2844 36.356C12.5625 37.9873 11.8969 38.7935 10.8844 39.2623C10.3969 39.4967 10.2656 39.5154 9.09375 39.506C7.13438 39.506 5.94375 39.1029 4.8375 38.0717C4.5 37.7529 4.18125 37.4998 4.13438 37.4998C3.94688 37.4998 3.74063 37.7998 3.79688 38.006C3.975 38.606 4.78125 40.106 5.33438 40.8373C6.75938 42.731 9.4125 44.156 11.2969 44.0435C12.7688 43.9498 13.4531 43.3498 14.5406 41.2217C14.925 40.4717 15.2438 39.8717 15.2625 39.8904C15.2813 39.8998 15.5813 41.5123 15.9375 43.4529C16.2938 45.4029 16.6219 47.0342 16.6688 47.081C16.8281 47.2404 17.2031 47.1279 17.2313 46.9029C17.25 46.7904 16.8188 44.2498 16.275 41.2592C15.7313 38.2685 15.2813 35.7561 15.2813 35.681C15.2813 35.5967 15.4125 35.5404 15.6563 35.5123C15.8625 35.4935 16.0313 35.5029 16.0313 35.5217C16.0313 35.7654 18.2156 47.0342 18.2719 47.0904C18.3188 47.1373 18.45 47.156 18.5719 47.1373C18.7406 47.1185 18.8063 47.0435 18.825 46.8279C18.8344 46.6685 18.3656 44.006 17.775 40.8935L16.7063 35.2498L16.9031 34.8748L17.1094 34.5092L17.625 34.556C18.4031 34.6217 22.8469 34.8748 23.2594 34.8748C23.7 34.8748 23.7188 34.9685 23.3438 35.1842C22.9688 35.4092 22.2844 36.3842 21.9375 37.2092C21.7781 37.5842 21.525 38.3529 21.375 38.9248C21.225 39.4967 21.0844 39.9748 21.0656 39.9935C20.9813 40.0779 20.0531 39.2154 19.6875 38.7279C19.1719 38.0435 18.9656 37.3217 19.1156 36.7029C19.2844 35.9998 19.2844 35.8029 19.1063 35.681C18.6844 35.4185 18.3469 36.1404 18.3938 37.2185C18.45 38.5404 19.1156 39.4498 21.1688 41.0342C23.4 42.7498 25.5469 43.7717 28.6125 44.5779C30.6188 45.1029 31.9688 45.2904 34.0875 45.3467L35.9813 45.4029L36.1219 45.1779C36.2531 44.981 36.2531 44.8685 36.1313 44.156C36 43.3685 35.7094 42.356 35.3813 41.5123L35.2125 41.0717L35.5969 40.2935C35.9719 39.5529 36.9656 38.3435 37.2094 38.3435C37.3969 38.3435 37.9688 39.0373 38.3344 39.7029L38.7094 40.3779L38.4844 40.9779C37.95 42.4592 38.0719 42.9654 39.1969 43.9592C40.2188 44.8685 40.5844 44.9154 41.3156 44.231L41.6063 43.9498L42.1594 44.4092C42.9563 45.0654 43.95 45.7123 44.7563 46.0873C45.6188 46.481 45.9563 46.556 46.0969 46.3873C46.2469 46.2092 46.65 44.8685 46.7906 44.0623C46.9781 43.0404 46.95 40.3029 46.7438 39.2342C46.0031 35.3904 44.3625 32.1279 41.8688 29.5498L41.0156 28.6685L41.0438 27.5248C41.0719 26.6154 41.0344 26.2404 40.8844 25.6592C40.2469 23.2123 38.2781 21.3092 35.3156 20.2592C34.8656 20.0998 33.8719 19.8467 33.1125 19.6873C32.3531 19.5279 31.5281 19.331 31.2656 19.2467C28.6875 18.4217 27.2156 17.0154 26.9156 15.0935C26.775 14.2498 26.7844 14.156 26.9906 14.156C27.3656 14.156 28.8563 14.6435 29.5594 14.9998C30.5625 15.506 31.1813 16.0029 31.3219 16.406C31.5 16.9217 31.8094 17.3623 32.3625 17.8685C33.225 18.6467 34.1813 19.0404 36.4688 19.5279C39.0938 20.0904 41.6063 21.506 42.7969 23.0904C44.1469 24.8811 44.4375 26.6904 43.7438 29.0717C43.5188 29.8404 43.5563 30.0935 43.875 30.0935C44.2969 30.0935 44.7 28.7904 44.7844 27.1873C44.85 25.8654 44.6344 24.8154 44.0625 23.7279C43.1344 21.9467 41.2969 20.3998 39.15 19.5935C37.9125 19.1248 37.95 19.1623 38.5781 19.0217C38.8875 18.956 39.4969 18.8998 39.9375 18.8998C40.6125 18.8998 40.8281 18.9373 41.3438 19.1623C42.0844 19.4904 42.4969 19.5279 42.5438 19.2842C42.5906 19.031 42.3469 18.806 41.6906 18.506C40.8844 18.1404 39.6375 18.0935 38.2781 18.3654C36.0375 18.8248 33.9 18.3935 32.7281 17.231C32.25 16.7529 32.0906 16.4717 31.8469 15.656C31.6781 15.0748 31.4719 13.6873 31.5469 13.6123C31.5656 13.5935 31.7719 13.706 32.0156 13.8748C33.4688 14.8779 35.0344 15.1404 36.4313 14.6154C36.9844 14.4092 37.4344 13.9592 37.3875 13.6498C37.3688 13.4998 37.2656 13.4342 36.9844 13.3779C36.1219 13.1998 35.8781 13.0967 35.5406 12.7873C34.9781 12.2904 34.7813 11.6998 34.6313 10.1435C34.425 7.9498 33.825 6.50605 32.5969 5.19355C31.5656 4.0873 30.225 3.29042 28.7344 2.89668C27.6938 2.6248 26.025 2.6248 24.9938 2.89668C23.5594 3.27168 21.3844 4.49043 20.1469 5.59667C19.4344 6.24355 19.5188 6.40292 20.7188 6.5623C21.825 6.7123 22.8094 7.05917 23.5594 7.55605C24.8063 8.40917 25.275 9.4123 24.8813 10.3967C24.75 10.7248 24.7031 10.7623 24.3188 10.8092C24.0844 10.8279 23.8125 10.931 23.7 11.0248C23.0813 11.5779 23.0063 13.2748 23.5781 13.6498L23.8031 13.7904L23.4281 14.2779C22.5844 15.3935 22.4063 16.4717 22.6313 19.0873C22.8375 21.5717 22.7438 22.0873 21.9469 22.8092C21.1969 23.4842 20.4188 23.4748 19.6781 22.781C19.2469 22.3779 19.1344 22.3404 18.9563 22.5185C18.7031 22.7717 18.8906 23.1092 19.575 23.606C19.8 23.7654 20.1 23.9248 20.2594 23.9529L20.5313 24.0185L20.1094 24.4217C19.5188 25.0029 18.9656 25.8935 18.7313 26.6529C18.5813 27.1592 18.5531 27.4685 18.5813 28.106C18.6188 28.9967 18.7781 29.4092 19.5 30.5529C19.7063 30.8904 19.875 31.2185 19.875 31.2842C19.875 31.3779 19.65 31.406 18.9469 31.406H18.0188L17.9531 31.031C17.9156 30.8248 17.85 30.6279 17.8031 30.5998C17.7469 30.5623 17.7281 30.1217 17.7656 29.456C17.8406 28.106 17.6813 27.1779 17.1844 26.156C16.7719 25.3029 15.8813 24.3748 15.0656 23.9529C14.7375 23.7842 14.5125 23.5967 14.4844 23.4842C14.3344 22.8279 12.4688 12.806 12.4688 12.6748C12.4688 12.581 12.5531 12.3279 12.6563 12.1123C13.1438 11.1092 12.675 9.65605 11.8688 9.65605C11.7094 9.65605 11.7469 9.75917 11.0625 7.03105C10.5094 4.8373 9.49688 1.0498 9.4125 0.927925C9.38438 0.88105 9.2625 0.843548 9.13125 0.843548C8.95313 0.843548 8.86875 0.918549 8.76563 1.14355ZM9.70313 4.64042C10.7063 8.3623 11.0813 10.0498 10.9688 10.3029C10.9125 10.4248 10.8469 10.5092 10.8281 10.481C10.8 10.4623 10.6781 10.0779 10.5469 9.62792C10.1813 8.35292 9.7875 7.63105 9.1125 6.95605L8.52188 6.36543L8.67188 5.31542C8.86875 3.9748 9.1125 2.60605 9.15 2.65292C9.16875 2.6623 9.42188 3.5623 9.70313 4.64042ZM27.7875 4.09667C28.1813 5.29667 28.3406 6.45918 28.2844 7.7248C28.2563 8.33418 28.1906 8.87792 28.1344 8.93417C28.0688 8.9998 27.9 8.97167 27.5906 8.83105C27.15 8.64355 27.1406 8.6248 26.85 7.80917C26.3438 6.3748 25.7906 5.4373 24.8719 4.49043L24.2813 3.87167L24.8156 3.7123C25.5375 3.49667 26.1656 3.40292 26.925 3.38417L27.5438 3.3748L27.7875 4.09667ZM29.0719 3.74043C29.7 3.95605 30.6281 4.41542 30.9375 4.66855C31.1531 4.84667 31.1719 4.9123 31.1625 5.72792C31.1625 6.21542 31.1063 6.84355 31.0406 7.1248C30.8531 7.88417 30.3375 8.80293 29.8125 9.32792C29.3438 9.7873 29.3438 9.7873 29.0813 9.6373C28.9406 9.54355 28.8375 9.40292 28.8469 9.30917C28.8656 9.21542 28.9219 8.74667 28.9875 8.25917C29.1469 7.0123 28.9406 5.25917 28.4625 3.76855C28.3781 3.51542 28.425 3.51542 29.0719 3.74043ZM24.3 4.9498C24.6938 5.3623 25.1813 5.98105 25.3875 6.3373C25.7625 6.95605 26.3156 8.30605 26.2406 8.38105C26.2219 8.3998 26.0156 8.39042 25.7906 8.34355C25.4625 8.2873 25.2844 8.1748 24.9 7.75292C24.0656 6.85292 22.9219 6.24355 21.5719 5.97167L20.9625 5.84042L21.525 5.42793C22.0594 5.03417 23.4188 4.21855 23.5406 4.21855C23.5688 4.21855 23.9156 4.54667 24.3 4.9498ZM32.7656 6.5623C33.2438 7.30293 33.675 8.3623 33.6938 8.82167C33.7031 9.24355 33.3188 9.84355 32.8313 10.1623C32.0719 10.6685 30.3656 10.8748 30.0188 10.4998C29.8406 10.3123 29.85 10.3029 30.4219 9.7123C31.35 8.76542 31.8656 7.4623 31.875 6.05605V5.50292L32.1188 5.72792C32.2594 5.8498 32.55 6.2248 32.7656 6.5623ZM26.9625 9.36543C28.7813 9.99355 30.1781 11.4373 30.6469 13.1623L30.7406 13.5279L30.3938 13.1998C29.2688 12.1498 27.5344 11.306 25.8469 11.0061C25.5094 10.9498 25.4906 10.931 25.5563 10.6967C25.7063 10.1248 25.7625 9.69355 25.7156 9.40292C25.6688 9.1123 25.6781 9.09355 25.9313 9.09355C26.0813 9.09355 26.55 9.21542 26.9625 9.36543ZM34.1625 11.8592C34.2656 12.1779 34.275 12.356 34.2094 12.4217C34.1625 12.4685 33.7313 12.5154 33.2531 12.5154C32.2219 12.5154 31.2469 12.2248 30.9375 11.8404C30.8344 11.7092 30.75 11.5686 30.75 11.5217C30.75 11.4842 30.9938 11.4279 31.2938 11.3904C32.1094 11.2967 32.8969 11.0061 33.4219 10.6123L33.8906 10.2561L33.9563 10.8186C33.9938 11.1373 34.0875 11.5967 34.1625 11.8592ZM12.1031 10.781C12.1969 11.0717 12.1875 11.2404 12.1031 11.5498C11.9719 11.981 11.7375 12.2342 9.83438 13.9779C7.6875 15.9467 6.13125 17.756 5.18438 19.4248C4.51875 20.5779 4.26563 21.4123 4.26563 22.406C4.26563 23.306 4.44375 23.7748 5.025 24.4498C5.20313 24.6654 5.31563 24.8435 5.25938 24.8435C5.2125 24.8435 4.8375 24.7404 4.43438 24.6092C1.41563 23.6623 0.91875 20.9717 3.29063 18.4404C3.64688 18.0467 4.4625 17.3248 5.09063 16.8373C7.44375 15.0092 9.65625 12.956 11.1281 11.2217C11.5219 10.7717 11.8688 10.406 11.9156 10.406C11.9531 10.406 12.0469 10.5748 12.1031 10.781ZM25.65 11.7279C27.8906 12.1592 29.4938 13.0498 30.4594 14.3904L30.7781 14.8404L30.3656 14.5967C29.1281 13.8748 27.3094 13.3685 25.3688 13.1998C24.6469 13.1435 24.0188 13.0498 23.9813 12.9935C23.8594 12.8248 23.8969 12.1967 24.0375 11.8592C24.2063 11.4654 24.2719 11.456 25.65 11.7279ZM34.9781 13.2748C35.1 13.4154 35.4094 13.6217 35.6531 13.7342C36.2063 13.9967 36.1125 14.081 35.1938 14.1373C34.4156 14.1842 33.5344 13.9592 32.8031 13.5279L32.3625 13.2654L33.225 13.2561C33.6938 13.2467 34.1813 13.1998 34.3125 13.1435C34.6594 12.9935 34.725 13.0029 34.9781 13.2748ZM13.4531 21.8717C14.3063 26.3904 15 30.1685 15 30.2623C15 30.3842 14.8875 30.4685 14.6719 30.5342C14.3719 30.6279 14.3344 30.6185 14.2969 30.4404C14.2688 30.3279 13.575 26.5029 12.75 21.9373L11.2406 13.6404L11.5031 13.4342L11.7656 13.2185L11.8313 13.4342C11.8688 13.5467 12.6 17.3435 13.4531 21.8717ZM25.9781 13.9685C26.1375 13.9685 26.1563 14.0435 26.1563 14.5592C26.1563 14.8779 26.2219 15.3935 26.2969 15.6842C26.475 16.3779 26.475 16.3592 26.1938 16.481C26.0063 16.5748 25.9594 16.6498 25.9875 16.856C26.0156 17.0904 26.0438 17.1092 26.4563 17.1092C26.8594 17.1092 26.9156 17.1373 27.1688 17.4842C27.3188 17.6904 27.6375 18.0373 27.8813 18.2529C28.2 18.5342 28.3031 18.6842 28.2469 18.7779C28.1063 19.031 27.5813 19.406 27.0375 19.6592L26.4938 19.9029L25.9969 19.6404C25.2 19.2279 24.6656 18.4779 24.5156 17.5404L24.45 17.1279L24.7313 17.1842C25.3125 17.306 25.425 16.6217 24.8438 16.4717C24.6656 16.4248 24.5063 16.3779 24.4969 16.3685C24.4406 16.3123 24.6656 14.8123 24.8063 14.3529L24.9469 13.8467L25.3781 13.9123C25.6125 13.9404 25.8844 13.9685 25.9781 13.9685ZM11.4281 18.656C11.85 20.9998 12.1875 22.9404 12.1875 22.9685C12.1875 22.9967 11.4375 23.0154 10.5281 23.0248C9.60938 23.0248 8.23125 23.0529 7.45313 23.0717C6.12188 23.1092 6.01875 23.0998 5.55 22.8842C4.95 22.6123 4.84688 22.406 4.96875 21.7404C5.16563 20.7185 6.08438 19.1717 7.575 17.3529C8.6625 16.031 10.4719 14.1842 10.575 14.2967C10.6219 14.3529 11.0063 16.3123 11.4281 18.656ZM23.8125 15.9092C23.7469 16.8279 23.8031 17.9342 23.9531 18.3279C23.9906 18.431 24.2344 18.8717 24.4781 19.3123C25.3031 20.756 25.4156 21.881 24.8063 22.3498C24.3375 22.706 24.0844 23.306 24.0188 24.206L23.9719 24.9842L23.3438 25.5935C22.3406 26.5779 21.9938 27.6092 22.3594 28.5654C22.5563 29.0717 23.0625 29.6623 23.5031 29.8873C23.7938 30.0373 23.8031 30.0654 23.6719 30.2435C23.5969 30.356 23.1844 30.6467 22.7625 30.8904C22.0781 31.2935 21.9 31.3498 21.3281 31.3873L20.6719 31.4248L20.55 31.0123C20.475 30.7967 20.25 30.356 20.0438 30.0467C19.8281 29.7467 19.5844 29.3154 19.4906 29.1092C18.9844 27.956 19.275 26.5498 20.2875 25.2748C20.5688 24.9279 22.125 23.6623 22.125 23.7748C22.125 23.8779 21.7313 24.4967 21.2813 25.0779C20.1188 26.6154 19.9688 28.0498 20.8031 29.7092C21.1031 30.2998 21.2344 30.4029 21.4969 30.2623C21.7219 30.1498 21.7031 29.9998 21.3188 29.0342C21.0094 28.2654 20.9813 28.1248 21.0188 27.5248C21.075 26.7561 21.2531 26.3435 22.0031 25.3123C22.6406 24.4404 23.1 23.4842 23.3063 22.6404C23.4844 21.8717 23.5031 20.381 23.3438 19.2373C23.2031 18.206 23.2031 16.7435 23.3438 16.2185C23.4656 15.7685 23.8219 14.8873 23.8688 14.9248C23.8781 14.9436 23.8594 15.3842 23.8125 15.9092ZM29.2781 20.2217L29.325 21.1779L29.0063 21.2435C28.8281 21.2717 28.5375 21.2717 28.3594 21.2435L28.0313 21.1779V20.6154C28.0313 20.0623 28.0406 20.0435 28.5188 19.5373C29.1375 18.881 29.2125 18.9467 29.2781 20.2217ZM30.9938 19.9029C31.3969 20.0342 32.2875 20.2498 32.9531 20.3904C34.3031 20.6623 35.55 21.056 36.3 21.431C38.2219 22.3967 39.6656 23.981 40.1625 25.6779C40.35 26.306 40.4531 27.5342 40.3406 27.8154C40.2656 28.031 40.2656 28.031 39.7969 27.6936C39.0094 27.1311 38.25 26.7185 38.0063 26.7185C37.8188 26.7185 37.7344 26.8123 37.5469 27.2435C37.2188 27.9842 36.8719 29.1185 36.6844 30.0654C36.5625 30.6936 36.5156 30.8248 36.4594 30.6467C36.0188 29.1279 35.7188 28.2842 35.2875 27.4123C35.0063 26.8404 34.7813 26.3529 34.7813 26.3248C34.7813 26.2967 34.9406 26.231 35.1469 26.1748C35.5688 26.0435 35.9813 25.6685 36.0656 25.3217C36.1406 25.0123 35.9438 24.0654 35.7 23.5873C35.0438 22.2748 33.4594 21.0935 32.3531 21.0935C31.8938 21.0935 31.2469 21.4404 31.05 21.7967C30.9656 21.9467 30.8813 22.0967 30.8719 22.1154C30.7969 22.2279 30.3656 21.8998 30.225 21.6373C30 21.206 29.9063 19.5373 30.1125 19.6123C30.1875 19.6404 30.5813 19.7717 30.9938 19.9029ZM26.8781 20.4842C27.1219 20.4092 27.3469 20.3435 27.3563 20.3435C27.3938 20.3435 27.3188 20.8779 27.225 21.3935C27.1969 21.5248 27.075 21.7498 26.9625 21.8717C26.775 22.0779 26.7 22.0967 26.3531 22.031C26.1375 21.9935 25.95 21.9467 25.9313 21.9279C25.9125 21.9092 25.875 21.5435 25.8563 21.131L25.8094 20.3623L26.1188 20.4935C26.3719 20.606 26.4938 20.5967 26.8781 20.4842ZM33.3 22.1342C34.3875 22.6873 35.2219 23.8029 35.325 24.8623C35.3625 25.3029 35.3625 25.3123 35.0344 25.4529C33.8906 25.931 32.5313 25.1998 31.8094 23.7279C31.4625 23.0248 31.4438 22.2842 31.7719 22.0217C32.1 21.7592 32.625 21.7967 33.3 22.1342ZM29.5781 22.1248C29.6063 22.2185 29.7094 22.3592 29.8125 22.4529C29.9156 22.5467 30 22.6498 30 22.6873C30 22.7904 28.9594 23.2217 28.5469 23.2967C28.2188 23.3435 28.1156 23.3154 27.7688 23.0717L27.375 22.781L27.6094 22.4435C27.7406 22.256 27.8438 22.0685 27.8438 22.031C27.8438 21.9935 28.2188 21.9654 28.6875 21.9654C29.4 21.9654 29.5406 21.9935 29.5781 22.1248ZM26.7469 23.1092C27.1969 23.6623 27.7969 23.9998 28.3219 23.9998C28.9219 23.9998 29.8875 23.6904 30.3656 23.3342C30.5906 23.1748 30.7875 23.0717 30.8156 23.0998C30.8906 23.1748 29.7844 24.3842 28.7813 25.3123C28.275 25.7717 27.8438 26.156 27.825 26.156C27.7969 26.156 27.7313 25.9873 27.6656 25.781C27.5719 25.4529 27.5156 25.406 27.2906 25.406C26.9531 25.406 26.8781 25.5935 27 26.0717C27.1406 26.5873 27.0375 26.8498 26.5594 27.2435L26.1281 27.5998L25.8469 27.2435C25.5094 26.8217 24.9188 26.4092 24.3281 26.1748L23.8875 26.0061L24.7406 25.4154C25.2094 25.0967 25.5938 24.7779 25.5938 24.7029C25.5938 24.4123 25.1156 24.1592 24.9844 24.3748C24.9563 24.4217 24.8719 24.4685 24.8063 24.4685C24.7125 24.4685 24.7031 24.356 24.7594 24.0092C24.9094 23.0623 25.3125 22.6498 26.0438 22.7248C26.3813 22.7529 26.5031 22.8279 26.7469 23.1092ZM6.17813 23.8217C6.75938 23.9342 7.29375 23.9154 9.32813 23.7185C10.2656 23.6248 11.1 23.6435 12.0188 23.7748L12.3563 23.8217L12.5063 24.6373C12.5906 25.0873 12.6563 25.481 12.6563 25.5092C12.6563 25.5373 12.3281 25.4717 11.9156 25.3498C10.875 25.0498 9.9375 24.9373 8.40938 24.9373C6.9375 24.9373 6.61875 24.8529 5.89688 24.2717C5.48438 23.9529 5.2125 23.5592 5.46563 23.6529C5.54063 23.681 5.86875 23.7561 6.17813 23.8217ZM30.9938 24.3467C30.7406 24.8435 29.5781 26.2873 28.6125 27.2904C28.0875 27.8435 27.6563 28.3592 27.6563 28.4436C27.6563 28.6498 27.9938 28.8092 28.2 28.6967C28.5844 28.481 30.5063 26.3435 31.1719 25.3873C31.5844 24.7967 31.7438 24.7029 31.6406 25.0967C31.5 25.706 30.8625 26.7748 29.8125 28.1717C28.1531 30.4029 27.7031 31.4248 27.7219 32.9717V33.7498H26.8594H25.9875L25.7813 33.3185C25.5281 32.8029 25.5563 32.2029 25.8656 31.5654C26.1 31.0779 26.1 30.8623 25.8469 30.7123C25.6031 30.5623 25.275 30.9748 25.0313 31.7435C24.8063 32.4748 24.8063 32.6435 24.975 33.2154C25.1063 33.6467 25.0969 33.656 24.9094 33.656C24.3938 33.6467 23.9438 33.4685 23.6531 33.1498C23.2594 32.7279 23.2594 32.4373 23.6344 31.7248C24.4406 30.2154 25.1719 29.3998 27.5625 27.3373C28.4625 26.5592 29.625 25.4998 30.1406 24.9748C30.6563 24.4498 31.0875 24.0373 31.1063 24.0467C31.125 24.0654 31.0781 24.1967 30.9938 24.3467ZM15.8156 25.4248C16.275 25.9123 16.6781 26.6154 16.8938 27.3092C17.0438 27.8248 17.0813 28.1248 17.0438 28.9217C17.025 29.456 16.9875 29.9248 16.95 29.9623C16.8656 30.0373 15.75 30.2717 15.75 30.2154C15.75 30.1873 15.5156 28.9404 15.2344 27.4498C14.9531 25.9592 14.7188 24.6936 14.7188 24.6467C14.7188 24.5154 15.45 25.0404 15.8156 25.4248ZM32.4844 25.6873C32.5219 25.7435 32.7188 25.8748 32.9344 25.9779C33.15 26.0904 33.3469 26.1936 33.3656 26.2123C33.3844 26.231 33.225 26.5123 33.0188 26.831C32.325 27.9092 31.5094 29.456 31.2094 30.2717C30.9094 31.1154 30.8531 31.6498 30.9844 32.6248C31.0406 33.056 31.0219 33.1779 30.8719 33.356C30.7219 33.5529 30.5625 33.5904 29.6438 33.6748C29.0719 33.731 28.5656 33.7498 28.5281 33.7217C28.3875 33.5717 28.3969 32.5967 28.5469 31.931C28.7531 31.0029 29.2031 30.1217 29.9156 29.2498C30.7969 28.181 31.3781 27.3186 31.8375 26.4092C32.2406 25.6217 32.3625 25.481 32.4844 25.6873ZM24.3 26.9623C24.8344 27.2342 25.3781 27.6936 25.4625 27.956C25.5094 28.106 25.3875 28.2842 24.8906 28.781C24.3 29.3811 24.2438 29.4092 23.9906 29.3248C23.625 29.2029 23.0906 28.5842 22.9781 28.1529C22.8656 27.7498 22.9594 27.2154 23.1938 26.8592C23.3719 26.5873 23.5781 26.606 24.3 26.9623ZM34.575 27.6185C34.8469 28.1623 35.2031 29.0154 35.3625 29.5123C35.5125 30.0092 35.7938 30.8623 35.9719 31.406C36.45 32.8498 36.45 32.8217 36.0563 33.3467C35.8781 33.5904 35.6719 33.881 35.5969 33.9842C35.475 34.1529 35.4563 34.1342 35.3156 33.7029C35.2313 33.4404 35.0719 32.7748 34.9688 32.2029C34.7438 30.9279 34.3688 30.1404 33.5156 29.1279L32.8969 28.3967L33.4406 27.5061C33.7313 27.0279 34.0031 26.6248 34.0313 26.6248C34.0594 26.6248 34.3031 27.0748 34.575 27.6185ZM38.6156 27.7685C39.3 28.1717 39.2813 28.1342 39.0469 28.9592C38.4563 30.9842 38.325 33.4873 38.7094 35.3435C39.0656 37.0498 39.7406 38.5498 40.7438 39.8904C41.7938 41.3154 43.7719 42.9842 45.4406 43.8654C46.0594 44.1935 46.0406 44.1467 45.8438 44.8967C45.75 45.2717 45.6469 45.5998 45.6281 45.6185C45.5531 45.7029 44.4094 45.1404 43.725 44.6904C42.1781 43.6685 40.9031 42.356 39.7313 40.5935C37.4531 37.1623 36.6188 33.131 37.4719 29.6248C37.6313 28.9498 38.1375 27.5623 38.2219 27.5623C38.25 27.5623 38.4281 27.656 38.6156 27.7685ZM40.9219 29.6435L41.6813 30.3748L41.5969 31.2467C41.4938 32.3342 41.6344 33.9654 41.9438 35.1748C42.5906 37.7154 43.8563 39.5248 45.7781 40.631L46.2188 40.8935L46.2094 41.9342C46.2 42.5154 46.1719 43.0779 46.1438 43.1998C46.0781 43.4154 46.0688 43.406 45.2813 42.9373C43.7531 42.0185 42.2531 40.6967 41.2969 39.4217C40.7813 38.7373 40.0313 37.2935 39.7594 36.4685C39.0656 34.3217 39.0281 31.781 39.6656 29.4373C39.9 28.556 39.7969 28.5467 40.9219 29.6435ZM33.1031 29.7373C33.75 30.5154 34.0031 31.0873 34.2656 32.4185C34.5 33.5717 34.65 34.0779 34.9313 34.6029C35.0438 34.8279 35.0906 35.0904 35.0719 35.456C35.0438 36.1685 35.2688 36.581 36.0469 37.2654L36.6656 37.8092L36.1781 38.2873C35.6906 38.756 35.0344 39.6842 34.9125 40.0498C34.875 40.1904 34.725 40.0029 34.2563 39.1967C33.9281 38.6248 33.6563 38.1373 33.6563 38.1092C33.6563 38.081 33.8719 37.931 34.125 37.7717C34.4719 37.556 34.5938 37.4248 34.5938 37.2561C34.5938 36.8529 34.3031 36.8154 33.7313 37.1717L33.2063 37.481L32.8969 37.0498C32.7188 36.806 32.325 36.2904 32.0063 35.8967C31.5188 35.2873 31.4156 35.0904 31.3313 34.631C31.2469 34.1248 31.2563 34.0592 31.4719 33.731C31.7813 33.2717 31.8469 32.6717 31.6594 32.1092C31.5188 31.6967 31.5188 31.6498 31.7344 31.0029C32.025 30.1592 32.4656 29.1654 32.55 29.156C32.5875 29.156 32.8406 29.4185 33.1031 29.7373ZM17.0438 30.8342C17.1938 30.9279 17.3344 31.4998 17.3438 31.9779C17.3438 32.2123 17.2969 32.3435 17.1844 32.381C16.9781 32.4654 16.9219 32.381 16.7813 31.7342C16.7156 31.4248 16.6313 31.0967 16.5844 31.0123C16.4719 30.7967 16.7906 30.6654 17.0438 30.8342ZM15.9281 31.3779C16.0688 31.6873 16.0031 31.7248 15.2156 31.8748C14.5406 32.006 14.1844 32.231 14.2781 32.4748C14.3813 32.7279 14.6063 32.756 15.3844 32.5779C15.7875 32.4842 16.1438 32.4279 16.1625 32.4467C16.1813 32.4654 16.2281 32.6154 16.2656 32.7842C16.3219 33.0748 16.3125 33.0842 15.9188 33.1873C14.6344 33.5154 14.6719 33.506 14.6719 33.7967C14.6719 34.031 14.7094 34.0873 14.925 34.106C15.0563 34.1248 15.4125 34.0685 15.7125 33.9935C16.3219 33.8342 16.4438 33.8904 16.3406 34.3123C16.2656 34.6685 16.1063 34.7435 15.2531 34.8654C14.2125 35.006 14.1094 34.9685 14.1563 34.4248C14.1656 34.3123 14.0625 34.0873 13.9313 33.9279C13.65 33.5998 13.65 33.5529 13.8 33.131C13.9031 32.8498 13.8844 32.8029 13.6125 32.4842C13.2844 32.1185 13.2375 31.8654 13.4438 31.6967C13.6313 31.5467 15.4781 31.0498 15.6656 31.0967C15.75 31.1248 15.8719 31.2467 15.9281 31.3779ZM43.3125 32.5404C44.1 33.7404 45.0563 35.6998 45.4688 36.9373C45.7875 37.9029 46.1906 39.806 46.0969 39.8998C46.0125 39.9842 45.225 39.4123 44.6531 38.8404C43.1063 37.2842 42.2813 34.9498 42.2813 32.0717C42.2813 31.1998 42.2813 31.1904 42.4688 31.3592C42.5719 31.4529 42.9469 31.9779 43.3125 32.5404ZM22.6688 32.1748C22.5375 32.756 22.7438 33.3279 23.2594 33.7873L23.625 34.1248H22.8094H21.9844V33.1123V32.1092L22.3594 31.9217C22.5656 31.8185 22.7438 31.7342 22.7531 31.7342C22.7625 31.7342 22.725 31.931 22.6688 32.1748ZM21.2719 32.5029C21.4031 32.9529 21.4031 33.2342 21.2719 33.6935L21.1688 34.0592L20.3625 34.0029C19.9125 33.9654 18.9844 33.9092 18.3094 33.881L17.0625 33.8154V33.4685C17.0625 33.1592 17.0906 33.1123 17.3344 33.0654C17.6531 32.9998 17.9813 32.681 18.0563 32.3717C18.1125 32.156 18.1313 32.156 19.65 32.156H21.1781L21.2719 32.5029ZM36.9375 36.4873C37.05 36.8435 37.1156 37.1623 37.0969 37.181C37.0125 37.2654 35.9719 36.2342 35.8594 35.9623C35.7094 35.6248 35.8219 35.0998 36.1688 34.481L36.4219 34.031L36.5813 34.931C36.6656 35.4185 36.825 36.1217 36.9375 36.4873ZM27.4688 34.4529C28.575 34.4529 29.7188 34.4248 30.0094 34.3873C30.5344 34.3123 30.5438 34.3217 30.6094 34.5654C30.6469 34.7154 30.6281 34.8373 30.5531 34.8842C30.225 35.081 26.0063 35.1654 24.8906 34.9967C24.45 34.9217 24.4219 34.9029 24.3938 34.6123L24.3656 34.3123L24.9094 34.3779C25.2094 34.4248 26.3625 34.4529 27.4688 34.4529ZM25.0969 35.7561C25.1063 35.7654 24.975 36.1123 24.7969 36.5248C24.3469 37.5842 24.1781 38.5404 24.1781 39.9842C24.1781 40.6498 24.225 41.4092 24.2719 41.6717C24.3188 41.9248 24.3469 42.1592 24.3281 42.1779C24.2719 42.2342 23.1656 41.5873 22.425 41.0623C21.75 40.5842 21.7406 40.5842 21.8063 40.2373C22.1156 38.5029 22.875 36.656 23.55 35.981L23.925 35.606L24.5063 35.6717C24.8156 35.6998 25.0875 35.7467 25.0969 35.7561ZM31.4719 36.356C33.4125 38.7842 35.1469 42.2154 35.4 44.1467L35.4656 44.6248H34.35H33.2344L33.0094 43.7529C32.4469 41.531 31.3313 38.5873 30.3281 36.6842C29.7656 35.6248 29.7563 35.6623 30.5625 35.6435C30.8625 35.6342 30.9375 35.6904 31.4719 36.356ZM14.6156 36.206C14.6719 36.4779 14.7844 37.0873 14.8688 37.556L15.0188 38.4092L14.5875 39.431C14.0438 40.7248 13.2094 42.2248 12.825 42.6279C12.0844 43.3873 11.0813 43.5373 9.70313 43.0873C8.57813 42.7217 7.66875 42.1685 6.77813 41.3154C6.09375 40.6498 5.18438 39.506 5.27813 39.4029C5.29688 39.3842 5.5875 39.4967 5.91563 39.6467C6.79688 40.0404 7.80938 40.2279 9.13125 40.2279C10.4063 40.2185 11.0438 40.0779 11.7188 39.656C12.6844 39.0373 13.3781 38.0435 14.1844 36.0654C14.2688 35.8779 14.3719 35.7185 14.4281 35.7185C14.475 35.7185 14.5594 35.9436 14.6156 36.206ZM27.3375 36.0185C27.3094 36.1404 27.2344 36.6936 27.1688 37.2561C26.9906 38.9248 27.3188 41.4185 27.9281 43.0404C28.0406 43.3217 28.125 43.5842 28.125 43.6217C28.125 43.7529 27.5719 43.5935 26.3344 43.1154L25.1438 42.6467L25.0406 41.9529C24.6844 39.5529 24.9281 37.6123 25.7531 36.2435L26.0156 35.8123H26.7094C27.375 35.8123 27.3938 35.8217 27.3375 36.0185ZM29.4938 36.6842C30.1313 37.8373 30.7219 39.1498 31.2938 40.6873C31.8188 42.1217 32.4844 44.4185 32.4 44.5029C32.3344 44.5685 31.1813 44.4185 29.9719 44.1842C29.175 44.0342 29.1375 44.0154 28.9688 43.6967C28.7156 43.1904 28.2563 41.681 28.0781 40.781C27.8625 39.6842 27.7969 37.9123 27.9281 36.9092C28.0781 35.7935 28.0688 35.8123 28.5844 35.8123H29.0156L29.4938 36.6842ZM40.6219 42.9185L41.0813 43.4154L40.8188 43.6967C40.6781 43.8467 40.4906 43.9685 40.4063 43.9685C40.3219 43.9685 39.9469 43.6779 39.5719 43.3217L38.8781 42.6748L38.925 42.1779C38.9531 41.8967 39.0281 41.5498 39.0844 41.3998L39.1875 41.1373L39.675 41.7748C39.9375 42.131 40.3688 42.6467 40.6219 42.9185Z" fill="black"/>
<path d="M26.5312 29.4748C26.475 29.5498 26.4375 29.7092 26.4562 29.8311C26.4937 30.0936 26.9062 30.178 27.0937 29.9623C27.1875 29.8405 27.1875 29.8123 27.0844 29.8123C26.9812 29.8123 26.9812 29.7936 27.0937 29.7186C27.2156 29.6342 27.2062 29.6061 27.0562 29.4842C26.8219 29.3061 26.6812 29.3061 26.5312 29.4748Z" fill="black"/>
<path d="M40.2938 31.0403C40.2 31.0871 40.125 31.2371 40.125 31.359C40.125 31.6403 40.3781 31.7903 40.6688 31.6778C40.9313 31.5746 40.95 31.1715 40.6969 31.0309C40.4813 30.9184 40.4906 30.9184 40.2938 31.0403Z" fill="black"/>
<path d="M40.7812 36.4218C40.6312 36.6 40.7437 36.9093 40.9875 36.9937C41.2687 37.0781 41.5687 36.7218 41.4375 36.4593C41.3156 36.2531 40.95 36.225 40.7812 36.4218Z" fill="black"/>
<path d="M44.0719 40.8183C43.9219 40.9965 43.9688 41.2496 44.1844 41.3808C44.4188 41.5308 44.6719 41.3433 44.6719 41.0058C44.6719 40.7808 44.625 40.7246 44.4281 40.7058C44.2969 40.6871 44.1375 40.7433 44.0719 40.8183Z" fill="black"/>
<path d="M43.3219 20.1938C43.2562 20.2688 43.2187 20.4281 43.2375 20.55C43.2562 20.7188 43.3219 20.7656 43.5375 20.7656C43.875 20.7656 44.0625 20.5125 43.9125 20.2688C43.7812 20.0625 43.4625 20.0156 43.3219 20.1938Z" fill="black"/>
</svg>
