<svg width="45" height="48" viewBox="0 0 45 48" fill="none" xmlns="http://www.w3.org/2000/svg">
<path d="M15.7558 7.42627H10.3099V8.89458H15.7558V7.42627Z" fill="black"/>
<path d="M17.0058 8.89404H15.7559V10.3624H17.0058V8.89404Z" fill="black"/>
<path d="M14.2381 33.7583H10.9348V35.2266H14.2381V33.7583Z" fill="black"/>
<path d="M15.7559 32.1919H14.2381V33.6602H15.7559V32.1919Z" fill="black"/>
<path d="M19.7735 23.9692H15.7559V25.4375H19.7735V23.9692Z" fill="black"/>
<path d="M10.3099 24.7524H6.02452V26.2208H10.3099V24.7524Z" fill="black"/>
<path d="M15.7559 15.6484H14.2381V17.1167H15.7559V15.6484Z" fill="black"/>
<path d="M23.8802 37.478H22.4518V38.9463H23.8802V37.478Z" fill="black"/>
<path d="M22.4519 36.0098H20.3984V37.4781H22.4519V36.0098Z" fill="black"/>
<path d="M42.3397 28.503C42.3397 26.6755 41.4761 24.3644 40.2631 22.0188C40.2779 21.679 40.2861 21.3375 40.2861 20.9979C40.2861 15.3891 38.2941 10.1162 34.677 6.15018C31.0599 2.18418 26.2507 0 21.1353 0C16.0199 0 11.2107 2.18418 7.59359 6.15018C3.97646 10.1162 1.98441 15.3891 1.98441 20.9979C1.98441 26.6067 3.97646 31.8796 7.59359 35.8456C11.2107 39.8116 16.0199 41.9958 21.1353 41.9958C24.2737 41.9958 27.3768 41.1451 30.1291 39.5377C30.55 39.6273 30.9801 39.6885 31.4175 39.7196V42.779H27.9802V44.2473H31.4175V45.3894C31.4175 46.8288 32.4856 47.9998 33.7983 47.9998C35.1111 47.9998 36.1792 46.8288 36.1792 45.3894C36.1792 43.95 35.1112 42.779 33.7983 42.779H32.7567V39.7196C38.099 39.3401 42.3397 34.4547 42.3397 28.503ZM30.7547 4.56815C32.9061 6.08774 34.7412 8.10083 36.1258 10.4607H34.7723V11.929H36.906C38.02 14.2485 38.721 16.8417 38.9003 19.5909C36.1856 15.0803 32.8163 11.0269 32.5807 10.745L32.0872 10.155L31.5937 10.745C31.4798 10.8813 30.6325 11.9003 29.4814 13.4254L28.5228 12.427V9.67761H30.7547V4.56815ZM19.1485 1.59047C19.8011 1.51068 20.4636 1.46831 21.1354 1.46831C24.1229 1.46831 26.9403 2.28018 29.4156 3.71137V8.2092H27.1836V13.0576L28.6339 14.568C28.0468 15.3731 27.4163 16.2672 26.784 17.215H23.1661V13.93L21.0233 11.6784V7.72574L19.1485 6.97517V1.59047ZM8.07788 32.7022L7.41139 33.4335C5.29552 30.6313 3.87907 27.1726 3.45643 23.382H6.64938V21.9137H3.34374C3.33091 21.6101 3.32356 21.3049 3.32356 20.998C3.32356 17.7263 4.06222 14.6406 5.36452 11.929H7.36368V17.1171H9.59565V22.1413L11.6491 23.6423V27.4393L8.07788 31.1917V32.7022ZM8.30524 34.5301L9.41712 33.31V31.8183L12.9883 28.0658V22.8566L10.9348 21.3556V15.6488H8.70291V10.4607H6.14474C8.74259 6.03318 12.9266 2.82665 17.8093 1.81125V8.00239L19.6841 8.75295V12.3052L21.8268 14.5568V18.6835H25.8325C25.3296 19.4837 24.84 20.3057 24.3854 21.1307H19.2378V22.5991H23.6179C22.7069 24.4476 22.0425 26.2505 21.8766 27.7872H19.1485V32.1922H17.0058V37.8123L19.3852 40.4333C15.0508 39.9675 11.1675 37.7914 8.30524 34.5301ZM21.3568 40.5236L18.3449 37.206V33.6604H20.4877V29.2554H21.8582C22.1233 33.6323 24.6831 37.3315 28.2274 38.9166C26.0689 39.942 23.7259 40.4913 21.3568 40.5236ZM33.7984 44.2474C34.3728 44.2474 34.8401 44.7597 34.8401 45.3894C34.8401 46.0193 34.3728 46.5316 33.7984 46.5316C33.224 46.5316 32.7568 46.0193 32.7568 45.3894V44.2474H33.7984ZM31.4178 22.4988V31.984L29.8229 30.2353L28.876 31.2734L31.4179 34.0605V38.2483C26.8144 37.8717 23.1739 33.6447 23.1739 28.5029C23.1739 26.2889 24.7836 22.7056 27.8291 18.14C29.5381 15.5779 31.2655 13.3668 32.0872 12.3433C32.9089 13.3668 34.6363 15.5778 36.3454 18.14C37.36 19.6611 38.2143 21.0725 38.9038 22.3612C38.902 22.3893 38.9008 22.4176 38.8989 22.4456L38.9514 22.4498C40.3006 24.9885 41.0005 27.0434 41.0005 28.5029C41.0005 33.6447 37.36 37.8716 32.7568 38.2483V36.3121L34.6143 34.2756L33.6673 33.2374L32.757 34.2356V29.5575L35.2989 26.7704L34.3519 25.7323L32.757 27.481V22.4988H31.4178Z" fill="black"/>
</svg>
