<svg width="45" height="48" viewBox="0 0 45 48" fill="none" xmlns="http://www.w3.org/2000/svg">
<g clip-path="url(#clip0_113_2708)">
<path d="M42.0377 12.0337H41.3095V9.7323C41.3095 9.45943 41.1657 9.21107 40.9405 9.09487C34.9774 6.01817 28.1511 5.9744 22.162 8.95876C16.173 5.9744 9.34671 6.01827 3.3836 9.09487C3.15837 9.21107 3.01461 9.45943 3.01461 9.7323V12.0337H2.28641C1.17629 12.0337 0.273148 13.0239 0.273148 14.2411V39.0395C0.273148 40.2567 1.17629 41.247 2.28641 41.247H42.0377C43.1478 41.247 44.0509 40.2567 44.0509 39.0395V14.2411C44.0509 13.0239 43.1478 12.0337 42.0377 12.0337ZM22.8046 22.5051C22.8046 22.5042 22.8046 22.5033 22.8046 22.5025V10.1841C28.2992 7.48757 34.5296 7.48757 40.0244 10.1841V12.7354C40.0244 12.7364 40.0243 12.7373 40.0243 12.7382C40.0243 12.739 40.0244 12.7401 40.0244 12.7409V35.7018C37.2626 34.4374 34.3383 33.805 31.4145 33.805C28.4906 33.805 25.5663 34.4374 22.8046 35.7018V22.5051ZM18.6924 9.05457C19.6508 9.35553 20.5957 9.73071 21.5195 10.1841V21.191L20.4623 20.4182C20.2464 20.2604 19.9654 20.2604 19.7495 20.4182L18.6924 21.191V9.05457ZM4.29967 12.7401C4.29967 12.7394 4.29976 12.7388 4.29976 12.7382C4.29976 12.7375 4.29967 12.737 4.29967 12.7364V10.1841C8.46011 8.14238 13.042 7.64801 17.4073 8.69809V11.7844C15.1142 11.2673 12.7744 11.1478 10.4399 11.4321C10.0872 11.475 9.83307 11.8234 9.87222 12.2101C9.91146 12.5967 10.2288 12.8756 10.5817 12.8325C12.8698 12.5538 15.1633 12.6858 17.4072 13.2237V17.797C16.044 17.4903 14.6538 17.321 13.2627 17.297C12.9076 17.2896 12.6157 17.6012 12.6101 17.9902C12.6045 18.3793 12.8876 18.6996 13.2423 18.7058C14.6414 18.73 16.0398 18.909 17.4071 19.2362V20.8011C13.69 19.9643 9.83469 20.177 6.20585 21.4272C5.86728 21.5438 5.67915 21.9392 5.78546 22.3105C5.87173 22.6114 6.12506 22.804 6.39827 22.804C6.46209 22.804 6.52694 22.7935 6.59103 22.7714C10.0956 21.5642 13.824 21.3837 17.4071 22.2418V22.5072C17.4071 22.767 17.5375 23.0058 17.7465 23.1282C17.9553 23.2509 18.2089 23.2374 18.4061 23.0933L20.1058 21.8508L21.5193 22.8841V35.7017C18.7576 34.4373 15.8333 33.8049 12.9094 33.8049C9.98556 33.8049 7.06119 34.4373 4.2995 35.7017V12.7401H4.29967ZM19.4634 39.838H2.28641C1.88487 39.838 1.55821 39.4798 1.55821 39.0395V14.2411C1.55821 13.8008 1.88487 13.4427 2.28641 13.4427H3.01461V36.7851V37.5366C3.01461 37.9257 3.3023 38.2411 3.65714 38.2411H19.4634V39.838ZM5.18123 36.8321C10.1586 34.6778 15.6605 34.6777 20.638 36.8321H5.18123ZM23.5756 39.838H20.7485V38.2411H23.5756V39.838ZM39.1428 36.8321H23.6861C28.6635 34.6778 34.1654 34.6778 39.1428 36.8321ZM42.7659 39.0395C42.7659 39.4798 42.4392 39.838 42.0377 39.838H24.8607V38.2411H40.6669C41.0218 38.2411 41.3095 37.9257 41.3095 37.5366V36.7851V13.4427H42.0377C42.4392 13.4427 42.7659 13.8008 42.7659 14.2411V39.0395Z" fill="black"/>
<path d="M26.8277 29.8476C26.1164 30.0111 25.4043 30.215 24.7109 30.4539C24.3724 30.5705 24.1842 30.966 24.2905 31.3371C24.3768 31.6381 24.6301 31.8307 24.9033 31.8307C24.9672 31.8307 25.032 31.8201 25.0961 31.7981C25.7496 31.573 26.4209 31.3807 27.0912 31.2267C27.4385 31.1468 27.6611 30.7734 27.5883 30.3926C27.5155 30.0118 27.1747 29.7679 26.8277 29.8476Z" fill="black"/>
<path d="M37.9256 31.8303C38.1988 31.8303 38.4523 31.6376 38.5384 31.3368C38.6448 30.9655 38.4565 30.5701 38.118 30.4535C35.3703 29.507 32.5213 29.1533 29.65 29.4026C29.2963 29.4332 29.0322 29.7725 29.0602 30.1604C29.0881 30.5484 29.3973 30.838 29.7514 30.8072C32.4577 30.5724 35.143 30.9056 37.7329 31.7978C37.797 31.8199 37.8618 31.8303 37.9256 31.8303Z" fill="black"/>
<path d="M24.9033 28.816C24.9671 28.816 25.032 28.8055 25.0961 28.7834C29.2296 27.3595 33.5994 27.3595 37.7329 28.7834C38.0714 28.8999 38.4321 28.6936 38.5384 28.3225C38.6447 27.9512 38.4565 27.5558 38.118 27.4392C33.7325 25.9285 29.0964 25.9285 24.7109 27.4392C24.3723 27.5558 24.1841 27.9512 24.2905 28.3225C24.3768 28.6233 24.6301 28.816 24.9033 28.816Z" fill="black"/>
<path d="M24.9033 25.8185C24.9671 25.8185 25.032 25.808 25.0961 25.7859C27.4675 24.969 29.9287 24.62 32.4123 24.7492C32.7676 24.7672 33.0677 24.4675 33.0845 24.0788C33.1013 23.6901 32.8276 23.3602 32.4731 23.3417C29.8385 23.2049 27.227 23.5749 24.7109 24.4416C24.3723 24.5583 24.1841 24.9538 24.2905 25.3249C24.3768 25.626 24.6301 25.8185 24.9033 25.8185Z" fill="black"/>
<path d="M38.1181 24.4421C37.1962 24.1246 36.2465 23.8704 35.295 23.6866C34.9455 23.6191 34.6124 23.875 34.5507 24.2582C34.4891 24.6413 34.7225 25.0067 35.072 25.0743C35.9687 25.2475 36.864 25.4871 37.7328 25.7864C37.797 25.8085 37.8617 25.819 37.9256 25.819C38.1988 25.819 38.4522 25.6263 38.5384 25.3254C38.6448 24.9541 38.4566 24.5587 38.1181 24.4421Z" fill="black"/>
<path d="M24.9033 22.8043C24.9671 22.8043 25.032 22.7937 25.0961 22.7717C29.2296 21.3477 33.5994 21.3477 37.7329 22.7717C38.0714 22.8881 38.4321 22.6819 38.5384 22.3107C38.6447 21.9395 38.4565 21.5441 38.118 21.4275C33.7325 19.9168 29.0964 19.9168 24.7109 21.4275C24.3723 21.5441 24.1841 21.9395 24.2905 22.3107C24.3768 22.6116 24.6301 22.8043 24.9033 22.8043Z" fill="black"/>
<path d="M28.9453 17.4438C27.5118 17.6184 26.0871 17.9473 24.7109 18.4214C24.3724 18.538 24.1842 18.9334 24.2905 19.3047C24.3768 19.6056 24.6301 19.7982 24.9033 19.7982C24.9672 19.7982 25.032 19.7877 25.0961 19.7656C26.3932 19.3187 27.736 19.0088 29.0871 18.8442C29.4398 18.8013 29.6939 18.453 29.6547 18.0662C29.6156 17.6795 29.2976 17.4008 28.9453 17.4438Z" fill="black"/>
<path d="M31.7474 18.7057C33.7799 18.7409 35.7937 19.0974 37.7329 19.7656C37.797 19.7876 37.8618 19.7982 37.9256 19.7982C38.1988 19.7982 38.4522 19.6055 38.5384 19.3046C38.6448 18.9334 38.4565 18.538 38.118 18.4214C36.0607 17.7127 33.924 17.3344 31.7677 17.297C31.4143 17.2897 31.1207 17.6013 31.1151 17.9902C31.1094 18.3792 31.3925 18.6996 31.7474 18.7057Z" fill="black"/>
<path d="M33.7422 15.8472C34.0949 15.8904 34.4126 15.6115 34.4518 15.2248C34.491 14.8381 34.2368 14.4898 33.8841 14.4469C30.7784 14.0686 27.692 14.3974 24.7109 15.4243C24.3724 15.541 24.1842 15.9365 24.2905 16.3076C24.3768 16.6085 24.6301 16.8011 24.9033 16.8011C24.9672 16.8011 25.032 16.7906 25.0961 16.7685C27.9058 15.8006 30.8148 15.4907 33.7422 15.8472Z" fill="black"/>
<path d="M38.118 15.4243C37.6539 15.2644 37.1791 15.1194 36.7069 14.9933C36.3616 14.9013 36.0145 15.1331 35.9305 15.5111C35.8466 15.8891 36.058 16.2702 36.4028 16.3623C36.8479 16.4811 37.2954 16.6178 37.7329 16.7685C37.797 16.7905 37.8618 16.8011 37.9256 16.8011C38.1988 16.8011 38.4523 16.6084 38.5384 16.3075C38.6448 15.9363 38.4566 15.5408 38.118 15.4243Z" fill="black"/>
<path d="M24.9033 13.7864C24.9671 13.7864 25.032 13.7759 25.0961 13.7538C25.5333 13.6032 25.9806 13.4666 26.4258 13.3477C26.7705 13.2556 26.982 12.8745 26.898 12.4964C26.814 12.1183 26.4664 11.8866 26.1216 11.9787C25.6493 12.1047 25.1747 12.2498 24.7108 12.4095C24.3723 12.5262 24.1841 12.9217 24.2904 13.2928C24.3768 13.5938 24.6301 13.7864 24.9033 13.7864Z" fill="black"/>
<path d="M29.0867 12.8326C32.0143 12.476 34.9231 12.786 37.7329 13.754C37.797 13.7759 37.8618 13.7866 37.9256 13.7866C38.1988 13.7866 38.4522 13.5939 38.5384 13.293C38.6447 12.9218 38.4565 12.5263 38.118 12.4098C35.137 11.3828 32.0505 11.0538 28.9448 11.4323C28.5921 11.4752 28.338 11.8235 28.3771 12.2103C28.4163 12.5969 28.7338 12.8757 29.0867 12.8326Z" fill="black"/>
<path d="M8.32278 29.8476C7.61154 30.0111 6.89936 30.215 6.20602 30.4539C5.86745 30.5705 5.67932 30.966 5.78564 31.3371C5.87191 31.6381 6.12523 31.8307 6.39844 31.8307C6.46226 31.8307 6.52712 31.8201 6.5912 31.7981C7.2447 31.573 7.91601 31.3807 8.5863 31.2267C8.93361 31.1468 9.15618 30.7734 9.08336 30.3926C9.01054 30.0118 8.66983 29.7679 8.32278 29.8476Z" fill="black"/>
<path d="M19.4207 31.8303C19.6939 31.8303 19.9474 31.6376 20.0335 31.3368C20.1399 30.9655 19.9516 30.5701 19.6132 30.4535C16.8654 29.507 14.0162 29.1533 11.1451 29.4026C10.7914 29.4332 10.5273 29.7725 10.5553 30.1604C10.5832 30.5484 10.8923 30.838 11.2465 30.8072C13.9529 30.5724 16.6381 30.9056 19.228 31.7978C19.2921 31.8199 19.3569 31.8303 19.4207 31.8303Z" fill="black"/>
<path d="M6.39844 28.816C6.46227 28.816 6.52712 28.8055 6.5912 28.7834C10.7247 27.3595 15.0945 27.3595 19.228 28.7834C19.5666 28.8999 19.9272 28.6936 20.0335 28.3225C20.1399 27.9512 19.9516 27.5558 19.6132 27.4392C15.2276 25.9285 10.5914 25.9285 6.20602 27.4392C5.86745 27.5558 5.67923 27.9512 5.78564 28.3225C5.87191 28.6233 6.12524 28.816 6.39844 28.816Z" fill="black"/>
<path d="M6.39844 25.8185C6.46227 25.8185 6.52712 25.808 6.5912 25.7859C8.96265 24.969 11.424 24.62 13.9074 24.7492C14.2636 24.7672 14.5628 24.4675 14.5797 24.0788C14.5965 23.6901 14.3227 23.3602 13.9682 23.3417C11.3333 23.2049 8.72209 23.5749 6.20602 24.4416C5.86745 24.5583 5.67923 24.9538 5.78564 25.3249C5.87191 25.626 6.12524 25.8185 6.39844 25.8185Z" fill="black"/>
<path d="M16.5672 25.0742C17.4639 25.2474 18.3592 25.487 19.228 25.7863C19.2921 25.8084 19.3569 25.8189 19.4207 25.8189C19.6939 25.8189 19.9474 25.6262 20.0335 25.3254C20.1399 24.9541 19.9516 24.5587 19.6131 24.4421C18.6913 24.1246 17.7416 23.8704 16.7901 23.6866C16.4407 23.6191 16.1074 23.875 16.0458 24.2582C15.9843 24.6412 16.2177 25.0066 16.5672 25.0742Z" fill="black"/>
<path d="M10.4404 17.4438C9.00694 17.6184 7.58224 17.9473 6.20602 18.4214C5.86745 18.538 5.67932 18.9334 5.78564 19.3047C5.87191 19.6056 6.12523 19.7982 6.39844 19.7982C6.46226 19.7982 6.52712 19.7877 6.5912 19.7656C7.88834 19.3187 9.23114 19.0088 10.5822 18.8442C10.9349 18.8013 11.189 18.453 11.1498 18.0662C11.1108 17.6796 10.7925 17.4008 10.4404 17.4438Z" fill="black"/>
<path d="M5.78564 16.3077C5.87191 16.6086 6.12523 16.8012 6.39844 16.8012C6.46226 16.8012 6.52712 16.7907 6.5912 16.7686C9.40094 15.8006 12.3099 15.4907 15.2374 15.8472C15.59 15.8904 15.9077 15.6115 15.9469 15.2248C15.9861 14.8381 15.7319 14.4898 15.3792 14.4469C12.2734 14.0686 9.18711 14.3975 6.20602 15.4243C5.86745 15.5411 5.67932 15.9366 5.78564 16.3077Z" fill="black"/>
<path d="M6.39844 13.7864C6.46227 13.7864 6.52712 13.7759 6.5912 13.7538C7.02838 13.6032 7.47575 13.4666 7.9209 13.3477C8.26564 13.2556 8.47707 12.8745 8.39311 12.4964C8.30916 12.1183 7.9615 11.8866 7.61677 11.9787C7.14446 12.1047 6.66985 12.2498 6.20594 12.4095C5.86745 12.5262 5.67923 12.9217 5.78555 13.2928C5.87191 13.5938 6.12524 13.7864 6.39844 13.7864Z" fill="black"/>
</g>
<defs>
<clipPath id="clip0_113_2708">
<rect width="43.7778" height="48" fill="white" transform="translate(0.273148)"/>
</clipPath>
</defs>
</svg>
