<svg width="45" height="48" viewBox="0 0 45 48" fill="none" xmlns="http://www.w3.org/2000/svg">
<path d="M2.75275 4.2375C2.5903 4.35938 2.36799 4.64063 2.26538 4.875L2.06873 5.2875V24V42.7125L2.26538 43.125C2.36799 43.3594 2.58175 43.6406 2.7442 43.7531L3.03491 43.9688H20.0843C34.9705 43.9688 37.1679 43.95 37.3817 43.8281C37.9118 43.5281 38.2281 42.75 38.0742 42.1125C37.9631 41.6813 37.5185 41.1844 37.1166 41.0625C36.9285 41.0063 31.0544 40.9688 20.8196 40.9688H4.80484V23.0531C4.80484 3.225 4.84759 4.74375 4.26617 4.29375C3.8643 3.975 3.13752 3.95625 2.75275 4.2375Z" fill="black"/>
<path d="M39.391 13.1344C39.2969 13.1906 36.8259 15.8625 33.9017 19.0687L28.5748 24.8906L25.0521 21.0281C21.9483 17.6344 21.478 17.1562 21.1617 17.0625C20.3323 16.8281 20.6315 16.5562 14.4411 23.325C11.0808 27 8.738 29.6344 8.6354 29.85C8.19078 30.7875 8.85771 31.9688 9.8239 31.9688C10.0291 31.9688 10.2856 31.9219 10.3882 31.8656C10.4908 31.8094 12.8764 29.25 15.6809 26.1656L20.794 20.5781L24.3167 24.4406C26.2577 26.5687 27.9592 28.35 28.0874 28.4062C28.4295 28.5375 28.7971 28.5187 29.1135 28.35C29.5068 28.1344 40.9472 15.6 41.1609 15.15C41.6055 14.2031 40.9386 13.0312 39.9553 13.0312C39.7416 13.0312 39.4851 13.0781 39.391 13.1344Z" fill="black"/>
</svg>
