<svg width="48" height="48" viewBox="0 0 48 48" fill="none" xmlns="http://www.w3.org/2000/svg">
<path d="M36.032 1.12014C31.776 2.62414 29.888 7.36014 32.224 10.6561C32.736 11.3921 33.6 12.2881 34.176 12.6401C34.912 13.1201 35.168 13.5361 35.2 14.1761C35.2 15.5201 36.512 16.6401 38.016 16.6401C39.424 16.6401 40.96 15.6481 40.96 14.7521C40.96 14.3681 41.44 13.9841 42.4 13.6001C46.528 12.0321 48.288 8.09614 46.464 4.57614C44.768 1.34414 39.936 -0.287863 36.032 1.12014ZM42.848 2.43214C47.04 4.54414 47.424 9.28014 43.584 11.9681C42.72 12.5761 41.824 12.9281 41.12 12.9281C40.096 12.9281 40 12.9921 40 13.9201C40 15.2001 39.488 15.6801 38.208 15.6801C37.024 15.6801 36.032 14.8801 36.256 14.1121C36.352 13.8241 36.448 13.4081 36.512 13.1521C36.576 12.8641 36.352 12.6081 36 12.5441C33.92 12.1281 31.776 8.92814 32.128 6.78414C32.8 2.49614 38.4 0.224138 42.848 2.43214Z" fill="black"/>
<path d="M35.296 5.12038C33.92 5.66438 33.504 7.45638 34.496 8.60838C35.36 9.66438 36.768 9.79238 38.08 8.89638L39.2 8.12838L40.32 8.89638C41.632 9.79238 43.04 9.66438 43.936 8.60838C45.568 6.62438 43.072 4.03238 40.704 5.24838C40.16 5.53638 39.648 5.88838 39.52 6.04838C39.424 6.24038 38.848 6.01638 38.176 5.60038C36.96 4.76838 36.416 4.67238 35.296 5.12038ZM37.696 6.49638L38.4 7.23238L37.6 8.00038C36.928 8.64038 36.64 8.70438 35.904 8.44838C34.848 8.06438 34.56 6.78438 35.392 6.17638C36.224 5.56838 36.928 5.66438 37.696 6.49638ZM43.008 6.27238C43.296 6.52838 43.52 6.97638 43.52 7.20038C43.52 7.80838 42.624 8.64038 41.92 8.64038C41.6 8.64038 41.024 8.35238 40.608 8.03238L39.84 7.42438L40.608 6.59238C41.504 5.63238 42.304 5.53638 43.008 6.27238Z" fill="black"/>
<path d="M12.896 1.44022C10.72 2.04822 8.832 3.29622 7.936 4.76822C7.552 5.37622 6.752 6.30422 6.176 6.81622C5.632 7.29622 4.832 8.35222 4.448 9.15222C3.52 11.1362 3.68 14.5922 4.896 16.9922L5.696 18.6242L5.088 20.4162C4.768 21.3762 4.48 22.4322 4.48 22.7522C4.48 23.5842 5.44 24.3842 6.272 24.2242C6.848 24.1282 7.008 24.2882 7.168 24.9282C7.296 25.5682 7.104 25.9522 6.4 26.5602C5.856 27.0082 4.608 29.1202 3.456 31.4882L1.44 35.6482L1.344 41.1842L1.216 46.7202H4.768C7.296 46.7202 8.32 46.6242 8.32 46.3362C8.32 46.1442 8.16 44.6722 7.968 43.1362L7.584 40.2882L8.608 39.2962C9.664 38.2722 9.824 37.8882 10.176 35.3922C10.304 34.5282 10.496 33.8242 10.656 33.8562C10.784 33.8882 11.136 33.9202 11.488 33.9202C11.936 33.9202 12.096 34.2402 12.256 35.5202C12.416 36.8642 12.32 37.3442 11.584 38.6242C10.848 39.9362 10.72 40.6082 10.624 43.4562L10.496 46.7202L28.832 46.6562L47.2 46.5602L47.296 33.3442L47.36 20.1602L46.496 19.7762C45.44 19.3602 40.672 19.2642 38.976 19.6162C37.888 19.8402 37.792 19.9682 37.696 21.0562C37.6 22.2402 37.6 22.2402 36.032 22.3362C34.144 22.4642 33.024 22.0482 31.808 20.7682C30.912 19.8082 30.88 19.7762 31.52 19.3602C31.872 19.1042 32.384 18.6882 32.672 18.4002C34.016 17.0882 33.44 14.0162 31.776 13.4082C31.2 13.2162 30.688 12.7042 30.368 11.9042C30.016 11.0722 29.504 10.4962 28.704 10.1122C28 9.79222 27.52 9.34422 27.52 8.99222C27.52 8.70422 27.296 7.64822 27.008 6.68822C26.336 4.41622 24.48 2.56022 21.984 1.63222C19.776 0.832218 15.552 0.736217 12.896 1.44022ZM20.48 2.24022C20.864 2.46422 20.864 2.62422 20.544 2.94422C19.52 3.96822 20.48 5.53622 22.496 6.11222C23.328 6.33622 23.712 6.65622 23.968 7.39222C24.32 8.41622 24.96 8.38422 24.96 7.39222C24.96 6.49622 23.968 5.50422 22.752 5.21622C21.248 4.83222 20.8 4.06422 21.568 3.23222C22.112 2.65622 22.24 2.62422 23.008 3.00822C24.704 3.90422 26.048 5.98422 26.432 8.28822C26.624 9.53622 26.592 9.63222 25.632 9.95222C24.48 10.3682 24.192 11.4242 25.376 11.0402C27.232 10.4642 27.712 10.4962 28.736 11.3602C29.536 12.0322 29.76 12.4802 29.76 13.3762V14.4962L29.056 13.8242C28.64 13.4722 27.936 13.0882 27.488 12.9602C26.4 12.7042 23.904 13.3442 24.096 13.8562C24.192 14.0802 24.384 14.2082 24.576 14.1762C26.848 13.6642 27.488 13.7282 28.128 14.3682C29.024 15.2642 28.992 15.5842 27.808 16.6722C26.976 17.4402 26.912 17.6322 27.328 17.7922C27.616 17.8882 28.064 17.8242 28.32 17.6002C28.704 17.2802 28.832 17.3762 29.12 18.1122C29.728 19.7762 30.208 20.5762 31.328 21.6322C32.64 22.9442 34.112 23.4562 36.16 23.2962L37.76 23.2002V25.3122C37.76 31.2642 34.048 38.9442 29.184 43.1042C26.496 45.4082 25.92 45.7602 24.576 45.7602C23.168 45.7602 23.136 45.6322 23.712 42.3362C23.904 41.2162 23.968 40.1922 23.872 40.0962C23.424 39.6482 23.008 40.6402 22.656 43.1362L22.272 45.7602H16.896H11.52V43.5842C11.552 42.4002 11.808 40.7042 12.096 39.8402C12.544 38.5282 12.768 38.2402 13.44 38.2082C13.888 38.1762 14.4 38.1442 14.624 38.1122C15.328 38.0482 16 37.0882 16 36.1602C16 35.2962 16.032 35.2642 16.96 35.6162C17.664 35.8722 18.016 35.8722 18.272 35.6162C18.592 35.2962 18.464 35.1362 17.792 34.9122C16.64 34.4642 16.48 33.8562 16.96 31.8082C17.344 30.2402 17.312 30.0162 16.8 29.4402C16.512 29.1202 15.712 28.6402 15.072 28.4482C13.408 27.9042 13.152 27.6162 12.928 25.8882C12.64 23.7442 11.776 22.6562 10.432 22.7842C9.824 22.8482 9.44 23.0722 9.44 23.3602C9.44 23.6802 9.696 23.8082 10.272 23.7442C11.296 23.6162 11.712 24.0962 11.968 25.8242C12.288 28.0962 12.768 28.7682 14.208 29.1522C15.808 29.5682 16.32 29.9842 16.32 30.7522C16.32 31.4882 16.192 31.4882 15.264 30.9122C14.88 30.6562 14.016 30.3362 13.376 30.2402C12.416 30.0482 12.16 30.1122 12.16 30.4642C12.16 30.7842 12.672 31.0402 13.536 31.2322L14.88 31.5202L14.976 34.1122C15.04 36.1282 14.944 36.8002 14.56 37.1202C13.728 37.8242 13.12 36.9602 13.12 35.0082C13.12 33.1522 12.992 33.0242 10.72 32.8642C9.696 32.8002 9.6 32.9922 9.088 36.2882C8.992 37.0562 8.544 37.8882 7.968 38.4962C7.136 39.2962 6.848 39.4242 5.76 39.2642C5.056 39.1682 4.416 39.2322 4.32 39.3602C4.096 39.7122 5.184 40.3202 6.016 40.3202C6.528 40.3202 6.688 40.6402 6.848 41.9842C6.976 42.9122 7.136 44.1602 7.232 44.7042L7.424 45.7602H4.8H2.208L2.304 40.8642L2.4 35.9362L4.544 31.6162C7.104 26.4002 7.488 26.1122 9.376 28.1282C10.496 29.3442 10.592 29.5682 10.4 30.7202C10.176 32.1282 10.624 32.4482 11.232 31.3282C11.808 30.2082 11.296 28.8002 9.568 26.9762C8.064 25.3762 7.936 25.1522 8.16 24.0962L8.352 22.9442L7.04 23.1682C5.344 23.4242 5.184 23.0082 6.048 20.4162L6.72 18.4002L5.92 16.8322C4.576 14.1762 5.056 12.8002 7.296 12.8002C7.968 12.8002 8.832 12.5762 9.216 12.2882C9.824 11.8722 10.112 11.8402 10.88 12.1602C11.52 12.4162 12.544 12.4802 13.92 12.3202C17.6 11.9362 18.688 13.5042 16.416 16.0322C14.464 18.1762 14.912 19.9042 17.568 20.3522C19.328 20.6402 19.52 20.7362 19.52 21.4402C19.52 21.7922 19.744 22.0802 20 22.0802C20.736 22.0802 20.576 20.5762 19.776 20.0322C19.392 19.7442 18.688 19.5202 18.24 19.5202C17.408 19.5202 16 18.7202 16 18.2402C16 18.1122 16.512 17.3762 17.12 16.6402C18.464 15.0082 18.752 14.0482 18.24 12.8322C17.696 11.4882 16.48 11.1042 13.696 11.3602C11.648 11.5522 11.296 11.5202 10.848 10.9762C9.984 10.0162 9.824 9.02422 10.368 7.93622C10.976 6.72022 11.008 6.40022 10.464 6.40022C9.728 6.40022 9.12 8.00022 9.184 9.63222C9.248 11.3922 8.832 11.8402 7.04 11.8402C6.496 11.8402 5.76 12.0002 5.408 12.1602C4.896 12.4482 4.8 12.3842 4.8 11.6802C4.8 10.4002 5.664 8.57622 6.88 7.36022C7.488 6.75222 8.544 5.63222 9.184 4.86422C10.464 3.36022 11.488 2.72022 13.344 2.27222C14.976 1.88822 19.872 1.85622 20.48 2.24022ZM31.776 14.4642C32.672 15.1682 32.8 16.6722 32 17.6962C30.496 19.6162 29.152 17.8242 30.24 15.2642C30.784 13.9842 30.976 13.8882 31.776 14.4642ZM46.048 20.6402C46.304 20.7682 46.4 24.8322 46.4 33.3122V45.7602H40.64H34.912L36.64 43.4562C38.528 40.9602 39.84 38.2082 39.328 37.8882C38.912 37.6322 38.976 37.5682 37.92 39.6802C36.96 41.6002 35.264 43.9042 33.952 45.0242C33.216 45.6322 32.736 45.7282 30.304 45.7602H27.488L29.44 44.1602C35.264 39.2962 38.72 31.7762 38.72 23.9362V20.5122L39.776 20.3842C41.12 20.1602 45.632 20.3522 46.048 20.6402Z" fill="black"/>
<path d="M16.832 3.90406C16.16 4.86406 16.192 6.17606 16.896 6.78406C17.184 7.07206 18.272 7.45606 19.264 7.68006C21.152 8.06406 22.08 8.83206 22.08 9.98406C22.08 10.3041 22.304 10.5601 22.56 10.5601C23.104 10.5601 23.168 9.98406 22.72 8.83206C22.336 7.77606 20.608 6.72006 19.328 6.72006C18.816 6.72006 18.08 6.52806 17.76 6.27206C17.184 5.85606 17.184 5.69606 17.536 4.73606C17.728 4.12806 17.92 3.55206 17.92 3.42406C17.92 2.94406 17.28 3.23206 16.832 3.90406Z" fill="black"/>
<path d="M12.8 6.88029C12.544 7.68029 12.544 8.16029 12.8 8.60829C13.152 9.31229 13.536 9.44029 16.16 9.76029C18.016 10.0163 19.36 10.6563 19.808 11.4883C20 11.8083 20.096 13.2483 20.064 14.6883C20 17.1203 20.064 17.3763 20.768 17.9523C21.248 18.3363 22.016 18.5603 22.88 18.5603C24.384 18.5603 25.28 19.1683 25.28 20.1923C25.28 20.8643 25.76 21.0243 25.984 20.3843C26.272 19.6163 25.728 18.4003 24.96 18.0163C24.512 17.7923 23.552 17.6003 22.816 17.6003C21.024 17.6003 20.736 17.0243 20.992 14.1123C21.312 10.5923 20.32 9.50429 16.096 8.86429C13.408 8.44829 13.344 8.35229 13.92 6.46429C14.08 5.95229 14.016 5.76029 13.664 5.76029C13.376 5.76029 13.024 6.24029 12.8 6.88029Z" fill="black"/>
<path d="M8.41602 16.1604C7.10402 16.7364 6.97602 17.4724 8.25602 17.0884C8.73602 16.9284 9.76002 16.8004 10.56 16.7684C12.672 16.6724 12.704 16.6724 12.032 16.1604C11.232 15.5524 9.76002 15.5524 8.41602 16.1604Z" fill="black"/>
<path d="M9.15198 17.8884C7.83998 18.1444 7.67998 18.8804 8.89598 18.8804C10.176 18.8804 10.88 18.5924 10.88 18.0484C10.88 17.5684 10.656 17.5684 9.15198 17.8884Z" fill="black"/>
<path d="M13.28 21.7284C13.184 21.9204 13.408 22.2084 13.76 22.4004C14.208 22.6244 14.4 23.0724 14.4 23.8404C14.4 25.6964 14.912 26.5284 16.48 27.2324C18.528 28.1284 18.944 28.8644 18.688 31.1044C18.464 33.0244 19.04 34.5604 19.936 34.5604C20.192 34.5604 20.672 34.9124 21.088 35.3284C21.664 35.9364 21.76 36.2884 21.6 37.4724L21.408 38.8804L22.048 38.1124C23.264 36.7684 22.656 34.8804 20.704 33.8884C19.488 33.2484 19.488 33.2164 19.52 31.5844C19.552 30.6564 19.552 29.5364 19.552 29.0884C19.52 28.0964 18.112 26.5604 17.248 26.5604C16.192 26.5604 15.36 25.4084 15.36 24.0004C15.36 22.3364 13.92 20.7364 13.28 21.7284Z" fill="black"/>
<path d="M16.768 22.2401C16.48 23.4561 17.344 24.5441 18.848 24.8001C20.288 25.0561 21.024 25.7281 21.184 26.9761C21.312 28.1921 21.888 28.2241 22.016 27.0081C22.144 25.6321 21.024 24.4161 19.2 23.9041C17.92 23.5521 17.76 23.3921 17.664 22.4641C17.536 21.2481 17.056 21.1201 16.768 22.2401Z" fill="black"/>
<path d="M24.64 22.1123C24.64 22.3043 25.056 22.7843 25.568 23.2323C26.784 24.2243 27.008 25.4083 26.528 27.8083C26.336 28.8643 26.24 30.0803 26.368 30.5283C26.56 31.3603 27.36 32.3203 27.872 32.3203C28.352 32.3203 28.192 31.4883 27.648 31.0083C27.264 30.6883 27.168 30.2403 27.328 29.2163C27.424 28.4483 27.616 27.2003 27.712 26.4323C27.968 24.7043 27.168 22.8803 25.888 22.2403C24.832 21.6643 24.64 21.6643 24.64 22.1123Z" fill="black"/>
<path d="M21.44 22.8481C21.44 23.1041 21.728 23.4241 22.112 23.5201C22.944 23.8081 24 25.5041 24 26.6561C24 27.1361 23.68 28.5761 23.296 29.8881C22.624 32.1921 22.624 32.2241 23.232 33.4721C23.936 34.9121 25.376 35.8721 25.952 35.2961C26.208 35.0401 26.08 34.8481 25.408 34.4961C24.896 34.2721 24.288 33.6641 24.032 33.1521C23.648 32.3521 23.68 31.9361 24.32 29.6001C24.8 27.8081 24.96 26.5601 24.832 25.7921C24.48 23.9361 21.44 21.3121 21.44 22.8481Z" fill="black"/>
<path d="M33.92 17.6C33.568 17.952 33.28 18.464 33.28 18.72C33.28 19.456 34.464 20.48 35.36 20.48C36.256 20.48 37.44 19.456 37.44 18.72C37.44 17.984 36.256 16.96 35.36 16.96C34.912 16.96 34.272 17.248 33.92 17.6ZM36.096 18.304C36.512 18.72 36.032 19.52 35.36 19.52C34.688 19.52 34.208 18.72 34.624 18.304C34.848 18.08 35.168 17.92 35.36 17.92C35.552 17.92 35.872 18.08 36.096 18.304Z" fill="black"/>
</svg>
