<svg width="32" height="128" viewBox="0 0 32 128" fill="none" xmlns="http://www.w3.org/2000/svg">
<path d="M28.0913 5.13794H3.90873C1.75355 5.13794 0 6.89149 0 9.04667V22.9535C0 25.1087 1.75355 26.8623 3.90873 26.8623H28.0913C30.2464 26.8623 32 25.1087 32 22.9535V9.0471C32.0004 6.89149 30.2469 5.13794 28.0913 5.13794ZM26.1813 7.68794L16 14.2474L5.81868 7.68794H26.1813ZM28.0913 24.3127H3.90873C3.15945 24.3127 2.55 23.7028 2.55 22.954V9.11935L15.2133 17.2624C15.2303 17.273 15.2486 17.2802 15.266 17.29C15.2843 17.3002 15.303 17.31 15.3217 17.3193C15.4199 17.3699 15.521 17.4107 15.6243 17.4375C15.6349 17.4404 15.6455 17.4417 15.6562 17.4443C15.7696 17.471 15.8844 17.4876 15.9991 17.4876H16C16.0008 17.4876 16.0017 17.4876 16.0017 17.4876C16.1164 17.4876 16.2312 17.4715 16.3447 17.4443C16.3553 17.4417 16.3659 17.4404 16.3765 17.4375C16.4798 17.4107 16.5805 17.3699 16.6791 17.3193C16.6978 17.31 16.7165 17.3002 16.7348 17.29C16.7522 17.2802 16.7705 17.273 16.7875 17.2624L29.4508 9.11935V22.9535C29.4504 23.7028 28.8405 24.3127 28.0913 24.3127Z" fill="black"/>
<g clip-path="url(#clip0_93_36)">
<path d="M31.2746 50.924C30.7719 51.1469 30.2551 51.3351 29.727 51.4879C30.3522 50.7808 30.8289 49.9488 31.1199 49.0384C31.1851 48.8343 31.1175 48.6109 30.9498 48.4774C30.7822 48.3438 30.5495 48.3278 30.365 48.4372C29.2434 49.1024 28.0334 49.5804 26.7647 49.8599C25.4866 48.6111 23.7508 47.9004 21.9563 47.9004C18.1684 47.9004 15.0867 50.982 15.0867 54.7698C15.0867 55.0681 15.1056 55.3648 15.143 55.6573C10.4426 55.2446 6.07276 52.9343 3.07198 49.2534C2.96504 49.1222 2.80029 49.0515 2.63162 49.065C2.46285 49.0782 2.31121 49.1734 2.22595 49.3196C1.61733 50.364 1.29557 51.5584 1.29557 52.7737C1.29557 54.4289 1.88654 55.9994 2.93046 57.2265C2.61304 57.1166 2.30502 56.9792 2.01103 56.816C1.8532 56.7282 1.66058 56.7295 1.50378 56.8194C1.34687 56.9093 1.2485 57.0747 1.24437 57.2554C1.24365 57.2859 1.24365 57.3163 1.24365 57.3472C1.24365 59.8179 2.5734 62.0423 4.60644 63.2547C4.43178 63.2373 4.25722 63.212 4.0838 63.1788C3.90502 63.1447 3.72117 63.2073 3.6006 63.3437C3.47983 63.48 3.43988 63.6699 3.49552 63.8433C4.24804 66.1927 6.18548 67.9208 8.52767 68.4477C6.58507 69.6644 4.36355 70.3017 2.03147 70.3017C1.54486 70.3017 1.05547 70.2731 0.5765 70.2165C0.338565 70.1882 0.111055 70.3287 0.0300229 70.5549C-0.0510093 70.7813 0.0348745 71.0337 0.2373 71.1635C3.23322 73.0844 6.69738 74.0997 10.2551 74.0997C17.249 74.0997 21.6242 70.8017 24.063 68.0349C27.104 64.585 28.8481 60.0186 28.8481 55.5067C28.8481 55.3182 28.8452 55.1278 28.8394 54.9381C30.0392 54.0342 31.0722 52.9402 31.9128 51.6828C32.0404 51.4918 32.0266 51.2394 31.8787 51.0636C31.731 50.8877 31.4848 50.8309 31.2746 50.924Z" fill="black" fill-opacity="0.5"/>
</g>
<g clip-path="url(#clip1_93_36)">
<path d="M16 98.884C20.272 98.884 20.7787 98.9 22.4667 98.9773C26.8027 99.1747 28.828 101.232 29.0253 105.536C29.1027 107.223 29.1173 107.729 29.1173 112.001C29.1173 116.275 29.1013 116.78 29.0253 118.467C28.8267 122.767 26.8067 124.828 22.4667 125.025C20.7787 125.103 20.2747 125.119 16 125.119C11.728 125.119 11.2213 125.103 9.53467 125.025C5.188 124.827 3.17333 122.76 2.976 118.465C2.89867 116.779 2.88267 116.273 2.88267 112C2.88267 107.728 2.9 107.223 2.976 105.535C3.17467 101.232 5.19467 99.1733 9.53467 98.976C11.2227 98.9 11.728 98.884 16 98.884ZM16 96C11.6547 96 11.1107 96.0187 9.404 96.096C3.59333 96.3627 0.364 99.5867 0.0973333 105.403C0.0186667 107.111 0 107.655 0 112C0 116.345 0.0186667 116.891 0.096 118.597C0.362667 124.408 3.58667 127.637 9.40267 127.904C11.1107 127.981 11.6547 128 16 128C20.3453 128 20.8907 127.981 22.5973 127.904C28.4027 127.637 31.64 124.413 31.9027 118.597C31.9813 116.891 32 116.345 32 112C32 107.655 31.9813 107.111 31.904 105.404C31.6427 99.5987 28.4147 96.364 22.5987 96.0973C20.8907 96.0187 20.3453 96 16 96ZM16 103.784C11.4627 103.784 7.784 107.463 7.784 112C7.784 116.537 11.4627 120.217 16 120.217C20.5373 120.217 24.216 116.539 24.216 112C24.216 107.463 20.5373 103.784 16 103.784ZM16 117.333C13.0547 117.333 10.6667 114.947 10.6667 112C10.6667 109.055 13.0547 106.667 16 106.667C18.9453 106.667 21.3333 109.055 21.3333 112C21.3333 114.947 18.9453 117.333 16 117.333ZM24.5413 101.54C23.48 101.54 22.62 102.4 22.62 103.46C22.62 104.52 23.48 105.38 24.5413 105.38C25.6013 105.38 26.46 104.52 26.46 103.46C26.46 102.4 25.6013 101.54 24.5413 101.54Z" fill="#7F7B72"/>
</g>
<defs>
<clipPath id="clip0_93_36">
<rect width="32" height="32" fill="white" transform="translate(0 48)"/>
</clipPath>
<clipPath id="clip1_93_36">
<rect width="32" height="32" fill="white" transform="translate(0 96)"/>
</clipPath>
</defs>
</svg>
