<svg width="45" height="48" viewBox="0 0 45 48" fill="none" xmlns="http://www.w3.org/2000/svg">
<path d="M22.0453 1.18421C21.9577 1.28021 21.8702 1.82421 21.8702 2.36821C21.8702 3.23221 21.6951 3.42421 20.6736 3.90421C19.7689 4.32021 19.3894 4.73621 19.01 5.72821L18.5139 7.04021H14.8074H11.0717V5.92021C11.0717 5.15221 10.9257 4.80021 10.6339 4.80021C10.342 4.80021 10.1961 5.15221 10.1961 5.92021V7.04021H7.13167C4.59256 7.04021 4.06722 7.13621 4.06722 7.52021C4.06722 7.90421 4.59256 8.00021 7.01493 8.00021H9.93345L8.70767 10.5602C8.03641 11.9362 7.36515 13.0242 7.24841 12.9282C7.13167 12.8642 6.95656 12.3522 6.83982 11.8402C6.57715 10.5922 5.93508 10.6242 5.70159 11.8722C5.43893 13.3762 4.505 14.5602 2.98737 15.3602C1.49893 16.1282 1.49893 16.1602 3.45433 17.3442C3.95048 17.6642 4.44663 18.0802 4.505 18.3362C4.59256 18.5602 3.95048 20.1922 3.04574 21.9842C1.29463 25.4722 1.14871 26.3362 1.99508 28.3522C3.30841 31.5522 7.13167 33.5042 11.4803 33.2162C14.4863 32.9922 16.5001 32.0962 18.0761 30.2082C20.7028 27.0722 20.6444 26.6882 15.7413 16.7682C13.494 12.1922 11.6554 8.38421 11.6554 8.22421C11.6554 8.09621 13.2022 8.00021 15.0992 8.00021L18.5139 8.03221L19.0392 9.28021C19.4186 10.1442 19.9148 10.6882 20.7028 11.1042L21.841 11.6802L21.8702 24.2242C21.8702 36.0642 21.841 36.8002 21.3449 36.8002C21.053 36.8002 20.586 37.3122 20.265 37.9522C19.1268 40.2882 15.3911 42.8802 13.173 42.8802C11.8597 42.8802 11.0717 43.6162 11.0717 44.8962C11.0717 45.7282 11.0425 45.7282 8.67848 45.8242C7.10248 45.8882 6.25611 46.0482 6.16856 46.3042C6.081 46.6242 9.4373 46.7202 22.308 46.7202C35.1786 46.7202 38.5349 46.6242 38.4474 46.3042C38.3598 46.0482 37.5134 45.8882 35.9374 45.8242L33.5443 45.7282V44.8322C33.5443 43.6482 32.7271 42.8802 31.4721 42.8802C30.3339 42.8802 27.8823 41.6962 26.3647 40.4482C25.8102 39.9682 25.0222 38.9442 24.6136 38.1762C24.1466 37.3122 23.6505 36.8002 23.3003 36.8002C22.7749 36.8002 22.7457 36.3842 22.7457 24.1602V11.5202L23.4754 11.3282C24.2926 11.1042 25.9561 9.18421 25.9561 8.48021C25.9561 8.09621 26.5982 8.00021 29.6334 8.00021H33.3108L32.2893 9.98421C27.0652 20.3842 24.7887 25.2802 24.7887 26.2082C24.7887 28.4162 26.8025 31.1362 29.4 32.3842C31.0927 33.2162 34.7117 33.5042 36.7838 32.9602C40.432 32.0322 43.1754 29.0562 43.1754 26.0162C43.1754 25.4722 41.4826 21.6962 38.9727 16.6402L34.7992 8.16021L37.5134 8.00021C41.2491 7.77621 41.1908 7.23221 37.4259 7.10421L34.4198 7.00821V5.92021C34.4198 5.15221 34.2739 4.80021 33.982 4.80021C33.6902 4.80021 33.5443 5.15221 33.5443 5.92021V7.04021H29.8377L26.102 7.00821L25.5767 5.76021C25.1973 4.89621 24.7012 4.35221 23.9132 3.93621C22.9209 3.45621 22.7457 3.20021 22.7457 2.33621C22.7457 1.34421 22.4247 0.800213 22.0453 1.18421ZM24.3217 5.47221C25.3724 6.84821 25.3432 8.38421 24.2342 9.63221C23.096 10.8482 21.6951 10.8802 20.4401 9.72821C19.2143 8.60821 19.156 6.59221 20.2942 5.31221C21.4616 4.06421 23.3003 4.12821 24.3217 5.47221ZM14.8366 16.8642C16.9379 21.1202 18.6598 24.7042 18.6598 24.8002C18.6598 24.8962 15.0409 24.9602 10.6047 24.9602H2.57878L3.83374 22.4002C4.53419 20.9922 5.17626 19.8402 5.26382 19.8402C5.35137 19.8402 5.58485 20.1922 5.75996 20.6402C6.19774 21.6962 6.57715 21.6642 6.78145 20.5122C7.01493 19.2322 8.56174 17.4082 9.78752 16.8962C11.0133 16.4162 11.0717 15.8082 9.93345 15.5202C9.46648 15.4242 8.85359 15.0402 8.56174 14.6882C8.03641 14.0482 8.03641 13.9522 9.29137 11.3282C10.021 9.85621 10.6923 8.73621 10.809 8.86421C10.9257 9.02421 12.7352 12.6082 14.8366 16.8642ZM38.1847 16.9282C40.286 21.2162 41.9788 24.8002 41.9204 24.8642C41.862 24.9282 38.2431 24.9282 33.8945 24.8962L25.9561 24.8002L29.9545 16.7042C32.1434 12.2562 34.0112 8.73621 34.128 8.86421C34.2447 8.99221 36.0542 12.6402 38.1847 16.9282ZM7.91967 15.3602L8.70767 16.1602L7.45271 17.6002L6.19774 19.0402L5.00115 17.5682L3.77537 16.0642L4.76767 15.2322C5.32219 14.7842 5.87671 14.0802 5.99345 13.6962L6.19774 12.9602L6.66471 13.7602C6.92737 14.2082 7.48189 14.9122 7.91967 15.3602ZM18.9517 26.5602C18.9517 27.6162 18.1929 28.9602 16.9379 30.1442C13.0271 33.7922 5.00115 32.6722 2.89982 28.1922C1.79078 25.7922 1.353 25.9202 10.6339 25.9202C18.8349 25.9202 18.9517 25.9202 18.9517 26.5602ZM42.1831 26.9442C41.8912 28.5442 40.5487 30.1442 38.6517 31.2002C37.0465 32.0642 36.6379 32.1602 33.982 32.1602C31.3262 32.1602 30.9176 32.0642 29.3124 31.2002C27.4154 30.1442 26.0729 28.5442 25.781 26.9442L25.6059 25.9202H33.982H42.3874L42.1831 26.9442ZM24.1174 39.1682C24.6136 39.9682 25.7226 41.1202 26.5982 41.7282L28.145 42.8802H22.308H16.4709L17.4924 42.2082C18.8641 41.3122 20.3526 39.7122 20.8779 38.6242C21.1989 37.9522 21.52 37.7602 22.2496 37.7602C23.0668 37.7602 23.3586 37.9842 24.1174 39.1682ZM32.6103 44.8642L32.6979 45.7602H22.1912C14.9241 45.7602 11.6554 45.6642 11.6554 45.4082C11.6554 45.2162 11.8013 44.8002 11.9472 44.4482C12.2391 43.8402 12.6185 43.8402 22.3955 43.9042L32.5228 44.0002L32.6103 44.8642Z" fill="black"/>
<path d="M20.9655 6.11212C20.1775 6.97612 20.3526 8.25612 21.374 9.08812C22.1329 9.69612 22.2496 9.69612 22.9792 9.24812C23.417 8.99212 23.884 8.38412 24.0299 7.90412C24.2634 7.20012 24.205 6.91212 23.6213 6.24012C22.7749 5.28012 21.7826 5.21612 20.9655 6.11212ZM23.1543 7.10412C23.3878 7.55212 23.3586 7.77612 22.9792 8.19212C22.1037 9.15212 20.7903 7.90412 21.5783 6.84812C22.0453 6.27212 22.7166 6.36812 23.1543 7.10412Z" fill="black"/>
<path d="M35.8791 35.0722C35.704 35.5202 35.5872 36.0002 35.5872 36.1602C35.5872 36.8002 34.0404 38.3682 32.9606 38.8482C32.3185 39.1362 31.7932 39.4562 31.7932 39.5842C31.7932 39.7442 32.406 40.1922 33.1649 40.6402C34.2447 41.2802 34.7117 41.7922 35.2954 43.1042C36.1417 44.9922 36.6379 45.2162 36.9006 43.8402C37.1632 42.4962 38.2431 41.1842 39.6732 40.4802C40.9865 39.8082 41.0449 39.3602 39.8483 39.0082C38.6809 38.6562 37.7761 37.6322 37.0757 35.8082C36.7254 34.9442 36.3752 34.2402 36.2877 34.2402C36.2293 34.2402 36.025 34.6242 35.8791 35.0722ZM37.4843 41.0562L36.2877 42.4322L35.0911 41.0882L33.8945 39.7122L35.1203 38.3362L36.3169 36.9602L37.5134 38.3042L38.71 39.6802L37.4843 41.0562Z" fill="black"/>
</svg>
