<svg width="48" height="48" viewBox="0 0 48 48" fill="none" xmlns="http://www.w3.org/2000/svg">
<path d="M32.2122 30.8135C32.2017 30.8101 30.1081 30.1677 30.1081 30.1677C29.4227 29.9567 28.6916 30.3162 28.4388 30.9878L25.9877 37.5027C25.9877 37.5027 25.3054 34.4724 25.2933 34.4342L26.615 32.1448C26.8575 31.7246 26.8575 31.2071 26.615 30.7869C26.3724 30.3667 25.9242 30.1079 25.439 30.1079H22.5613C22.0761 30.1079 21.628 30.3667 21.3854 30.7869C21.1428 31.2071 21.1428 31.7246 21.3854 32.1448L22.7071 34.4342C22.695 34.4724 22.0126 37.5027 22.0126 37.5027L19.5616 30.9878C19.3088 30.3164 18.5783 29.957 17.8922 30.1677C17.8922 30.1677 15.7986 30.8101 15.7881 30.8135C12.8601 31.7895 10.8929 34.5191 10.8929 37.6055V46.6421C10.8929 47.392 11.5009 48 12.2508 48H35.7498C36.4997 48 37.1077 47.392 37.1077 46.6421V37.6055C37.1074 34.5191 35.1401 31.7895 32.2122 30.8135ZM13.6084 45.2843V37.6056C13.6084 35.6952 14.823 34.005 16.6323 33.3949L17.4686 33.1382L22.0385 45.2843H13.6084ZM34.3916 45.2843H25.9617L30.5316 33.1382L31.3679 33.3949C33.1772 34.0048 34.3918 35.695 34.3918 37.6056L34.3916 45.2843Z" fill="black"/>
<path d="M24 27.928C27.988 27.928 31.2325 24.6836 31.2325 20.6954C31.2325 16.7073 27.988 13.4629 24 13.4629C20.012 13.4629 16.7675 16.7073 16.7675 20.6954C16.7675 24.6836 20.012 27.928 24 27.928ZM24 16.1785C26.4905 16.1785 28.5167 18.2047 28.5167 20.6952C28.5167 23.1859 26.4905 25.2121 24 25.2121C21.5095 25.2121 19.4833 23.1859 19.4833 20.6952C19.4833 18.2049 21.5095 16.1785 24 16.1785Z" fill="black"/>
<path d="M46.5269 19.7204L42.8553 16.0488C42.3249 15.5187 41.4652 15.5187 40.9348 16.0488C40.4045 16.5791 40.4045 17.439 40.9348 17.9693L42.3032 19.3377H36.0529C35.4258 13.7328 30.9628 9.27354 25.3581 8.64598V4.63628L26.7116 5.98982C26.9768 6.25487 27.3243 6.38756 27.6718 6.38756C28.0192 6.38756 28.3667 6.25487 28.6319 5.98982C29.1622 5.45956 29.1622 4.5996 28.6319 4.06933L24.9602 0.397576C24.4297 -0.132525 23.5701 -0.132525 23.0397 0.397576L19.3681 4.06917C18.8378 4.59943 18.8378 5.45939 19.3681 5.98966C19.8985 6.51976 20.7581 6.51976 21.2886 5.98966L22.6421 4.63612V8.64582C17.0374 9.27337 12.5742 13.7327 11.9473 19.3375H5.69681L7.06522 17.9691C7.59548 17.4389 7.59548 16.5789 7.06522 16.0486C6.53479 15.5185 5.67516 15.5185 5.14473 16.0486L1.47314 19.7204C0.942874 20.2507 0.942874 21.1106 1.47314 21.6409L5.14473 25.3125C5.40994 25.5775 5.75742 25.7102 6.10489 25.7102C6.45253 25.7102 6.79984 25.5775 7.06506 25.3125C7.59532 24.7822 7.59532 23.9223 7.06506 23.392L5.72623 22.0533H13.2294C13.9793 22.0533 14.5873 21.4453 14.5873 20.6954C14.5873 15.5053 18.8097 11.2829 23.9998 11.2829C29.19 11.2829 33.4124 15.5053 33.4124 20.6954C33.4124 21.4453 34.0204 22.0533 34.7703 22.0533H42.2735L40.9346 23.392C40.4044 23.9223 40.4044 24.7822 40.9346 25.3125C41.1998 25.5775 41.5473 25.7102 41.8948 25.7102C42.2423 25.7102 42.5897 25.5775 42.855 25.3125L46.5266 21.6409C47.0571 21.1105 47.0571 20.2507 46.5269 19.7204Z" fill="black"/>
</svg>
