<svg width="45" height="48" viewBox="0 0 45 48" fill="none" xmlns="http://www.w3.org/2000/svg">
<g clip-path="url(#clip0_113_2622)">
<path d="M2.13603 10.7359V13.8072C2.13603 14.2302 2.44881 14.5732 2.83461 14.5732H3.06747V18.9136C3.06747 19.3366 3.38025 19.6796 3.76606 19.6796H40.558C40.9438 19.6796 41.2566 19.3366 41.2566 18.9136V14.5732H41.4895C41.8753 14.5732 42.188 14.2302 42.188 13.8072V10.7359C42.188 10.7326 42.188 7.67958 42.188 7.67958C42.188 7.25656 41.8753 6.91362 41.4895 6.91362C41.1037 6.91362 40.7909 7.25656 40.7909 7.67958V9.81578L22.8606 6.02603V3.59457C22.8606 3.17156 22.5478 2.82861 22.162 2.82861C21.7762 2.82861 21.4635 3.17156 21.4635 3.59457V6.02603L3.5332 9.81578V7.67968C3.5332 7.25666 3.22042 6.91372 2.83461 6.91372C2.44881 6.91372 2.13603 7.25666 2.13603 7.67968C2.13603 7.67968 2.13603 10.7326 2.13603 10.7359ZM39.8594 18.1477H4.46464V14.5732H39.8594V18.1477ZM22.162 7.43845L40.7909 11.3759V13.0414H40.5589C40.5572 13.0414 3.76699 13.0414 3.76699 13.0414C3.76522 13.0414 3.5332 13.0414 3.5332 13.0414V11.3759L22.162 7.43845Z" fill="black"/>
<path d="M43.3523 40.5757H42.188V38.2779C42.188 37.8549 41.8753 37.5119 41.4895 37.5119H39.3937V22.7433H39.6266C40.0124 22.7433 40.3252 22.4004 40.3252 21.9774C40.3252 21.5544 40.0124 21.2114 39.6266 21.2114H34.9694C34.5836 21.2114 34.2708 21.5544 34.2708 21.9774C34.2708 22.4004 34.5836 22.7433 34.9694 22.7433H35.2022V37.5119H31.8257V22.7433H32.0586C32.4444 22.7433 32.7572 22.4004 32.7572 21.9774C32.7572 21.5544 32.4444 21.2114 32.0586 21.2114H27.4014C27.0156 21.2114 26.7028 21.5544 26.7028 21.9774C26.7028 22.4004 27.0156 22.7433 27.4014 22.7433H27.6343V37.5119H24.2578V22.7433H24.4906C24.8764 22.7433 25.1892 22.4004 25.1892 21.9774C25.1892 21.5544 24.8764 21.2114 24.4906 21.2114H19.8334C19.4476 21.2114 19.1348 21.5544 19.1348 21.9774C19.1348 22.4004 19.4476 22.7433 19.8334 22.7433H20.0663V37.5119H16.6898V22.7433H16.9227C17.3085 22.7433 17.6213 22.4004 17.6213 21.9774C17.6213 21.5544 17.3085 21.2114 16.9227 21.2114H12.2655C11.8797 21.2114 11.5669 21.5544 11.5669 21.9774C11.5669 22.4004 11.8797 22.7433 12.2655 22.7433H12.4983V37.5119H9.12185V22.7433H9.35471C9.74051 22.7433 10.0533 22.4004 10.0533 21.9774C10.0533 21.5544 9.74051 21.2114 9.35471 21.2114H4.6975C4.31169 21.2114 3.99892 21.5544 3.99892 21.9774C3.99892 22.4004 4.31169 22.7433 4.6975 22.7433H4.93036V37.5119H2.83461C2.44881 37.5119 2.13603 37.8549 2.13603 38.2779V40.5757H0.971729C0.585926 40.5757 0.273148 40.9187 0.273148 41.3417V44.4055C0.273148 44.8285 0.585926 45.1715 0.971729 45.1715H43.3523C43.7381 45.1715 44.0509 44.8285 44.0509 44.4055V41.3417C44.0509 40.9187 43.7381 40.5757 43.3523 40.5757ZM36.5994 22.7433H37.9966V37.5119H36.5994V22.7433ZM29.0314 22.7433H30.4286V37.5119H29.0314V22.7433ZM21.4635 22.7433H22.8606V37.5119H21.4635V22.7433ZM13.8955 22.7433H15.2927V37.5119H13.8955V22.7433ZM6.32752 22.7433H7.72468V37.5119H6.32752V22.7433ZM42.6538 43.6396H1.67031V42.1077H8.42327C8.80907 42.1077 9.12185 41.7647 9.12185 41.3417C9.12185 40.9187 8.80907 40.5757 8.42327 40.5757H3.53319V39.0438H40.7909V40.5757H11.2176C10.8318 40.5757 10.519 40.9187 10.519 41.3417C10.519 41.7647 10.8318 42.1077 11.2176 42.1077H42.6538V43.6396Z" fill="black"/>
</g>
<defs>
<clipPath id="clip0_113_2622">
<rect width="43.7778" height="48" fill="white" transform="translate(0.273148)"/>
</clipPath>
</defs>
</svg>
