<svg width="45" height="48" viewBox="0 0 45 48" fill="none" xmlns="http://www.w3.org/2000/svg">
<g clip-path="url(#clip0_113_2777)">
<path fill-rule="evenodd" clip-rule="evenodd" d="M18.0086 7.14783C12.5733 9.66133 7.14125 16.3463 7.11799 20.5508C7.11389 21.2303 6.00667 24.7343 0.920701 40.1598L0.290939 42.0703L12.9368 41.9098C27.1149 41.7303 27.8158 41.5763 31.6363 37.7913C40.2227 29.2863 33.1936 12.4523 22.1411 15.0513C13.0161 17.1973 12.499 32.2668 21.5122 33.3803C27.2594 34.0908 29.8081 27.6693 25.4828 23.3773C24.6432 22.5443 24.5539 22.5673 23.3746 23.9168C22.1438 25.3253 22.1438 25.3268 23.0645 26.2403C25.1266 28.2863 23.593 30.6933 21.0402 29.4178C18.1646 27.9813 17.632 23.3668 20.0375 20.7293C26.1417 14.0363 35.6109 25.0513 30.6672 33.0948C23.0522 45.4843 5.53424 32.4548 11.3809 18.7498C15.3678 9.40383 25.7746 7.03533 34.2502 13.5448L36.8504 15.5423L40.2227 12.7593C43.9401 9.69133 43.9766 9.62033 42.7116 7.93033C41.7549 6.65183 41.9181 6.60233 38.6357 9.16733L36.8217 10.5848L32.8712 8.43833C27.725 5.64233 22.2856 5.16983 18.0086 7.14783ZM7.56945 31.1403C7.56945 31.3258 7.06555 32.9448 6.44992 34.7383L5.3304 37.9998H12.2888L11.3444 36.8748C10.8254 36.2563 9.76336 34.6368 8.98493 33.2768C8.20651 31.9168 7.56945 30.9553 7.56945 31.1403Z" fill="black"/>
</g>
<defs>
<clipPath id="clip0_113_2777">
<rect width="43.7778" height="48" fill="white" transform="translate(0.273148)"/>
</clipPath>
</defs>
</svg>
