<svg width="45" height="48" viewBox="0 0 45 48" fill="none" xmlns="http://www.w3.org/2000/svg">
<g clip-path="url(#clip0_113_2634)">
<path d="M36.5054 38.9188L35.4808 37.8527C35.4292 37.9124 35.3727 37.9657 35.3205 38.0246L29.4466 16.9472C30.1888 15.8989 30.6349 14.5875 30.6349 13.1614C30.6349 9.74636 28.1008 6.96786 24.9862 6.96786V4.12498C25.1741 4.15669 25.3605 4.17847 25.5482 4.21635L25.8059 2.69347C25.5157 2.63461 25.2262 2.59673 24.936 2.55251C24.7002 1.10473 23.5493 0 22.1617 0C20.7741 0 19.6236 1.10489 19.3878 2.55267C19.0976 2.59754 18.808 2.63477 18.5179 2.69363L18.7756 4.21652C18.9634 4.17863 19.1498 4.15685 19.3375 4.12515V6.96802C16.2229 6.96802 13.6889 9.74652 13.6889 13.1615C13.6889 14.5875 14.1352 15.899 14.8766 16.9465L9.00249 38.0238C8.9503 37.9649 8.8938 37.9116 8.8422 37.8519L7.81759 38.9179C8.04847 39.1843 8.29416 39.4366 8.53779 39.6913L7.36431 43.903L7.33391 48L11.4724 44.5967L12.0295 42.5978C12.1798 42.697 12.3268 42.8061 12.4779 42.8989L13.1691 41.5487C12.9283 41.4001 12.6926 41.2313 12.4546 41.0687L15.0544 31.742H29.2687L31.8679 41.0694C31.6299 41.232 31.3949 41.4007 31.1533 41.5493L31.8446 42.8995C31.9964 42.8059 32.1426 42.6966 32.293 42.5984L32.8501 44.5974L36.9899 48V44.0137L35.7853 39.6922C36.0289 39.4374 36.2753 39.1851 36.5054 38.9188ZM24.9864 8.51627C27.3228 8.51627 29.2229 10.5996 29.2229 13.1614C29.2229 14.6524 28.5761 15.9787 27.577 16.8287C27.1633 15.2951 26.222 14.0107 24.9836 13.2233C24.9836 13.2023 24.9864 13.1823 24.9864 13.1614C24.9864 11.4907 24.377 9.97559 23.3927 8.85997C23.8856 8.64016 24.4229 8.51627 24.9864 8.51627ZM24.752 14.9135C25.5202 15.5669 26.078 16.5014 26.2955 17.5767C25.883 17.7245 25.4438 17.8066 24.9864 17.8066C24.4229 17.8066 23.8856 17.6827 23.3927 17.4629C24.0183 16.7537 24.4907 15.8836 24.752 14.9135ZM22.162 16.6142C21.5152 15.9771 21.0463 15.1286 20.8522 14.1654C21.2652 14.0177 21.7044 13.9356 22.162 13.9356C22.6196 13.9356 23.0588 14.0177 23.4717 14.1654C23.2775 15.1286 22.8088 15.9771 22.162 16.6142ZM22.162 12.3871C21.6867 12.3871 21.2278 12.4592 20.7865 12.5806C20.9164 11.445 21.4221 10.4378 22.162 9.70847C22.9019 10.437 23.4075 11.4442 23.5374 12.58C23.0961 12.4592 22.6372 12.3871 22.162 12.3871ZM20.9313 17.4629C20.4384 17.6827 19.901 17.8066 19.3375 17.8066C18.88 17.8066 18.4408 17.7245 18.0278 17.5767C18.2453 16.5014 18.8031 15.5669 19.5714 14.9135C19.8332 15.8834 20.3057 16.7537 20.9313 17.4629ZM19.3375 19.3548C20.367 19.3548 21.3301 19.0468 22.162 18.5172C22.9938 19.0468 23.9569 19.3548 24.9864 19.3548C25.4616 19.3548 25.9205 19.2828 26.3618 19.1614C26.0998 21.4492 24.3184 23.2259 22.162 23.2259C20.0055 23.2259 18.2241 21.449 17.9621 19.1614C18.4034 19.283 18.8623 19.3548 19.3375 19.3548ZM20.7498 3.09699C20.7498 2.24312 21.3831 1.54858 22.162 1.54858C22.9409 1.54858 23.5742 2.24296 23.5742 3.09699V7.17157C23.0728 7.31399 22.5991 7.52762 22.162 7.80564C21.7248 7.52697 21.2511 7.31399 20.7498 7.17157V3.09699ZM19.3375 8.51627C19.901 8.51627 20.4384 8.64016 20.9313 8.85997C19.947 9.97559 19.3375 11.4907 19.3375 13.1614C19.3375 13.1823 19.3404 13.2023 19.3404 13.2233C18.1019 14.0107 17.1607 15.2951 16.747 16.8287C15.7479 15.9785 15.1011 14.6524 15.1011 13.1614C15.1011 10.5996 17.0011 8.51627 19.3375 8.51627ZM10.2566 43.6607L8.74627 44.9032V44.2444L16.0155 18.1587C16.1765 18.288 16.3432 18.408 16.5161 18.518C16.5161 18.5397 16.5133 18.5598 16.5133 18.5808C16.5133 19.197 16.5987 19.7909 16.752 20.3529L10.2566 43.6607ZM15.4866 30.1936L17.6776 22.3317C18.7106 23.8128 20.3338 24.7743 22.162 24.7743C23.9901 24.7743 25.6133 23.8128 26.6464 22.3317L28.8373 30.1936H15.4866ZM35.5778 44.9032L34.0673 43.6614L27.5721 20.3536C27.7253 19.7907 27.8108 19.197 27.8108 18.5806C27.8108 18.5597 27.808 18.5397 27.808 18.5187C27.981 18.4088 28.1476 18.288 28.3086 18.1594L35.5778 44.2442V44.9032Z" fill="black"/>
<path d="M31.1597 4.69576C30.3244 4.22818 29.4502 3.82092 28.5627 3.4873L28.1059 4.9528C28.9299 5.2617 29.7413 5.63954 30.5172 6.0746L31.1597 4.69576Z" fill="black"/>
<path d="M39.2536 13.0987C38.7812 12.2115 38.2461 11.3513 37.6622 10.5439L36.5557 11.5054C37.0987 12.2564 37.5957 13.0547 38.0342 13.8783L39.2536 13.0987Z" fill="black"/>
<path d="M35.7549 8.26166C35.072 7.5533 34.3385 6.8929 33.5731 6.2998L32.7575 7.56403C33.4678 8.11517 34.1499 8.72843 34.7841 9.38655L35.7549 8.26166Z" fill="black"/>
<path d="M39.9936 19.1933L41.3648 18.8255C41.1417 17.8245 40.8494 16.8336 40.4971 15.8774L39.188 16.458C39.5155 17.3454 39.7867 18.2659 39.9936 19.1933Z" fill="black"/>
<path d="M41.8386 21.8765L40.4335 22.0259C40.4907 22.6793 40.5204 23.3428 40.5204 24.0001C40.5204 24.302 40.5148 24.6016 40.5028 24.9005L41.9135 24.9686C41.9262 24.6473 41.9326 24.3244 41.9326 24.0001C41.9325 23.2932 41.9015 22.5786 41.8386 21.8765Z" fill="black"/>
<path d="M39.5326 30.5327L40.8686 31.0344C41.1736 30.0606 41.4157 29.0532 41.5902 28.0422L40.202 27.7549C40.0401 28.6939 39.8149 29.6285 39.5326 30.5327Z" fill="black"/>
<path d="M37.1459 35.633L38.2981 36.528C38.8425 35.6865 39.3354 34.7969 39.7626 33.8833L38.5065 33.1758C38.1091 34.0251 37.6515 34.852 37.1459 35.633Z" fill="black"/>
<path d="M26.1528 43.6511L26.4592 45.1631C27.4005 44.9332 28.3311 44.6266 29.2264 44.2495L28.7202 42.8042C27.8898 43.1534 27.0263 43.4383 26.1528 43.6511Z" fill="black"/>
<path d="M22.1612 44.1293C21.7121 44.1178 21.2644 44.1123 20.8168 44.0767L20.7137 45.6204C21.1867 45.6591 21.6648 45.6776 22.1344 45.6776C22.6457 45.6877 23.1194 45.6597 23.6009 45.621L23.4992 44.0773C23.0601 44.1123 22.6096 44.1293 22.1612 44.1293Z" fill="black"/>
<path d="M15.0898 44.2468C15.9894 44.6254 16.92 44.9327 17.8562 45.1603L18.162 43.6483C17.2935 43.4378 16.4299 43.1521 15.596 42.8013L15.0898 44.2468Z" fill="black"/>
<path d="M16.24 4.94499L15.7846 3.47949C14.8957 3.81083 14.0201 4.21647 13.1834 4.68567L13.8259 6.06452C14.6025 5.62945 15.4145 5.25324 16.24 4.94499Z" fill="black"/>
<path d="M7.78096 11.49L6.67525 10.5269C6.08984 11.335 5.55322 12.1944 5.08154 13.0802L6.30099 13.8622C6.73886 13.0384 7.23737 12.2409 7.78096 11.49Z" fill="black"/>
<path d="M4.55203 33.8633C4.97922 34.7785 5.47136 35.668 6.01436 36.5103L7.16738 35.6153C6.66249 34.8341 6.20564 34.0074 5.80959 33.1572L4.55203 33.8633Z" fill="black"/>
<path d="M4.11848 27.7334L2.73029 28.0191C2.90392 29.0324 3.14547 30.0389 3.44914 31.0128L4.78573 30.5127C4.50341 29.6092 4.27876 28.6741 4.11848 27.7334Z" fill="black"/>
<path d="M3.80367 23.9992C3.80367 23.3343 3.83333 22.6614 3.89264 22.0026L2.48755 21.8501C2.42334 22.5607 2.39146 23.2839 2.39146 24.0001C2.39146 24.316 2.39784 24.6302 2.40985 24.9446L3.82058 24.8765C3.80931 24.5853 3.80367 24.2935 3.80367 23.9992Z" fill="black"/>
<path d="M11.5825 7.55084L10.7677 6.28662C10.0023 6.8789 9.26731 7.53768 8.58374 8.24539L9.55319 9.3719C10.1887 8.71443 10.8715 8.10199 11.5825 7.55084Z" fill="black"/>
<path d="M5.14307 16.4377L3.83466 15.8555C3.48235 16.8077 3.18935 17.7986 2.96411 18.7998L4.33466 19.1706C4.54432 18.2423 4.81612 17.3226 5.14307 16.4377Z" fill="black"/>
</g>
<defs>
<clipPath id="clip0_113_2634">
<rect width="43.7778" height="48" fill="white" transform="translate(0.273148)"/>
</clipPath>
</defs>
</svg>
