<svg width="48" height="48" viewBox="0 0 48 48" fill="none" xmlns="http://www.w3.org/2000/svg">
<g clip-path="url(#clip0_113_2629)">
<path d="M47 20H41.289C40.89 18.419 40.381 16.666 39.734 15.336L43.798 11.271C43.9855 11.0835 44.0908 10.8292 44.0908 10.564C44.0908 10.2988 43.9855 10.0445 43.798 9.857L38.14 4.201C38.0472 4.10805 37.937 4.03432 37.8157 3.98401C37.6944 3.9337 37.5643 3.9078 37.433 3.9078C37.3017 3.9078 37.1716 3.9337 37.0503 3.98401C36.929 4.03432 36.8188 4.10805 36.726 4.201L32.661 8.266C31.331 7.618 29.578 7.108 28 6.71V1C28 0.734783 27.8946 0.48043 27.7071 0.292893C27.5196 0.105357 27.2652 0 27 0L21 0C20.7348 0 20.4804 0.105357 20.2929 0.292893C20.1054 0.48043 20 0.734783 20 1V6.71C18.42 7.109 16.666 7.619 15.337 8.267L11.271 4.202C11.1782 4.10905 11.068 4.03532 10.9467 3.98501C10.8254 3.9347 10.6953 3.9088 10.564 3.9088C10.4327 3.9088 10.3026 3.9347 10.1813 3.98501C10.06 4.03532 9.94979 4.10905 9.857 4.202L4.2 9.858C4.10705 9.95079 4.03332 10.061 3.98301 10.1823C3.93269 10.3036 3.9068 10.4337 3.9068 10.565C3.9068 10.6963 3.93269 10.8264 3.98301 10.9477C4.03332 11.069 4.10705 11.1792 4.2 11.272L8.266 15.338C7.62 16.664 7.109 18.419 6.708 20H1C0.734783 20 0.48043 20.1054 0.292893 20.2929C0.105357 20.4804 0 20.7348 0 21L0 27C0 27.2652 0.105357 27.5196 0.292893 27.7071C0.48043 27.8946 0.734783 28 1 28H6.708C7.109 29.582 7.62 31.336 8.266 32.662L4.2 36.729C4.10681 36.8217 4.03287 36.9318 3.9824 37.0531C3.93194 37.1745 3.90597 37.3046 3.90597 37.436C3.90597 37.5674 3.93194 37.6975 3.9824 37.8189C4.03287 37.9402 4.10681 38.0503 4.2 38.143L9.858 43.799C10.234 44.174 10.898 44.174 11.272 43.799L15.336 39.733C16.663 40.379 18.418 40.89 20 41.291V47C20 47.2652 20.1054 47.5196 20.2929 47.7071C20.4804 47.8946 20.7348 48 21 48H27C27.2652 48 27.5196 47.8946 27.7071 47.7071C27.8946 47.5196 28 47.2652 28 47V41.291C29.581 40.89 31.335 40.38 32.661 39.734L36.728 43.799C36.9155 43.9865 37.1698 44.0918 37.435 44.0918C37.7002 44.0918 37.9545 43.9865 38.142 43.799L43.798 38.143C43.8909 38.0502 43.9647 37.94 44.015 37.8187C44.0653 37.6974 44.0912 37.5673 44.0912 37.436C44.0912 37.3047 44.0653 37.1746 44.015 37.0533C43.9647 36.932 43.8909 36.8218 43.798 36.729L39.734 32.662C40.379 31.336 40.89 29.582 41.291 28H47C47.2652 28 47.5196 27.8946 47.7071 27.7071C47.8946 27.5196 48 27.2652 48 27V21C48 20.7348 47.8946 20.4804 47.7071 20.2929C47.5196 20.1054 47.2652 20 47 20ZM46 26H40.508C40.284 25.9998 40.0664 26.0749 39.8903 26.2133C39.7142 26.3517 39.5897 26.5453 39.537 26.763C39.266 27.879 38.548 30.843 37.647 32.319C37.407 32.714 37.468 33.221 37.794 33.548L41.679 37.435L37.437 41.677L33.549 37.792C33.3903 37.6332 33.1827 37.5325 32.9598 37.506C32.7369 37.4795 32.5115 37.5289 32.32 37.646C30.843 38.548 27.88 39.265 26.765 39.536C26.5469 39.5887 26.3529 39.7132 26.2142 39.8895C26.0754 40.0658 26 40.2837 26 40.508V46H22V40.508C22.0001 40.2838 21.9248 40.0661 21.7862 39.8898C21.6477 39.7135 21.4539 39.5889 21.236 39.536C20.119 39.266 17.156 38.548 15.678 37.645C15.4865 37.5278 15.2611 37.4785 15.0382 37.505C14.8153 37.5315 14.6077 37.6322 14.449 37.791L10.564 41.678L6.32 37.436L10.208 33.55C10.535 33.223 10.594 32.715 10.354 32.321C9.451 30.845 8.734 27.881 8.463 26.765C8.41028 26.5469 8.28576 26.3529 8.10947 26.2142C7.93318 26.0754 7.71535 26 7.491 26H2V22H7.491C7.71519 22.0003 7.9329 21.9249 8.10893 21.7861C8.28496 21.6472 8.40901 21.4531 8.461 21.235C8.732 20.119 9.45 17.155 10.352 15.679C10.4692 15.4875 10.5185 15.2621 10.492 15.0392C10.4655 14.8163 10.3648 14.6087 10.206 14.45L6.32 10.563L10.563 6.321L14.45 10.206C14.778 10.533 15.286 10.593 15.679 10.353C17.162 9.447 20.121 8.735 21.234 8.466C21.4523 8.41363 21.6467 8.28924 21.7856 8.1129C21.9246 7.93655 22.0001 7.71853 22 7.494V2H26V7.494C26 7.956 26.316 8.358 26.765 8.467C28.511 8.888 30.987 9.541 32.32 10.354C32.5115 10.4708 32.7367 10.5198 32.9594 10.4931C33.1822 10.4664 33.3895 10.3657 33.548 10.207L37.434 6.322L41.678 10.564L37.793 14.449C37.6343 14.6075 37.5336 14.8148 37.5069 15.0375C37.4802 15.2603 37.5292 15.4855 37.646 15.677C38.553 17.162 39.265 20.12 39.533 21.234C39.642 21.684 40.044 22 40.506 22H46V26Z" fill="#231F20"/>
<path d="M24 14C18.486 14 14 18.486 14 24C14 29.514 18.486 34 24 34C29.514 34 34 29.514 34 24C34 18.486 29.514 14 24 14ZM24 32C19.589 32 16 28.411 16 24C16 19.589 19.589 16 24 16C28.411 16 32 19.589 32 24C32 28.411 28.411 32 24 32Z" fill="#231F20"/>
</g>
<defs>
<clipPath id="clip0_113_2629">
<rect width="48" height="48" fill="white"/>
</clipPath>
</defs>
</svg>
