<svg width="45" height="48" viewBox="0 0 45 48" fill="none" xmlns="http://www.w3.org/2000/svg">
<g clip-path="url(#clip0_113_2617)">
<path d="M22.7777 0.290394C22.1706 0.618519 21.8371 1.01227 21.3155 2.0154C20.0672 4.40602 19.6055 8.41852 20.0757 12.8154C20.1441 13.4435 20.2468 14.2404 20.3152 14.5873L20.4349 15.2154L19.0925 16.8654C16.6129 19.9216 16.1511 20.5685 15.4415 21.9935C14.4325 24.0185 13.9537 26.5685 14.2102 28.556C14.4924 30.7873 15.4586 32.7935 17.0318 34.4435C18.8445 36.3373 20.9393 37.2091 23.8037 37.2466L25.0264 37.2654L25.3428 38.9998C25.719 41.0154 25.8216 42.4216 25.6762 43.3498C25.4625 44.7091 24.8639 45.7966 24.0944 46.2466C23.8208 46.406 23.5985 46.4529 23.0427 46.4529C22.2732 46.4529 22.1022 46.3685 22.4185 46.1341C22.8717 45.8154 23.4275 45.1685 23.6583 44.6998C24.0004 44.006 24.0602 42.9373 23.7866 42.1685C23.3847 40.9873 22.333 40.1341 21.1873 40.0498C19.5969 39.9373 18.34 41.0341 17.9724 42.8623C17.827 43.556 17.9638 44.531 18.3144 45.356C18.9129 46.7716 20.5973 47.8591 22.3758 47.9716C23.7609 48.056 24.958 47.6435 25.7874 46.781C26.326 46.2279 26.6766 45.5435 26.9844 44.4466C27.1811 43.7716 27.2153 43.4904 27.2153 42.4779C27.2153 41.2404 27.087 40.2654 26.6168 37.9029L26.3688 36.656L26.745 36.4216C28.3354 35.3998 29.7547 33.131 30.0797 31.1248C30.3789 29.231 29.9257 27.1216 28.8228 25.3123C27.8993 23.8029 25.9498 22.6966 24.197 22.6873H23.6327L23.4104 21.6748C23.2907 21.1216 23.1111 20.2029 23 19.6404L22.8119 18.5998L24.2227 16.331C25.8301 13.7341 26.3859 12.7123 26.9075 11.3904C27.677 9.43102 27.9763 7.64977 27.8053 5.98102C27.6343 4.36852 26.9588 2.32477 26.3089 1.4529C25.719 0.665394 24.5134 -0.000228882 23.6669 -0.000228882C23.4275 -0.000228882 23.1111 0.102894 22.7777 0.290394ZM24.6074 4.04977C25.1461 4.4529 25.3855 4.85602 25.4625 5.5029C25.642 7.09665 24.958 9.28102 23.5985 11.456C23.0598 12.3185 22.0423 13.5841 21.9654 13.4998C21.8457 13.3685 21.7174 11.1935 21.7687 10.0779C21.8542 8.00602 22.1706 6.34665 22.7264 5.09039C23.3163 3.73102 23.8037 3.45914 24.6074 4.04977ZM21.726 21.7685C21.9226 22.481 22.0765 23.1185 22.0765 23.1841C22.0765 23.2498 21.9483 23.3716 21.8029 23.456C21.0676 23.8404 20.204 24.8998 19.7337 26.006C19.2378 27.1873 19.1267 27.7404 19.1267 29.2029C19.1352 30.6841 19.2464 31.1435 19.8107 31.9873C20.1527 32.5029 20.4349 32.6248 20.7512 32.3998C21.0419 32.1935 21.1103 31.8279 20.9222 31.4435C20.8111 31.2091 20.7854 30.9748 20.8111 30.3185C20.8453 29.3154 21.0932 28.6591 21.6576 28.0498C22.0167 27.656 22.7349 27.1216 22.7948 27.1966C22.8632 27.2716 24.2312 34.6591 24.2398 35.0154L24.2569 35.381L23.6583 35.5123C22.3587 35.7841 20.794 35.4748 19.5969 34.7154C18.93 34.2841 17.8612 33.131 17.4764 32.4185C16.6385 30.8716 16.4675 28.9123 17.0062 27.0466C17.5192 25.2466 18.3315 23.8498 20.3152 21.356C21.0505 20.4466 21.2813 20.2029 21.3241 20.3248C21.3497 20.4091 21.5379 21.0654 21.726 21.7685ZM25.2915 26.7841C26.4116 27.1966 27.0528 28.0404 27.4205 29.5779C27.5659 30.206 27.583 31.4341 27.4547 32.0529C27.3093 32.7654 26.9246 33.4966 26.403 34.0779L25.89 34.6404L25.7788 34.2185C25.719 33.9841 25.471 32.681 25.2316 31.3123C24.8639 29.1841 24.5903 27.7029 24.4108 26.831C24.368 26.6529 24.4022 26.6248 24.616 26.6248C24.7528 26.6248 25.0606 26.6904 25.2915 26.7841Z" fill="black"/>
</g>
<defs>
<clipPath id="clip0_113_2617">
<rect width="43.7778" height="48" fill="white" transform="translate(0.273148)"/>
</clipPath>
</defs>
</svg>
