<?xml version="1.0" standalone="no"?>
<!DOCTYPE svg PUBLIC "-//W3C//DTD SVG 20010904//EN"
 "http://www.w3.org/TR/2001/REC-SVG-20010904/DTD/svg10.dtd">
<svg version="1.0" xmlns="http://www.w3.org/2000/svg"
 width="48.000000pt" height="48.000000pt" viewBox="0 0 48.000000 48.000000"
 preserveAspectRatio="xMidYMid meet">

<g transform="translate(0.000000,48.000000) scale(0.100000,-0.100000)"
fill="#000000" stroke="none">
<path d="M30 465 c-7 -8 -10 -24 -7 -35 3 -10 -1 -24 -9 -31 -8 -6 -13 -27
-13 -48 2 -34 2 -34 6 -6 3 17 10 36 16 44 10 12 13 9 17 -15 7 -38 35 -39 35
-1 -1 40 19 27 23 -16 2 -23 8 -37 17 -37 23 0 25 -15 8 -60 -16 -40 -16 -46
0 -88 15 -43 15 -48 0 -64 -20 -22 -37 -23 -29 -2 8 22 -11 54 -33 54 -24 0
-45 -25 -39 -48 3 -10 -1 -23 -9 -30 -7 -7 -12 -29 -12 -50 1 -20 3 -28 6 -17
2 11 6 30 9 43 6 31 22 28 26 -5 4 -38 33 -38 33 0 -1 29 12 36 21 12 4 -8 11
-15 16 -15 6 0 8 6 5 14 -3 8 4 23 16 34 20 18 24 19 41 6 26 -18 106 -18 133
1 18 13 22 12 39 -6 12 -14 17 -32 15 -60 -1 -21 2 -39 8 -39 5 0 11 17 13 37
4 43 24 56 23 16 0 -38 29 -38 33 0 4 33 20 36 26 4 3 -12 7 -31 9 -42 3 -11
5 -3 6 17 0 20 -5 43 -11 50 -7 7 -13 24 -13 37 0 28 -25 47 -49 38 -10 -4
-16 -18 -16 -37 0 -34 -10 -38 -34 -12 -15 17 -15 22 -1 55 9 22 11 37 5 37
-5 0 -10 -6 -10 -14 0 -8 -9 -24 -20 -37 -18 -22 -19 -22 -20 -5 0 11 -7 28
-17 38 -14 16 -15 20 -1 36 11 13 13 25 7 49 -8 27 -15 32 -50 38 -29 5 -45 3
-54 -6 -19 -20 -22 -63 -6 -83 12 -14 11 -19 -3 -34 -9 -10 -16 -27 -16 -38
-1 -17 -2 -17 -20 5 -25 29 -26 92 -3 128 9 14 33 33 53 41 19 8 30 17 23 19
-6 2 -25 -3 -41 -11 -27 -14 -31 -14 -46 3 -9 10 -16 27 -16 38 0 11 -7 26
-15 33 -9 7 -13 20 -10 27 14 39 -39 70 -65 38z m48 -28 c-2 -11 -9 -22 -15
-25 -16 -4 -27 22 -19 43 8 22 38 6 34 -18z m-13 -67 c3 -5 1 -10 -4 -10 -6 0
-11 5 -11 10 0 6 2 10 4 10 3 0 8 -4 11 -10z m173 -92 c-2 -15 -11 -24 -25
-26 -27 -4 -30 10 -7 32 22 23 36 20 32 -6z m46 -19 c-10 -16 -24 -9 -24 12 0
18 2 19 15 9 8 -7 12 -16 9 -21z m-14 -33 c0 -7 -7 -19 -15 -26 -12 -10 -18
-10 -30 0 -25 21 -18 40 15 40 19 0 30 -5 30 -14z m-46 -89 c6 -15 7 -29 4
-33 -11 -10 -48 16 -48 35 0 40 30 39 44 -2z m26 23 c0 -5 -4 -10 -10 -10 -5
0 -10 5 -10 10 0 6 5 10 10 10 6 0 10 -4 10 -10z m45 -21 c0 -17 -5 -24 -17
-23 -10 1 -15 -2 -12 -7 3 -5 0 -9 -5 -9 -15 0 -14 26 1 50 16 26 33 20 33
-11z m-220 -19 c0 -13 -6 -25 -12 -27 -16 -6 -27 21 -19 43 9 23 31 11 31 -16z
m360 0 c0 -27 -22 -39 -31 -16 -8 22 3 49 19 43 6 -2 12 -14 12 -27z m-365
-70 c0 -5 -4 -10 -10 -10 -5 0 -10 5 -10 10 0 6 5 10 10 10 6 0 10 -4 10 -10z
m360 0 c0 -5 -5 -10 -11 -10 -5 0 -7 5 -4 10 3 6 8 10 11 10 2 0 4 -4 4 -10z"/>
<path d="M397 473 c-4 -3 -7 -19 -7 -33 0 -15 -7 -33 -15 -40 -8 -7 -15 -22
-15 -33 0 -11 -7 -28 -16 -38 -15 -17 -19 -17 -46 -3 -16 8 -34 14 -41 11 -6
-2 7 -12 28 -23 25 -12 46 -31 55 -51 21 -45 34 -42 15 3 -16 38 -13 54 10 54
9 0 15 14 17 37 4 43 24 56 23 16 0 -38 28 -37 35 1 4 24 7 27 17 15 6 -8 13
-27 16 -44 4 -28 4 -28 6 6 0 21 -5 42 -13 48 -8 7 -12 21 -9 31 9 34 -37 67
-60 43z m41 -39 c-4 -25 -32 -24 -36 0 -4 21 18 40 31 27 5 -5 7 -17 5 -27z
m-8 -64 c0 -5 -5 -10 -11 -10 -5 0 -7 5 -4 10 3 6 8 10 11 10 2 0 4 -4 4 -10z"/>
<path d="M160 415 c-25 -30 15 -70 45 -45 20 16 19 46 -1 54 -23 9 -30 8 -44
-9z m27 -9 c-3 -8 -1 -17 6 -20 7 -2 4 -5 -5 -5 -18 -1 -24 19 -11 32 11 11
15 8 10 -7z"/>
<path d="M240 410 c0 -17 7 -20 43 -20 36 0 43 3 43 20 0 17 -7 20 -43 20 -36
0 -43 -3 -43 -20z"/>
<path d="M240 370 c0 -5 9 -10 20 -10 11 0 20 5 20 10 0 6 -9 10 -20 10 -11 0
-20 -4 -20 -10z"/>
<path d="M106 21 c-4 -7 -5 -15 -2 -18 9 -9 19 4 14 18 -4 11 -6 11 -12 0z"/>
</g>
</svg>
