<svg width="5236" height="50" viewBox="0 0 5236 50" fill="none" xmlns="http://www.w3.org/2000/svg">
<g clip-path="url(#clip0_92_2280)">
<path d="M0 2.27257V4.54514H2618H5236V2.27257V0H2618H0V2.27257Z" fill="#556B2F"/>
<path d="M0 24.9984V40.9063H2.27257H4.54514V27.2709V13.6355H15.908H27.2708V20.4532V27.2709H22.7257C18.4533 27.2709 18.1806 27.4527 18.1806 29.5435C18.1806 31.7252 18.3624 31.8161 24.9983 31.8161H31.816V20.4532V9.09033H15.908H0V24.9984Z" fill="#556B2F"/>
<path d="M36.361 22.7258V36.3612H24.9982H13.6353V29.5435V22.7258H18.1805C22.4529 22.7258 22.7256 22.544 22.7256 20.4532C22.7256 18.2716 22.5438 18.1807 15.9079 18.1807H9.09021V29.5435V40.9063H24.9982H40.9062V27.2709V13.6355H52.269H63.6319V20.4532V27.2709H59.0867C54.8143 27.2709 54.5416 27.4527 54.5416 29.5435C54.5416 31.7252 54.7234 31.8161 61.3593 31.8161H68.177V20.4532V9.09033H52.269H36.361V22.7258Z" fill="#556B2F"/>
<path d="M72.7223 22.7258V36.3612H61.3594H49.9966V29.5435V22.7258H54.5417C58.8141 22.7258 59.0868 22.544 59.0868 20.4532C59.0868 18.2716 58.905 18.1807 52.2691 18.1807H45.4514V29.5435V40.9063H61.3594H77.2674V27.2709V13.6355H88.6302H99.9931V20.4532V27.2709H95.4479C91.1755 27.2709 90.9028 27.4527 90.9028 29.5435C90.9028 31.7252 91.0846 31.8161 97.7205 31.8161H104.538V20.4532V9.09033H88.6302H72.7223V22.7258Z" fill="#556B2F"/>
<path d="M109.083 22.7258V36.3612H97.7205H86.3576V29.5435V22.7258H90.9028C95.1752 22.7258 95.4479 22.544 95.4479 20.4532C95.4479 18.2716 95.2661 18.1807 88.6302 18.1807H81.8125V29.5435V40.9063H97.7205H113.628V27.2709V13.6355H124.991H136.354V20.4532V27.2709H131.809C127.537 27.2709 127.264 27.4527 127.264 29.5435C127.264 31.7252 127.446 31.8161 134.082 31.8161H140.899V20.4532V9.09033H124.991H109.083V22.7258Z" fill="#556B2F"/>
<path d="M145.444 22.7258V36.3612H134.082H122.719V29.5435V22.7258H127.264C131.536 22.7258 131.809 22.544 131.809 20.4532C131.809 18.2716 131.627 18.1807 124.991 18.1807H118.174V29.5435V40.9063H134.082H149.99V27.2709V13.6355H161.352H172.715V20.4532V27.2709H168.17C163.898 27.2709 163.625 27.4527 163.625 29.5435C163.625 31.7252 163.807 31.8161 170.443 31.8161H177.26V20.4532V9.09033H161.352H145.444V22.7258Z" fill="#556B2F"/>
<path d="M181.806 22.7258V36.3612H170.443H159.08V29.5435V22.7258H163.625C167.897 22.7258 168.17 22.544 168.17 20.4532C168.17 18.2716 167.988 18.1807 161.352 18.1807H154.535V29.5435V40.9063H170.443H186.351V27.2709V13.6355H197.713H209.076V20.4532V27.2709H204.531C200.259 27.2709 199.986 27.4527 199.986 29.5435C199.986 31.7252 200.168 31.8161 206.804 31.8161H213.621V20.4532V9.09033H197.713H181.806V22.7258Z" fill="#556B2F"/>
<path d="M218.167 22.7258V36.3612H206.804H195.441V29.5435V22.7258H199.986C204.259 22.7258 204.531 22.544 204.531 20.4532C204.531 18.2716 204.349 18.1807 197.714 18.1807H190.896V29.5435V40.9063H206.804H222.712V27.2709V13.6355H234.075H245.437V20.4532V27.2709H240.892C236.62 27.2709 236.347 27.4527 236.347 29.5435C236.347 31.7252 236.529 31.8161 243.165 31.8161H249.983V20.4532V9.09033H234.075H218.167V22.7258Z" fill="#556B2F"/>
<path d="M254.528 22.7258V36.3612H243.165H231.802V29.5435V22.7258H236.347C240.62 22.7258 240.892 22.544 240.892 20.4532C240.892 18.2716 240.711 18.1807 234.075 18.1807H227.257V29.5435V40.9063H243.165H259.073V27.2709V13.6355H270.436H281.799V20.4532V27.2709H277.253C272.981 27.2709 272.708 27.4527 272.708 29.5435C272.708 31.7252 272.89 31.8161 279.526 31.8161H286.344V20.4532V9.09033H270.436H254.528V22.7258Z" fill="#556B2F"/>
<path d="M290.889 22.7258V36.3612H279.526H268.163V29.5435V22.7258H272.708C276.981 22.7258 277.254 22.544 277.254 20.4532C277.254 18.2716 277.072 18.1807 270.436 18.1807H263.618V29.5435V40.9063H279.526H295.434V27.2709V13.6355H306.797H318.16V20.4532V27.2709H313.615C309.342 27.2709 309.069 27.4527 309.069 29.5435C309.069 31.7252 309.251 31.8161 315.887 31.8161H322.705V20.4532V9.09033H306.797H290.889V22.7258Z" fill="#556B2F"/>
<path d="M327.25 22.7258V36.3612H315.887H304.524V29.5435V22.7258H309.069C313.342 22.7258 313.615 22.544 313.615 20.4532C313.615 18.2716 313.433 18.1807 306.797 18.1807H299.979V29.5435V40.9063H315.887H331.795V27.2709V13.6355H343.158H354.521V20.4532V27.2709H349.976C345.703 27.2709 345.431 27.4527 345.431 29.5435C345.431 31.7252 345.612 31.8161 352.248 31.8161H359.066V20.4532V9.09033H343.158H327.25V22.7258Z" fill="#556B2F"/>
<path d="M363.611 22.7258V36.3612H352.248H340.885V29.5435V22.7258H345.431C349.703 22.7258 349.976 22.544 349.976 20.4532C349.976 18.2716 349.794 18.1807 343.158 18.1807H336.34V29.5435V40.9063H352.248H368.156V27.2709V13.6355H379.519H390.882V20.4532V27.2709H386.337C382.064 27.2709 381.792 27.4527 381.792 29.5435C381.792 31.7252 381.974 31.8161 388.609 31.8161H395.427V20.4532V9.09033H379.519H363.611V22.7258Z" fill="#556B2F"/>
<path d="M399.972 22.7258V36.3612H388.609H377.247V29.5435V22.7258H381.792C386.064 22.7258 386.337 22.544 386.337 20.4532C386.337 18.2716 386.155 18.1807 379.519 18.1807H372.701V29.5435V40.9063H388.609H404.517V27.2709V13.6355H415.88H427.243V20.4532V27.2709H422.698C418.426 27.2709 418.153 27.4527 418.153 29.5435C418.153 31.7252 418.335 31.8161 424.971 31.8161H431.788V20.4532V9.09033H415.88H399.972V22.7258Z" fill="#556B2F"/>
<path d="M436.333 22.7258V36.3612H424.97H413.608V29.5435V22.7258H418.153C422.425 22.7258 422.698 22.544 422.698 20.4532C422.698 18.2716 422.516 18.1807 415.88 18.1807H409.062V29.5435V40.9063H424.97H440.878V27.2709V13.6355H452.241H463.604V20.4532V27.2709H459.059C454.787 27.2709 454.514 27.4527 454.514 29.5435C454.514 31.7252 454.696 31.8161 461.332 31.8161H468.149V20.4532V9.09033H452.241H436.333V22.7258Z" fill="#556B2F"/>
<path d="M472.694 22.7258V36.3612H461.332H449.969V29.5435V22.7258H454.514C458.786 22.7258 459.059 22.544 459.059 20.4532C459.059 18.2716 458.877 18.1807 452.241 18.1807H445.424V29.5435V40.9063H461.332H477.24V27.2709V13.6355H488.602H499.965V20.4532V27.2709H495.42C491.148 27.2709 490.875 27.4527 490.875 29.5435C490.875 31.7252 491.057 31.8161 497.693 31.8161H504.51V20.4532V9.09033H488.602H472.694V22.7258Z" fill="#556B2F"/>
<path d="M509.056 22.7258V36.3612H497.693H486.33V29.5435V22.7258H490.875C495.147 22.7258 495.42 22.544 495.42 20.4532C495.42 18.2716 495.238 18.1807 488.602 18.1807H481.785V29.5435V40.9063H497.693H513.601V27.2709V13.6355H524.964H536.326V20.4532V27.2709H531.781C527.509 27.2709 527.236 27.4527 527.236 29.5435C527.236 31.7252 527.418 31.8161 534.054 31.8161H540.872V20.4532V9.09033H524.964H509.056V22.7258Z" fill="#556B2F"/>
<path d="M545.417 22.7258V36.3612H534.054H522.691V29.5435V22.7258H527.236C531.509 22.7258 531.781 22.544 531.781 20.4532C531.781 18.2716 531.599 18.1807 524.964 18.1807H518.146V29.5435V40.9063H534.054H549.962V27.2709V13.6355H561.325H572.687V20.4532V27.2709H568.142C563.87 27.2709 563.597 27.4527 563.597 29.5435C563.597 31.7252 563.779 31.8161 570.415 31.8161H577.233V20.4532V9.09033H561.325H545.417V22.7258Z" fill="#556B2F"/>
<path d="M581.778 22.7258V36.3612H570.415H559.052V29.5435V22.7258H563.597C567.87 22.7258 568.142 22.544 568.142 20.4532C568.142 18.2716 567.961 18.1807 561.325 18.1807H554.507V29.5435V40.9063H570.415H586.323V27.2709V13.6355H597.686H609.049V20.4532V27.2709H604.503C600.231 27.2709 599.958 27.4527 599.958 29.5435C599.958 31.7252 600.14 31.8161 606.776 31.8161H613.594V20.4532V9.09033H597.686H581.778V22.7258Z" fill="#556B2F"/>
<path d="M618.139 22.7258V36.3612H606.776H595.413V29.5435V22.7258H599.958C604.231 22.7258 604.504 22.544 604.504 20.4532C604.504 18.2716 604.322 18.1807 597.686 18.1807H590.868V29.5435V40.9063H606.776H622.684V27.2709V13.6355H634.047H645.41V20.4532V27.2709H640.865C636.592 27.2709 636.319 27.4527 636.319 29.5435C636.319 31.7252 636.501 31.8161 643.137 31.8161H649.955V20.4532V9.09033H634.047H618.139V22.7258Z" fill="#556B2F"/>
<path d="M654.5 22.7258V36.3612H643.137H631.774V29.5435V22.7258H636.319C640.592 22.7258 640.865 22.544 640.865 20.4532C640.865 18.2716 640.683 18.1807 634.047 18.1807H627.229V29.5435V40.9063H643.137H659.045V27.2709V13.6355H670.408H681.771V20.4532V27.2709H677.226C672.953 27.2709 672.681 27.4527 672.681 29.5435C672.681 31.7252 672.862 31.8161 679.498 31.8161H686.316V20.4532V9.09033H670.408H654.5V22.7258Z" fill="#556B2F"/>
<path d="M690.861 22.7258V36.3612H679.498H668.135V29.5435V22.7258H672.681C676.953 22.7258 677.226 22.544 677.226 20.4532C677.226 18.2716 677.044 18.1807 670.408 18.1807H663.59V29.5435V40.9063H679.498H695.406V27.2709V13.6355H706.769H718.132V20.4532V27.2709H713.587C709.314 27.2709 709.042 27.4527 709.042 29.5435C709.042 31.7252 709.224 31.8161 715.859 31.8161H722.677V20.4532V9.09033H706.769H690.861V22.7258Z" fill="#556B2F"/>
<path d="M727.222 22.7258V36.3612H715.859H704.497V29.5435V22.7258H709.042C713.314 22.7258 713.587 22.544 713.587 20.4532C713.587 18.2716 713.405 18.1807 706.769 18.1807H699.951V29.5435V40.9063H715.859H731.767V27.2709V13.6355H743.13H754.493V20.4532V27.2709H749.948C745.676 27.2709 745.403 27.4527 745.403 29.5435C745.403 31.7252 745.585 31.8161 752.221 31.8161H759.038V20.4532V9.09033H743.13H727.222V22.7258Z" fill="#556B2F"/>
<path d="M763.583 22.7258V36.3612H752.22H740.858V29.5435V22.7258H745.403C749.675 22.7258 749.948 22.544 749.948 20.4532C749.948 18.2716 749.766 18.1807 743.13 18.1807H736.312V29.5435V40.9063H752.22H768.128V27.2709V13.6355H779.491H790.854V20.4532V27.2709H786.309C782.037 27.2709 781.764 27.4527 781.764 29.5435C781.764 31.7252 781.946 31.8161 788.582 31.8161H795.399V20.4532V9.09033H779.491H763.583V22.7258Z" fill="#556B2F"/>
<path d="M799.945 22.7258V36.3612H788.582H777.219V29.5435V22.7258H781.764C786.036 22.7258 786.309 22.544 786.309 20.4532C786.309 18.2716 786.127 18.1807 779.491 18.1807H772.674V29.5435V40.9063H788.582H804.49V27.2709V13.6355H815.853H827.215V20.4532V27.2709H822.67C818.398 27.2709 818.125 27.4527 818.125 29.5435C818.125 31.7252 818.307 31.8161 824.943 31.8161H831.761V20.4532V9.09033H815.853H799.945V22.7258Z" fill="#556B2F"/>
<path d="M836.306 22.7258V36.3612H824.943H813.58V29.5435V22.7258H818.125C822.397 22.7258 822.67 22.544 822.67 20.4532C822.67 18.2716 822.488 18.1807 815.852 18.1807H809.035V29.5435V40.9063H824.943H840.851V27.2709V13.6355H852.214H863.576V20.4532V27.2709H859.031C854.759 27.2709 854.486 27.4527 854.486 29.5435C854.486 31.7252 854.668 31.8161 861.304 31.8161H868.122V20.4532V9.09033H852.214H836.306V22.7258Z" fill="#556B2F"/>
<path d="M872.667 22.7258V36.3612H861.304H849.941V29.5435V22.7258H854.486C858.759 22.7258 859.031 22.544 859.031 20.4532C859.031 18.2716 858.849 18.1807 852.214 18.1807H845.396V29.5435V40.9063H861.304H877.212V27.2709V13.6355H888.575H899.937V20.4532V27.2709H895.392C891.12 27.2709 890.847 27.4527 890.847 29.5435C890.847 31.7252 891.029 31.8161 897.665 31.8161H904.483V20.4532V9.09033H888.575H872.667V22.7258Z" fill="#556B2F"/>
<path d="M909.028 22.7258V36.3612H897.665H886.302V29.5435V22.7258H890.847C895.12 22.7258 895.392 22.544 895.392 20.4532C895.392 18.2716 895.211 18.1807 888.575 18.1807H881.757V29.5435V40.9063H897.665H913.573V27.2709V13.6355H924.936H936.299V20.4532V27.2709H931.754C927.481 27.2709 927.208 27.4527 927.208 29.5435C927.208 31.7252 927.39 31.8161 934.026 31.8161H940.844V20.4532V9.09033H924.936H909.028V22.7258Z" fill="#556B2F"/>
<path d="M945.389 22.7258V36.3612H934.026H922.663V29.5435V22.7258H927.208C931.481 22.7258 931.754 22.544 931.754 20.4532C931.754 18.2716 931.572 18.1807 924.936 18.1807H918.118V29.5435V40.9063H934.026H949.934V27.2709V13.6355H961.297H972.66V20.4532V27.2709H968.115C963.842 27.2709 963.569 27.4527 963.569 29.5435C963.569 31.7252 963.751 31.8161 970.387 31.8161H977.205V20.4532V9.09033H961.297H945.389V22.7258Z" fill="#556B2F"/>
<path d="M981.75 22.7258V36.3612H970.387H959.024V29.5435V22.7258H963.569C967.842 22.7258 968.115 22.544 968.115 20.4532C968.115 18.2716 967.933 18.1807 961.297 18.1807H954.479V29.5435V40.9063H970.387H986.295V27.2709V13.6355H997.658H1009.02V20.4532V27.2709H1004.48C1000.2 27.2709 999.931 27.4527 999.931 29.5435C999.931 31.7252 1000.11 31.8161 1006.75 31.8161H1013.57V20.4532V9.09033H997.658H981.75V22.7258Z" fill="#556B2F"/>
<path d="M1018.11 22.7258V36.3612H1006.75H995.386V29.5435V22.7258H999.931C1004.2 22.7258 1004.48 22.544 1004.48 20.4532C1004.48 18.2716 1004.29 18.1807 997.658 18.1807H990.84V29.5435V40.9063H1006.75H1022.66V27.2709V13.6355H1034.02H1045.38V20.4532V27.2709H1040.84C1036.56 27.2709 1036.29 27.4527 1036.29 29.5435C1036.29 31.7252 1036.47 31.8161 1043.11 31.8161H1049.93V20.4532V9.09033H1034.02H1018.11V22.7258Z" fill="#556B2F"/>
<path d="M1054.47 22.7258V36.3612H1043.11H1031.75V29.5435V22.7258H1036.29C1040.56 22.7258 1040.84 22.544 1040.84 20.4532C1040.84 18.2716 1040.66 18.1807 1034.02 18.1807H1027.2V29.5435V40.9063H1043.11H1059.02V27.2709V13.6355H1070.38H1081.74V20.4532V27.2709H1077.2C1072.93 27.2709 1072.65 27.4527 1072.65 29.5435C1072.65 31.7252 1072.83 31.8161 1079.47 31.8161H1086.29V20.4532V9.09033H1070.38H1054.47V22.7258Z" fill="#556B2F"/>
<path d="M1090.83 22.7258V36.3612H1079.47H1068.11V29.5435V22.7258H1072.65C1076.93 22.7258 1077.2 22.544 1077.2 20.4532C1077.2 18.2716 1077.02 18.1807 1070.38 18.1807H1063.56V29.5435V40.9063H1079.47H1095.38V27.2709V13.6355H1106.74H1118.1V20.4532V27.2709H1113.56C1109.29 27.2709 1109.01 27.4527 1109.01 29.5435C1109.01 31.7252 1109.2 31.8161 1115.83 31.8161H1122.65V20.4532V9.09033H1106.74H1090.83V22.7258Z" fill="#556B2F"/>
<path d="M1127.19 22.7258V36.3612H1115.83H1104.47V29.5435V22.7258H1109.01C1113.29 22.7258 1113.56 22.544 1113.56 20.4532C1113.56 18.2716 1113.38 18.1807 1106.74 18.1807H1099.92V29.5435V40.9063H1115.83H1131.74V27.2709V13.6355H1143.1H1154.47V20.4532V27.2709H1149.92C1145.65 27.2709 1145.38 27.4527 1145.38 29.5435C1145.38 31.7252 1145.56 31.8161 1152.19 31.8161H1159.01V20.4532V9.09033H1143.1H1127.19V22.7258Z" fill="#556B2F"/>
<path d="M1163.56 22.7258V36.3612H1152.19H1140.83V29.5435V22.7258H1145.38C1149.65 22.7258 1149.92 22.544 1149.92 20.4532C1149.92 18.2716 1149.74 18.1807 1143.1 18.1807H1136.28V29.5435V40.9063H1152.19H1168.1V27.2709V13.6355H1179.46H1190.83V20.4532V27.2709H1186.28C1182.01 27.2709 1181.74 27.4527 1181.74 29.5435C1181.74 31.7252 1181.92 31.8161 1188.55 31.8161H1195.37V20.4532V9.09033H1179.46H1163.56V22.7258Z" fill="#556B2F"/>
<path d="M1199.92 22.7258V36.3612H1188.55H1177.19V29.5435V22.7258H1181.74C1186.01 22.7258 1186.28 22.544 1186.28 20.4532C1186.28 18.2716 1186.1 18.1807 1179.46 18.1807H1172.65V29.5435V40.9063H1188.55H1204.46V27.2709V13.6355H1215.82H1227.19V20.4532V27.2709H1222.64C1218.37 27.2709 1218.1 27.4527 1218.1 29.5435C1218.1 31.7252 1218.28 31.8161 1224.91 31.8161H1231.73V20.4532V9.09033H1215.82H1199.92V22.7258Z" fill="#556B2F"/>
<path d="M1236.28 22.7258V36.3612H1224.92H1213.55V29.5435V22.7258H1218.1C1222.37 22.7258 1222.64 22.544 1222.64 20.4532C1222.64 18.2716 1222.46 18.1807 1215.82 18.1807H1209.01V29.5435V40.9063H1224.92H1240.82V27.2709V13.6355H1252.19H1263.55V20.4532V27.2709H1259C1254.73 27.2709 1254.46 27.4527 1254.46 29.5435C1254.46 31.7252 1254.64 31.8161 1261.28 31.8161H1268.09V20.4532V9.09033H1252.19H1236.28V22.7258Z" fill="#556B2F"/>
<path d="M1272.64 22.7258V36.3612H1261.28H1249.91V29.5435V22.7258H1254.46C1258.73 22.7258 1259 22.544 1259 20.4532C1259 18.2716 1258.82 18.1807 1252.19 18.1807H1245.37V29.5435V40.9063H1261.28H1277.18V27.2709V13.6355H1288.55H1299.91V20.4532V27.2709H1295.36C1291.09 27.2709 1290.82 27.4527 1290.82 29.5435C1290.82 31.7252 1291 31.8161 1297.64 31.8161H1304.45V20.4532V9.09033H1288.55H1272.64V22.7258Z" fill="#556B2F"/>
<path d="M1309 22.7258V36.3612H1297.64H1286.27V29.5435V22.7258H1290.82C1295.09 22.7258 1295.36 22.544 1295.36 20.4532C1295.36 18.2716 1295.18 18.1807 1288.55 18.1807H1281.73V29.5435V40.9063H1297.64H1313.55V27.2709V13.6355H1324.91H1336.27V20.4532V27.2709H1331.73C1327.45 27.2709 1327.18 27.4527 1327.18 29.5435C1327.18 31.7252 1327.36 31.8161 1334 31.8161H1340.82V20.4532V9.09033H1324.91H1309V22.7258Z" fill="#556B2F"/>
<path d="M1345.36 22.7258V36.3612H1334H1322.64V29.5435V22.7258H1327.18C1331.45 22.7258 1331.73 22.544 1331.73 20.4532C1331.73 18.2716 1331.54 18.1807 1324.91 18.1807H1318.09V29.5435V40.9063H1334H1349.91V27.2709V13.6355H1361.27H1372.63V20.4532V27.2709H1368.09C1363.81 27.2709 1363.54 27.4527 1363.54 29.5435C1363.54 31.7252 1363.72 31.8161 1370.36 31.8161H1377.18V20.4532V9.09033H1361.27H1345.36V22.7258Z" fill="#556B2F"/>
<path d="M1381.72 22.7258V36.3612H1370.36H1359V29.5435V22.7258H1363.54C1367.81 22.7258 1368.09 22.544 1368.09 20.4532C1368.09 18.2716 1367.91 18.1807 1361.27 18.1807H1354.45V29.5435V40.9063H1370.36H1386.27V27.2709V13.6355H1397.63H1408.99V20.4532V27.2709H1404.45C1400.18 27.2709 1399.9 27.4527 1399.9 29.5435C1399.9 31.7252 1400.08 31.8161 1406.72 31.8161H1413.54V20.4532V9.09033H1397.63H1381.72V22.7258Z" fill="#556B2F"/>
<path d="M1418.08 22.7258V36.3612H1406.72H1395.36V29.5435V22.7258H1399.9C1404.18 22.7258 1404.45 22.544 1404.45 20.4532C1404.45 18.2716 1404.27 18.1807 1397.63 18.1807H1390.81V29.5435V40.9063H1406.72H1422.63V27.2709V13.6355H1433.99H1445.35V20.4532V27.2709H1440.81C1436.54 27.2709 1436.26 27.4527 1436.26 29.5435C1436.26 31.7252 1436.45 31.8161 1443.08 31.8161H1449.9V20.4532V9.09033H1433.99H1418.08V22.7258Z" fill="#556B2F"/>
<path d="M1454.44 22.7258V36.3612H1443.08H1431.72V29.5435V22.7258H1436.26C1440.54 22.7258 1440.81 22.544 1440.81 20.4532C1440.81 18.2716 1440.63 18.1807 1433.99 18.1807H1427.17V29.5435V40.9063H1443.08H1458.99V27.2709V13.6355H1470.35H1481.72V20.4532V27.2709H1477.17C1472.9 27.2709 1472.63 27.4527 1472.63 29.5435C1472.63 31.7252 1472.81 31.8161 1479.44 31.8161H1486.26V20.4532V9.09033H1470.35H1454.44V22.7258Z" fill="#556B2F"/>
<path d="M1490.81 22.7258V36.3612H1479.44H1468.08V29.5435V22.7258H1472.63C1476.9 22.7258 1477.17 22.544 1477.17 20.4532C1477.17 18.2716 1476.99 18.1807 1470.35 18.1807H1463.53V29.5435V40.9063H1479.44H1495.35V27.2709V13.6355H1506.71H1518.08V20.4532V27.2709H1513.53C1509.26 27.2709 1508.99 27.4527 1508.99 29.5435C1508.99 31.7252 1509.17 31.8161 1515.8 31.8161H1522.62V20.4532V9.09033H1506.71H1490.81V22.7258Z" fill="#556B2F"/>
<path d="M1527.17 22.7258V36.3612H1515.8H1504.44V29.5435V22.7258H1508.99C1513.26 22.7258 1513.53 22.544 1513.53 20.4532C1513.53 18.2716 1513.35 18.1807 1506.71 18.1807H1499.9V29.5435V40.9063H1515.8H1531.71V27.2709V13.6355H1543.07H1554.44V20.4532V27.2709H1549.89C1545.62 27.2709 1545.35 27.4527 1545.35 29.5435C1545.35 31.7252 1545.53 31.8161 1552.16 31.8161H1558.98V20.4532V9.09033H1543.07H1527.17V22.7258Z" fill="#556B2F"/>
<path d="M1563.53 22.7258V36.3612H1552.17H1540.8V29.5435V22.7258H1545.35C1549.62 22.7258 1549.89 22.544 1549.89 20.4532C1549.89 18.2716 1549.71 18.1807 1543.07 18.1807H1536.26V29.5435V40.9063H1552.17H1568.07V27.2709V13.6355H1579.44H1590.8V20.4532V27.2709H1586.25C1581.98 27.2709 1581.71 27.4527 1581.71 29.5435C1581.71 31.7252 1581.89 31.8161 1588.53 31.8161H1595.34V20.4532V9.09033H1579.44H1563.53V22.7258Z" fill="#556B2F"/>
<path d="M1599.89 22.7258V36.3612H1588.53H1577.16V29.5435V22.7258H1581.71C1585.98 22.7258 1586.25 22.544 1586.25 20.4532C1586.25 18.2716 1586.07 18.1807 1579.44 18.1807H1572.62V29.5435V40.9063H1588.53H1604.43V27.2709V13.6355H1615.8H1627.16V20.4532V27.2709H1622.61C1618.34 27.2709 1618.07 27.4527 1618.07 29.5435C1618.07 31.7252 1618.25 31.8161 1624.89 31.8161H1631.7V20.4532V9.09033H1615.8H1599.89V22.7258Z" fill="#556B2F"/>
<path d="M1636.25 22.7258V36.3612H1624.89H1613.52V29.5435V22.7258H1618.07C1622.34 22.7258 1622.61 22.544 1622.61 20.4532C1622.61 18.2716 1622.43 18.1807 1615.8 18.1807H1608.98V29.5435V40.9063H1624.89H1640.8V27.2709V13.6355H1652.16H1663.52V20.4532V27.2709H1658.98C1654.7 27.2709 1654.43 27.4527 1654.43 29.5435C1654.43 31.7252 1654.61 31.8161 1661.25 31.8161H1668.07V20.4532V9.09033H1652.16H1636.25V22.7258Z" fill="#556B2F"/>
<path d="M1672.61 22.7258V36.3612H1661.25H1649.89V29.5435V22.7258H1654.43C1658.7 22.7258 1658.98 22.544 1658.98 20.4532C1658.98 18.2716 1658.79 18.1807 1652.16 18.1807H1645.34V29.5435V40.9063H1661.25H1677.16V27.2709V13.6355H1688.52H1699.88V20.4532V27.2709H1695.34C1691.06 27.2709 1690.79 27.4527 1690.79 29.5435C1690.79 31.7252 1690.97 31.8161 1697.61 31.8161H1704.43V20.4532V9.09033H1688.52H1672.61V22.7258Z" fill="#556B2F"/>
<path d="M1708.97 22.7258V36.3612H1697.61H1686.25V29.5435V22.7258H1690.79C1695.06 22.7258 1695.34 22.544 1695.34 20.4532C1695.34 18.2716 1695.16 18.1807 1688.52 18.1807H1681.7V29.5435V40.9063H1697.61H1713.52V27.2709V13.6355H1724.88H1736.24V20.4532V27.2709H1731.7C1727.43 27.2709 1727.15 27.4527 1727.15 29.5435C1727.15 31.7252 1727.33 31.8161 1733.97 31.8161H1740.79V20.4532V9.09033H1724.88H1708.97V22.7258Z" fill="#556B2F"/>
<path d="M1745.33 22.7258V36.3612H1733.97H1722.61V29.5435V22.7258H1727.15C1731.43 22.7258 1731.7 22.544 1731.7 20.4532C1731.7 18.2716 1731.52 18.1807 1724.88 18.1807H1718.06V29.5435V40.9063H1733.97H1749.88V27.2709V13.6355H1761.24H1772.6V20.4532V27.2709H1768.06C1763.79 27.2709 1763.51 27.4527 1763.51 29.5435C1763.51 31.7252 1763.7 31.8161 1770.33 31.8161H1777.15V20.4532V9.09033H1761.24H1745.33V22.7258Z" fill="#556B2F"/>
<path d="M1781.69 22.7258V36.3612H1770.33H1758.97V29.5435V22.7258H1763.51C1767.79 22.7258 1768.06 22.544 1768.06 20.4532C1768.06 18.2716 1767.88 18.1807 1761.24 18.1807H1754.42V29.5435V40.9063H1770.33H1786.24V27.2709V13.6355H1797.6H1808.97V20.4532V27.2709H1804.42C1800.15 27.2709 1799.88 27.4527 1799.88 29.5435C1799.88 31.7252 1800.06 31.8161 1806.69 31.8161H1813.51V20.4532V9.09033H1797.6H1781.69V22.7258Z" fill="#556B2F"/>
<path d="M1818.06 22.7258V36.3612H1806.69H1795.33V29.5435V22.7258H1799.88C1804.15 22.7258 1804.42 22.544 1804.42 20.4532C1804.42 18.2716 1804.24 18.1807 1797.6 18.1807H1790.78V29.5435V40.9063H1806.69H1822.6V27.2709V13.6355H1833.96H1845.33V20.4532V27.2709H1840.78C1836.51 27.2709 1836.24 27.4527 1836.24 29.5435C1836.24 31.7252 1836.42 31.8161 1843.05 31.8161H1849.87V20.4532V9.09033H1833.96H1818.06V22.7258Z" fill="#556B2F"/>
<path d="M1854.42 22.7258V36.3612H1843.05H1831.69V29.5435V22.7258H1836.24C1840.51 22.7258 1840.78 22.544 1840.78 20.4532C1840.78 18.2716 1840.6 18.1807 1833.96 18.1807H1827.15V29.5435V40.9063H1843.05H1858.96V27.2709V13.6355H1870.32H1881.69V20.4532V27.2709H1877.14C1872.87 27.2709 1872.6 27.4527 1872.6 29.5435C1872.6 31.7252 1872.78 31.8161 1879.41 31.8161H1886.23V20.4532V9.09033H1870.32H1854.42V22.7258Z" fill="#556B2F"/>
<path d="M1890.78 22.7258V36.3612H1879.42H1868.05V29.5435V22.7258H1872.6C1876.87 22.7258 1877.14 22.544 1877.14 20.4532C1877.14 18.2716 1876.96 18.1807 1870.32 18.1807H1863.51V29.5435V40.9063H1879.42H1895.32V27.2709V13.6355H1906.69H1918.05V20.4532V27.2709H1913.5C1909.23 27.2709 1908.96 27.4527 1908.96 29.5435C1908.96 31.7252 1909.14 31.8161 1915.78 31.8161H1922.59V20.4532V9.09033H1906.69H1890.78V22.7258Z" fill="#556B2F"/>
<path d="M1927.14 22.7258V36.3612H1915.78H1904.41V29.5435V22.7258H1908.96C1913.23 22.7258 1913.5 22.544 1913.5 20.4532C1913.5 18.2716 1913.32 18.1807 1906.69 18.1807H1899.87V29.5435V40.9063H1915.78H1931.68V27.2709V13.6355H1943.05H1954.41V20.4532V27.2709H1949.86C1945.59 27.2709 1945.32 27.4527 1945.32 29.5435C1945.32 31.7252 1945.5 31.8161 1952.14 31.8161H1958.95V20.4532V9.09033H1943.05H1927.14V22.7258Z" fill="#556B2F"/>
<path d="M1963.5 22.7258V36.3612H1952.14H1940.77V29.5435V22.7258H1945.32C1949.59 22.7258 1949.86 22.544 1949.86 20.4532C1949.86 18.2716 1949.68 18.1807 1943.05 18.1807H1936.23V29.5435V40.9063H1952.14H1968.05V27.2709V13.6355H1979.41H1990.77V20.4532V27.2709H1986.23C1981.95 27.2709 1981.68 27.4527 1981.68 29.5435C1981.68 31.7252 1981.86 31.8161 1988.5 31.8161H1995.32V20.4532V9.09033H1979.41H1963.5V22.7258Z" fill="#556B2F"/>
<path d="M1999.86 22.7258V36.3612H1988.5H1977.14V29.5435V22.7258H1981.68C1985.95 22.7258 1986.23 22.544 1986.23 20.4532C1986.23 18.2716 1986.04 18.1807 1979.41 18.1807H1972.59V29.5435V40.9063H1988.5H2004.41V27.2709V13.6355H2015.77H2027.13V20.4532V27.2709H2022.59C2018.31 27.2709 2018.04 27.4527 2018.04 29.5435C2018.04 31.7252 2018.22 31.8161 2024.86 31.8161H2031.68V20.4532V9.09033H2015.77H1999.86V22.7258Z" fill="#556B2F"/>
<path d="M2036.22 22.7258V36.3612H2024.86H2013.5V29.5435V22.7258H2018.04C2022.31 22.7258 2022.59 22.544 2022.59 20.4532C2022.59 18.2716 2022.41 18.1807 2015.77 18.1807H2008.95V29.5435V40.9063H2024.86H2040.77V27.2709V13.6355H2052.13H2063.49V20.4532V27.2709H2058.95C2054.68 27.2709 2054.4 27.4527 2054.4 29.5435C2054.4 31.7252 2054.58 31.8161 2061.22 31.8161H2068.04V20.4532V9.09033H2052.13H2036.22V22.7258Z" fill="#556B2F"/>
<path d="M2072.58 22.7258V36.3612H2061.22H2049.86V29.5435V22.7258H2054.4C2058.68 22.7258 2058.95 22.544 2058.95 20.4532C2058.95 18.2716 2058.77 18.1807 2052.13 18.1807H2045.31V29.5435V40.9063H2061.22H2077.13V27.2709V13.6355H2088.49H2099.85V20.4532V27.2709H2095.31C2091.04 27.2709 2090.76 27.4527 2090.76 29.5435C2090.76 31.7252 2090.95 31.8161 2097.58 31.8161H2104.4V20.4532V9.09033H2088.49H2072.58V22.7258Z" fill="#556B2F"/>
<path d="M2108.94 22.7258V36.3612H2097.58H2086.22V29.5435V22.7258H2090.76C2095.04 22.7258 2095.31 22.544 2095.31 20.4532C2095.31 18.2716 2095.13 18.1807 2088.49 18.1807H2081.67V29.5435V40.9063H2097.58H2113.49V27.2709V13.6355H2124.85H2136.22V20.4532V27.2709H2131.67C2127.4 27.2709 2127.13 27.4527 2127.13 29.5435C2127.13 31.7252 2127.31 31.8161 2133.94 31.8161H2140.76V20.4532V9.09033H2124.85H2108.94V22.7258Z" fill="#556B2F"/>
<path d="M2145.31 22.7258V36.3612H2133.94H2122.58V29.5435V22.7258H2127.12C2131.4 22.7258 2131.67 22.544 2131.67 20.4532C2131.67 18.2716 2131.49 18.1807 2124.85 18.1807H2118.03V29.5435V40.9063H2133.94H2149.85V27.2709V13.6355H2161.21H2172.58V20.4532V27.2709H2168.03C2163.76 27.2709 2163.49 27.4527 2163.49 29.5435C2163.49 31.7252 2163.67 31.8161 2170.3 31.8161H2177.12V20.4532V9.09033H2161.21H2145.31V22.7258Z" fill="#556B2F"/>
<path d="M2181.67 22.7258V36.3612H2170.3H2158.94V29.5435V22.7258H2163.49C2167.76 22.7258 2168.03 22.544 2168.03 20.4532C2168.03 18.2716 2167.85 18.1807 2161.21 18.1807H2154.4V29.5435V40.9063H2170.3H2186.21V27.2709V13.6355H2197.57H2208.94V20.4532V27.2709H2204.39C2200.12 27.2709 2199.85 27.4527 2199.85 29.5435C2199.85 31.7252 2200.03 31.8161 2206.66 31.8161H2213.48V20.4532V9.09033H2197.57H2181.67V22.7258Z" fill="#556B2F"/>
<path d="M2218.03 22.7258V36.3612H2206.67H2195.3V29.5435V22.7258H2199.85C2204.12 22.7258 2204.39 22.544 2204.39 20.4532C2204.39 18.2716 2204.21 18.1807 2197.57 18.1807H2190.76V29.5435V40.9063H2206.67H2222.57V27.2709V13.6355H2233.94H2245.3V20.4532V27.2709H2240.75C2236.48 27.2709 2236.21 27.4527 2236.21 29.5435C2236.21 31.7252 2236.39 31.8161 2243.03 31.8161H2249.84V20.4532V9.09033H2233.94H2218.03V22.7258Z" fill="#556B2F"/>
<path d="M2254.39 22.7258V36.3612H2243.03H2231.66V29.5435V22.7258H2236.21C2240.48 22.7258 2240.75 22.544 2240.75 20.4532C2240.75 18.2716 2240.57 18.1807 2233.94 18.1807H2227.12V29.5435V40.9063H2243.03H2258.93V27.2709V13.6355H2270.3H2281.66V20.4532V27.2709H2277.11C2272.84 27.2709 2272.57 27.4527 2272.57 29.5435C2272.57 31.7252 2272.75 31.8161 2279.39 31.8161H2286.2V20.4532V9.09033H2270.3H2254.39V22.7258Z" fill="#556B2F"/>
<path d="M2290.75 22.7258V36.3612H2279.39H2268.02V29.5435V22.7258H2272.57C2276.84 22.7258 2277.11 22.544 2277.11 20.4532C2277.11 18.2716 2276.93 18.1807 2270.3 18.1807H2263.48V29.5435V40.9063H2279.39H2295.3V27.2709V13.6355H2306.66H2318.02V20.4532V27.2709H2313.48C2309.2 27.2709 2308.93 27.4527 2308.93 29.5435C2308.93 31.7252 2309.11 31.8161 2315.75 31.8161H2322.57V20.4532V9.09033H2306.66H2290.75V22.7258Z" fill="#556B2F"/>
<path d="M2327.11 22.7258V36.3612H2315.75H2304.39V29.5435V22.7258H2308.93C2313.2 22.7258 2313.48 22.544 2313.48 20.4532C2313.48 18.2716 2313.29 18.1807 2306.66 18.1807H2299.84V29.5435V40.9063H2315.75H2331.66V27.2709V13.6355H2343.02H2354.38V20.4532V27.2709H2349.84C2345.56 27.2709 2345.29 27.4527 2345.29 29.5435C2345.29 31.7252 2345.47 31.8161 2352.11 31.8161H2358.93V20.4532V9.09033H2343.02H2327.11V22.7258Z" fill="#556B2F"/>
<path d="M2363.47 22.7258V36.3612H2352.11H2340.75V29.5435V22.7258H2345.29C2349.56 22.7258 2349.84 22.544 2349.84 20.4532C2349.84 18.2716 2349.66 18.1807 2343.02 18.1807H2336.2V29.5435V40.9063H2352.11H2368.02V27.2709V13.6355H2379.38H2390.74V20.4532V27.2709H2386.2C2381.93 27.2709 2381.65 27.4527 2381.65 29.5435C2381.65 31.7252 2381.83 31.8161 2388.47 31.8161H2395.29V20.4532V9.09033H2379.38H2363.47V22.7258Z" fill="#556B2F"/>
<path d="M2399.83 22.7258V36.3612H2388.47H2377.11V29.5435V22.7258H2381.65C2385.93 22.7258 2386.2 22.544 2386.2 20.4532C2386.2 18.2716 2386.02 18.1807 2379.38 18.1807H2372.56V29.5435V40.9063H2388.47H2404.38V27.2709V13.6355H2415.74H2427.1V20.4532V27.2709H2422.56C2418.29 27.2709 2418.01 27.4527 2418.01 29.5435C2418.01 31.7252 2418.2 31.8161 2424.83 31.8161H2431.65V20.4532V9.09033H2415.74H2399.83V22.7258Z" fill="#556B2F"/>
<path d="M2436.19 22.7258V36.3612H2424.83H2413.47V29.5435V22.7258H2418.01C2422.29 22.7258 2422.56 22.544 2422.56 20.4532C2422.56 18.2716 2422.38 18.1807 2415.74 18.1807H2408.92V29.5435V40.9063H2424.83H2440.74V27.2709V13.6355H2452.1H2463.47V20.4532V27.2709H2458.92C2454.65 27.2709 2454.38 27.4527 2454.38 29.5435C2454.38 31.7252 2454.56 31.8161 2461.19 31.8161H2468.01V20.4532V9.09033H2452.1H2436.19V22.7258Z" fill="#556B2F"/>
<path d="M2472.56 22.7258V36.3612H2461.19H2449.83V29.5435V22.7258H2454.38C2458.65 22.7258 2458.92 22.544 2458.92 20.4532C2458.92 18.2716 2458.74 18.1807 2452.1 18.1807H2445.28V29.5435V40.9063H2461.19H2477.1V27.2709V13.6355H2488.46H2499.83V20.4532V27.2709H2495.28C2491.01 27.2709 2490.74 27.4527 2490.74 29.5435C2490.74 31.7252 2490.92 31.8161 2497.55 31.8161H2504.37V20.4532V9.09033H2488.46H2472.56V22.7258Z" fill="#556B2F"/>
<path d="M2508.92 22.7258V36.3612H2497.55H2486.19V29.5435V22.7258H2490.74C2495.01 22.7258 2495.28 22.544 2495.28 20.4532C2495.28 18.2716 2495.1 18.1807 2488.46 18.1807H2481.65V29.5435V40.9063H2497.55H2513.46V27.2709V13.6355H2524.82H2536.19V20.4532V27.2709H2531.64C2527.37 27.2709 2527.1 27.4527 2527.1 29.5435C2527.1 31.7252 2527.28 31.8161 2533.91 31.8161H2540.73V20.4532V9.09033H2524.82H2508.92V22.7258Z" fill="#556B2F"/>
<path d="M2545.28 22.7258V36.3612H2533.92H2522.55V29.5435V22.7258H2527.1C2531.37 22.7258 2531.64 22.544 2531.64 20.4532C2531.64 18.2716 2531.46 18.1807 2524.82 18.1807H2518.01V29.5435V40.9063H2533.92H2549.82V27.2709V13.6355H2561.19H2572.55V20.4532V27.2709H2568C2563.73 27.2709 2563.46 27.4527 2563.46 29.5435C2563.46 31.7252 2563.64 31.8161 2570.28 31.8161H2577.09V20.4532V9.09033H2561.19H2545.28V22.7258Z" fill="#556B2F"/>
<path d="M2581.64 22.7258V36.3612H2570.28H2558.91V29.5435V22.7258H2563.46C2567.73 22.7258 2568 22.544 2568 20.4532C2568 18.2716 2567.82 18.1807 2561.19 18.1807H2554.37V29.5435V40.9063H2570.28H2586.18V27.2709V13.6355H2597.55H2608.91V20.4532V27.2709H2604.36C2600.09 27.2709 2599.82 27.4527 2599.82 29.5435C2599.82 31.7252 2600 31.8161 2606.64 31.8161H2613.45V20.4532V9.09033H2597.55H2581.64V22.7258Z" fill="#556B2F"/>
<path d="M2618 22.7258V36.3612H2606.64H2595.27V29.5435V22.7258H2599.82C2604.09 22.7258 2604.36 22.544 2604.36 20.4532C2604.36 18.2716 2604.18 18.1807 2597.55 18.1807H2590.73V29.5435V40.9063H2606.64H2622.55V27.2709V13.6355H2633.91H2645.27V20.4532V27.2709H2640.73C2636.45 27.2709 2636.18 27.4527 2636.18 29.5435C2636.18 31.7252 2636.36 31.8161 2643 31.8161H2649.82V20.4532V9.09033H2633.91H2618V22.7258Z" fill="#556B2F"/>
<path d="M2654.36 22.7258V36.3612H2643H2631.64V29.5435V22.7258H2636.18C2640.45 22.7258 2640.73 22.544 2640.73 20.4532C2640.73 18.2716 2640.54 18.1807 2633.91 18.1807H2627.09V29.5435V40.9063H2643H2658.91V27.2709V13.6355H2670.27H2681.63V20.4532V27.2709H2677.09C2672.81 27.2709 2672.54 27.4527 2672.54 29.5435C2672.54 31.7252 2672.72 31.8161 2679.36 31.8161H2686.18V20.4532V9.09033H2670.27H2654.36V22.7258Z" fill="#556B2F"/>
<path d="M2690.72 22.7258V36.3612H2679.36H2668V29.5435V22.7258H2672.54C2676.81 22.7258 2677.09 22.544 2677.09 20.4532C2677.09 18.2716 2676.91 18.1807 2670.27 18.1807H2663.45V29.5435V40.9063H2679.36H2695.27V27.2709V13.6355H2706.63H2717.99V20.4532V27.2709H2713.45C2709.18 27.2709 2708.9 27.4527 2708.9 29.5435C2708.9 31.7252 2709.08 31.8161 2715.72 31.8161H2722.54V20.4532V9.09033H2706.63H2690.72V22.7258Z" fill="#556B2F"/>
<path d="M2727.08 22.7258V36.3612H2715.72H2704.36V29.5435V22.7258H2708.9C2713.18 22.7258 2713.45 22.544 2713.45 20.4532C2713.45 18.2716 2713.27 18.1807 2706.63 18.1807H2699.81V29.5435V40.9063H2715.72H2731.63V27.2709V13.6355H2742.99H2754.35V20.4532V27.2709H2749.81C2745.54 27.2709 2745.26 27.4527 2745.26 29.5435C2745.26 31.7252 2745.45 31.8161 2752.08 31.8161H2758.9V20.4532V9.09033H2742.99H2727.08V22.7258Z" fill="#556B2F"/>
<path d="M2763.44 22.7258V36.3612H2752.08H2740.72V29.5435V22.7258H2745.26C2749.54 22.7258 2749.81 22.544 2749.81 20.4532C2749.81 18.2716 2749.63 18.1807 2742.99 18.1807H2736.17V29.5435V40.9063H2752.08H2767.99V27.2709V13.6355H2779.35H2790.72V20.4532V27.2709H2786.17C2781.9 27.2709 2781.63 27.4527 2781.63 29.5435C2781.63 31.7252 2781.81 31.8161 2788.44 31.8161H2795.26V20.4532V9.09033H2779.35H2763.44V22.7258Z" fill="#556B2F"/>
<path d="M2799.81 22.7258V36.3612H2788.44H2777.08V29.5435V22.7258H2781.63C2785.9 22.7258 2786.17 22.544 2786.17 20.4532C2786.17 18.2716 2785.99 18.1807 2779.35 18.1807H2772.53V29.5435V40.9063H2788.44H2804.35V27.2709V13.6355H2815.71H2827.08V20.4532V27.2709H2822.53C2818.26 27.2709 2817.99 27.4527 2817.99 29.5435C2817.99 31.7252 2818.17 31.8161 2824.8 31.8161H2831.62V20.4532V9.09033H2815.71H2799.81V22.7258Z" fill="#556B2F"/>
<path d="M2836.17 22.7258V36.3612H2824.8H2813.44V29.5435V22.7258H2817.99C2822.26 22.7258 2822.53 22.544 2822.53 20.4532C2822.53 18.2716 2822.35 18.1807 2815.71 18.1807H2808.9V29.5435V40.9063H2824.8H2840.71V27.2709V13.6355H2852.07H2863.44V20.4532V27.2709H2858.89C2854.62 27.2709 2854.35 27.4527 2854.35 29.5435C2854.35 31.7252 2854.53 31.8161 2861.16 31.8161H2867.98V20.4532V9.09033H2852.07H2836.17V22.7258Z" fill="#556B2F"/>
<path d="M2872.53 22.7258V36.3612H2861.17H2849.8V29.5435V22.7258H2854.35C2858.62 22.7258 2858.89 22.544 2858.89 20.4532C2858.89 18.2716 2858.71 18.1807 2852.07 18.1807H2845.26V29.5435V40.9063H2861.17H2877.07V27.2709V13.6355H2888.44H2899.8V20.4532V27.2709H2895.25C2890.98 27.2709 2890.71 27.4527 2890.71 29.5435C2890.71 31.7252 2890.89 31.8161 2897.53 31.8161H2904.34V20.4532V9.09033H2888.44H2872.53V22.7258Z" fill="#556B2F"/>
<path d="M2908.89 22.7258V36.3612H2897.53H2886.16V29.5435V22.7258H2890.71C2894.98 22.7258 2895.25 22.544 2895.25 20.4532C2895.25 18.2716 2895.07 18.1807 2888.44 18.1807H2881.62V29.5435V40.9063H2897.53H2913.43V27.2709V13.6355H2924.8H2936.16V20.4532V27.2709H2931.61C2927.34 27.2709 2927.07 27.4527 2927.07 29.5435C2927.07 31.7252 2927.25 31.8161 2933.89 31.8161H2940.7V20.4532V9.09033H2924.8H2908.89V22.7258Z" fill="#556B2F"/>
<path d="M2945.25 22.7258V36.3612H2933.89H2922.52V29.5435V22.7258H2927.07C2931.34 22.7258 2931.61 22.544 2931.61 20.4532C2931.61 18.2716 2931.43 18.1807 2924.8 18.1807H2917.98V29.5435V40.9063H2933.89H2949.8V27.2709V13.6355H2961.16H2972.52V20.4532V27.2709H2967.98C2963.7 27.2709 2963.43 27.4527 2963.43 29.5435C2963.43 31.7252 2963.61 31.8161 2970.25 31.8161H2977.07V20.4532V9.09033H2961.16H2945.25V22.7258Z" fill="#556B2F"/>
<path d="M2981.61 22.7258V36.3612H2970.25H2958.89V29.5435V22.7258H2963.43C2967.7 22.7258 2967.98 22.544 2967.98 20.4532C2967.98 18.2716 2967.79 18.1807 2961.16 18.1807H2954.34V29.5435V40.9063H2970.25H2986.16V27.2709V13.6355H2997.52H3008.88V20.4532V27.2709H3004.34C3000.06 27.2709 2999.79 27.4527 2999.79 29.5435C2999.79 31.7252 2999.97 31.8161 3006.61 31.8161H3013.43V20.4532V9.09033H2997.52H2981.61V22.7258Z" fill="#556B2F"/>
<path d="M3017.97 22.7258V36.3612H3006.61H2995.25V29.5435V22.7258H2999.79C3004.06 22.7258 3004.34 22.544 3004.34 20.4532C3004.34 18.2716 3004.16 18.1807 2997.52 18.1807H2990.7V29.5435V40.9063H3006.61H3022.52V27.2709V13.6355H3033.88H3045.24V20.4532V27.2709H3040.7C3036.43 27.2709 3036.15 27.4527 3036.15 29.5435C3036.15 31.7252 3036.33 31.8161 3042.97 31.8161H3049.79V20.4532V9.09033H3033.88H3017.97V22.7258Z" fill="#556B2F"/>
<path d="M3054.33 22.7258V36.3612H3042.97H3031.61V29.5435V22.7258H3036.15C3040.43 22.7258 3040.7 22.544 3040.7 20.4532C3040.7 18.2716 3040.52 18.1807 3033.88 18.1807H3027.06V29.5435V40.9063H3042.97H3058.88V27.2709V13.6355H3070.24H3081.6V20.4532V27.2709H3077.06C3072.79 27.2709 3072.51 27.4527 3072.51 29.5435C3072.51 31.7252 3072.7 31.8161 3079.33 31.8161H3086.15V20.4532V9.09033H3070.24H3054.33V22.7258Z" fill="#556B2F"/>
<path d="M3090.69 22.7258V36.3612H3079.33H3067.97V29.5435V22.7258H3072.51C3076.79 22.7258 3077.06 22.544 3077.06 20.4532C3077.06 18.2716 3076.88 18.1807 3070.24 18.1807H3063.42V29.5435V40.9063H3079.33H3095.24V27.2709V13.6355H3106.6H3117.97V20.4532V27.2709H3113.42C3109.15 27.2709 3108.88 27.4527 3108.88 29.5435C3108.88 31.7252 3109.06 31.8161 3115.69 31.8161H3122.51V20.4532V9.09033H3106.6H3090.69V22.7258Z" fill="#556B2F"/>
<path d="M3127.06 22.7258V36.3612H3115.69H3104.33V29.5435V22.7258H3108.88C3113.15 22.7258 3113.42 22.544 3113.42 20.4532C3113.42 18.2716 3113.24 18.1807 3106.6 18.1807H3099.78V29.5435V40.9063H3115.69H3131.6V27.2709V13.6355H3142.96H3154.33V20.4532V27.2709H3149.78C3145.51 27.2709 3145.24 27.4527 3145.24 29.5435C3145.24 31.7252 3145.42 31.8161 3152.05 31.8161H3158.87V20.4532V9.09033H3142.96H3127.06V22.7258Z" fill="#556B2F"/>
<path d="M3163.42 22.7258V36.3612H3152.05H3140.69V29.5435V22.7258H3145.24C3149.51 22.7258 3149.78 22.544 3149.78 20.4532C3149.78 18.2716 3149.6 18.1807 3142.96 18.1807H3136.15V29.5435V40.9063H3152.05H3167.96V27.2709V13.6355H3179.32H3190.69V20.4532V27.2709H3186.14C3181.87 27.2709 3181.6 27.4527 3181.6 29.5435C3181.6 31.7252 3181.78 31.8161 3188.41 31.8161H3195.23V20.4532V9.09033H3179.32H3163.42V22.7258Z" fill="#556B2F"/>
<path d="M3199.78 22.7258V36.3612H3188.42H3177.05V29.5435V22.7258H3181.6C3185.87 22.7258 3186.14 22.544 3186.14 20.4532C3186.14 18.2716 3185.96 18.1807 3179.32 18.1807H3172.51V29.5435V40.9063H3188.42H3204.32V27.2709V13.6355H3215.69H3227.05V20.4532V27.2709H3222.5C3218.23 27.2709 3217.96 27.4527 3217.96 29.5435C3217.96 31.7252 3218.14 31.8161 3224.78 31.8161H3231.59V20.4532V9.09033H3215.69H3199.78V22.7258Z" fill="#556B2F"/>
<path d="M3236.14 22.7258V36.3612H3224.78H3213.41V29.5435V22.7258H3217.96C3222.23 22.7258 3222.5 22.544 3222.5 20.4532C3222.5 18.2716 3222.32 18.1807 3215.69 18.1807H3208.87V29.5435V40.9063H3224.78H3240.68V27.2709V13.6355H3252.05H3263.41V20.4532V27.2709H3258.86C3254.59 27.2709 3254.32 27.4527 3254.32 29.5435C3254.32 31.7252 3254.5 31.8161 3261.14 31.8161H3267.95V20.4532V9.09033H3252.05H3236.14V22.7258Z" fill="#556B2F"/>
<path d="M3272.5 22.7258V36.3612H3261.14H3249.77V29.5435V22.7258H3254.32C3258.59 22.7258 3258.86 22.544 3258.86 20.4532C3258.86 18.2716 3258.68 18.1807 3252.05 18.1807H3245.23V29.5435V40.9063H3261.14H3277.05V27.2709V13.6355H3288.41H3299.77V20.4532V27.2709H3295.23C3290.95 27.2709 3290.68 27.4527 3290.68 29.5435C3290.68 31.7252 3290.86 31.8161 3297.5 31.8161H3304.32V20.4532V9.09033H3288.41H3272.5V22.7258Z" fill="#556B2F"/>
<path d="M3308.86 22.7258V36.3612H3297.5H3286.14V29.5435V22.7258H3290.68C3294.95 22.7258 3295.23 22.544 3295.23 20.4532C3295.23 18.2716 3295.04 18.1807 3288.41 18.1807H3281.59V29.5435V40.9063H3297.5H3313.41V27.2709V13.6355H3324.77H3336.13V20.4532V27.2709H3331.59C3327.31 27.2709 3327.04 27.4527 3327.04 29.5435C3327.04 31.7252 3327.22 31.8161 3333.86 31.8161H3340.68V20.4532V9.09033H3324.77H3308.86V22.7258Z" fill="#556B2F"/>
<path d="M3345.22 22.7258V36.3612H3333.86H3322.5V29.5435V22.7258H3327.04C3331.31 22.7258 3331.59 22.544 3331.59 20.4532C3331.59 18.2716 3331.41 18.1807 3324.77 18.1807H3317.95V29.5435V40.9063H3333.86H3349.77V27.2709V13.6355H3361.13H3372.49V20.4532V27.2709H3367.95C3363.68 27.2709 3363.4 27.4527 3363.4 29.5435C3363.4 31.7252 3363.58 31.8161 3370.22 31.8161H3377.04V20.4532V9.09033H3361.13H3345.22V22.7258Z" fill="#556B2F"/>
<path d="M3381.58 22.7258V36.3612H3370.22H3358.86V29.5435V22.7258H3363.4C3367.68 22.7258 3367.95 22.544 3367.95 20.4532C3367.95 18.2716 3367.77 18.1807 3361.13 18.1807H3354.31V29.5435V40.9063H3370.22H3386.13V27.2709V13.6355H3397.49H3408.85V20.4532V27.2709H3404.31C3400.04 27.2709 3399.76 27.4527 3399.76 29.5435C3399.76 31.7252 3399.95 31.8161 3406.58 31.8161H3413.4V20.4532V9.09033H3397.49H3381.58V22.7258Z" fill="#556B2F"/>
<path d="M3417.94 22.7258V36.3612H3406.58H3395.22V29.5435V22.7258H3399.76C3404.04 22.7258 3404.31 22.544 3404.31 20.4532C3404.31 18.2716 3404.13 18.1807 3397.49 18.1807H3390.67V29.5435V40.9063H3406.58H3422.49V27.2709V13.6355H3433.85H3445.22V20.4532V27.2709H3440.67C3436.4 27.2709 3436.13 27.4527 3436.13 29.5435C3436.13 31.7252 3436.31 31.8161 3442.94 31.8161H3449.76V20.4532V9.09033H3433.85H3417.94V22.7258Z" fill="#556B2F"/>
<path d="M3454.31 22.7258V36.3612H3442.94H3431.58V29.5435V22.7258H3436.13C3440.4 22.7258 3440.67 22.544 3440.67 20.4532C3440.67 18.2716 3440.49 18.1807 3433.85 18.1807H3427.03V29.5435V40.9063H3442.94H3458.85V27.2709V13.6355H3470.21H3481.58V20.4532V27.2709H3477.03C3472.76 27.2709 3472.49 27.4527 3472.49 29.5435C3472.49 31.7252 3472.67 31.8161 3479.3 31.8161H3486.12V20.4532V9.09033H3470.21H3454.31V22.7258Z" fill="#556B2F"/>
<path d="M3490.67 22.7258V36.3612H3479.3H3467.94V29.5435V22.7258H3472.49C3476.76 22.7258 3477.03 22.544 3477.03 20.4532C3477.03 18.2716 3476.85 18.1807 3470.21 18.1807H3463.4V29.5435V40.9063H3479.3H3495.21V27.2709V13.6355H3506.57H3517.94V20.4532V27.2709H3513.39C3509.12 27.2709 3508.85 27.4527 3508.85 29.5435C3508.85 31.7252 3509.03 31.8161 3515.66 31.8161H3522.48V20.4532V9.09033H3506.57H3490.67V22.7258Z" fill="#556B2F"/>
<path d="M3527.03 22.7258V36.3612H3515.67H3504.3V29.5435V22.7258H3508.85C3513.12 22.7258 3513.39 22.544 3513.39 20.4532C3513.39 18.2716 3513.21 18.1807 3506.57 18.1807H3499.76V29.5435V40.9063H3515.67H3531.57V27.2709V13.6355H3542.94H3554.3V20.4532V27.2709H3549.75C3545.48 27.2709 3545.21 27.4527 3545.21 29.5435C3545.21 31.7252 3545.39 31.8161 3552.03 31.8161H3558.84V20.4532V9.09033H3542.94H3527.03V22.7258Z" fill="#556B2F"/>
<path d="M3563.39 22.7258V36.3612H3552.03H3540.66V29.5435V22.7258H3545.21C3549.48 22.7258 3549.75 22.544 3549.75 20.4532C3549.75 18.2716 3549.57 18.1807 3542.94 18.1807H3536.12V29.5435V40.9063H3552.03H3567.93V27.2709V13.6355H3579.3H3590.66V20.4532V27.2709H3586.11C3581.84 27.2709 3581.57 27.4527 3581.57 29.5435C3581.57 31.7252 3581.75 31.8161 3588.39 31.8161H3595.2V20.4532V9.09033H3579.3H3563.39V22.7258Z" fill="#556B2F"/>
<path d="M3599.75 22.7258V36.3612H3588.39H3577.02V29.5435V22.7258H3581.57C3585.84 22.7258 3586.11 22.544 3586.11 20.4532C3586.11 18.2716 3585.93 18.1807 3579.3 18.1807H3572.48V29.5435V40.9063H3588.39H3604.3V27.2709V13.6355H3615.66H3627.02V20.4532V27.2709H3622.48C3618.2 27.2709 3617.93 27.4527 3617.93 29.5435C3617.93 31.7252 3618.11 31.8161 3624.75 31.8161H3631.57V20.4532V9.09033H3615.66H3599.75V22.7258Z" fill="#556B2F"/>
<path d="M3636.11 22.7258V36.3612H3624.75H3613.39V29.5435V22.7258H3617.93C3622.2 22.7258 3622.48 22.544 3622.48 20.4532C3622.48 18.2716 3622.29 18.1807 3615.66 18.1807H3608.84V29.5435V40.9063H3624.75H3640.66V27.2709V13.6355H3652.02H3663.38V20.4532V27.2709H3658.84C3654.56 27.2709 3654.29 27.4527 3654.29 29.5435C3654.29 31.7252 3654.47 31.8161 3661.11 31.8161H3667.93V20.4532V9.09033H3652.02H3636.11V22.7258Z" fill="#556B2F"/>
<path d="M3672.47 22.7258V36.3612H3661.11H3649.75V29.5435V22.7258H3654.29C3658.56 22.7258 3658.84 22.544 3658.84 20.4532C3658.84 18.2716 3658.66 18.1807 3652.02 18.1807H3645.2V29.5435V40.9063H3661.11H3677.02V27.2709V13.6355H3688.38H3699.74V20.4532V27.2709H3695.2C3690.93 27.2709 3690.65 27.4527 3690.65 29.5435C3690.65 31.7252 3690.83 31.8161 3697.47 31.8161H3704.29V20.4532V9.09033H3688.38H3672.47V22.7258Z" fill="#556B2F"/>
<path d="M3708.83 22.7258V36.3612H3697.47H3686.11V29.5435V22.7258H3690.65C3694.93 22.7258 3695.2 22.544 3695.2 20.4532C3695.2 18.2716 3695.02 18.1807 3688.38 18.1807H3681.56V29.5435V40.9063H3697.47H3713.38V27.2709V13.6355H3724.74H3736.1V20.4532V27.2709H3731.56C3727.29 27.2709 3727.01 27.4527 3727.01 29.5435C3727.01 31.7252 3727.2 31.8161 3733.83 31.8161H3740.65V20.4532V9.09033H3724.74H3708.83V22.7258Z" fill="#556B2F"/>
<path d="M3745.19 22.7258V36.3612H3733.83H3722.47V29.5435V22.7258H3727.01C3731.29 22.7258 3731.56 22.544 3731.56 20.4532C3731.56 18.2716 3731.38 18.1807 3724.74 18.1807H3717.92V29.5435V40.9063H3733.83H3749.74V27.2709V13.6355H3761.1H3772.47V20.4532V27.2709H3767.92C3763.65 27.2709 3763.38 27.4527 3763.38 29.5435C3763.38 31.7252 3763.56 31.8161 3770.19 31.8161H3777.01V20.4532V9.09033H3761.1H3745.19V22.7258Z" fill="#556B2F"/>
<path d="M3781.56 22.7258V36.3612H3770.19H3758.83V29.5435V22.7258H3763.38C3767.65 22.7258 3767.92 22.544 3767.92 20.4532C3767.92 18.2716 3767.74 18.1807 3761.1 18.1807H3754.28V29.5435V40.9063H3770.19H3786.1V27.2709V13.6355H3797.46H3808.83V20.4532V27.2709H3804.28C3800.01 27.2709 3799.74 27.4527 3799.74 29.5435C3799.74 31.7252 3799.92 31.8161 3806.55 31.8161H3813.37V20.4532V9.09033H3797.46H3781.56V22.7258Z" fill="#556B2F"/>
<path d="M3817.92 22.7258V36.3612H3806.55H3795.19V29.5435V22.7258H3799.74C3804.01 22.7258 3804.28 22.544 3804.28 20.4532C3804.28 18.2716 3804.1 18.1807 3797.46 18.1807H3790.65V29.5435V40.9063H3806.55H3822.46V27.2709V13.6355H3833.82H3845.19V20.4532V27.2709H3840.64C3836.37 27.2709 3836.1 27.4527 3836.1 29.5435C3836.1 31.7252 3836.28 31.8161 3842.91 31.8161H3849.73V20.4532V9.09033H3833.82H3817.92V22.7258Z" fill="#556B2F"/>
<path d="M3854.28 22.7258V36.3612H3842.92H3831.55V29.5435V22.7258H3836.1C3840.37 22.7258 3840.64 22.544 3840.64 20.4532C3840.64 18.2716 3840.46 18.1807 3833.82 18.1807H3827.01V29.5435V40.9063H3842.92H3858.82V27.2709V13.6355H3870.19H3881.55V20.4532V27.2709H3877C3872.73 27.2709 3872.46 27.4527 3872.46 29.5435C3872.46 31.7252 3872.64 31.8161 3879.28 31.8161H3886.09V20.4532V9.09033H3870.19H3854.28V22.7258Z" fill="#556B2F"/>
<path d="M3890.64 22.7258V36.3612H3879.28H3867.91V29.5435V22.7258H3872.46C3876.73 22.7258 3877 22.544 3877 20.4532C3877 18.2716 3876.82 18.1807 3870.19 18.1807H3863.37V29.5435V40.9063H3879.28H3895.18V27.2709V13.6355H3906.55H3917.91V20.4532V27.2709H3913.36C3909.09 27.2709 3908.82 27.4527 3908.82 29.5435C3908.82 31.7252 3909 31.8161 3915.64 31.8161H3922.45V20.4532V9.09033H3906.55H3890.64V22.7258Z" fill="#556B2F"/>
<path d="M3927 22.7258V36.3612H3915.64H3904.27V29.5435V22.7258H3908.82C3913.09 22.7258 3913.36 22.544 3913.36 20.4532C3913.36 18.2716 3913.18 18.1807 3906.55 18.1807H3899.73V29.5435V40.9063H3915.64H3931.55V27.2709V13.6355H3942.91H3954.27V20.4532V27.2709H3949.73C3945.45 27.2709 3945.18 27.4527 3945.18 29.5435C3945.18 31.7252 3945.36 31.8161 3952 31.8161H3958.82V20.4532V9.09033H3942.91H3927V22.7258Z" fill="#556B2F"/>
<path d="M3963.36 22.7258V36.3612H3952H3940.64V29.5435V22.7258H3945.18C3949.45 22.7258 3949.73 22.544 3949.73 20.4532C3949.73 18.2716 3949.54 18.1807 3942.91 18.1807H3936.09V29.5435V40.9063H3952H3967.91V27.2709V13.6355H3979.27H3990.63V20.4532V27.2709H3986.09C3981.81 27.2709 3981.54 27.4527 3981.54 29.5435C3981.54 31.7252 3981.72 31.8161 3988.36 31.8161H3995.18V20.4532V9.09033H3979.27H3963.36V22.7258Z" fill="#556B2F"/>
<path d="M3999.72 22.7258V36.3612H3988.36H3977V29.5435V22.7258H3981.54C3985.81 22.7258 3986.09 22.544 3986.09 20.4532C3986.09 18.2716 3985.91 18.1807 3979.27 18.1807H3972.45V29.5435V40.9063H3988.36H4004.27V27.2709V13.6355H4015.63H4026.99V20.4532V27.2709H4022.45C4018.18 27.2709 4017.9 27.4527 4017.9 29.5435C4017.9 31.7252 4018.08 31.8161 4024.72 31.8161H4031.54V20.4532V9.09033H4015.63H3999.72V22.7258Z" fill="#556B2F"/>
<path d="M4036.08 22.7258V36.3612H4024.72H4013.36V29.5435V22.7258H4017.9C4022.18 22.7258 4022.45 22.544 4022.45 20.4532C4022.45 18.2716 4022.27 18.1807 4015.63 18.1807H4008.81V29.5435V40.9063H4024.72H4040.63V27.2709V13.6355H4051.99H4063.35V20.4532V27.2709H4058.81C4054.54 27.2709 4054.26 27.4527 4054.26 29.5435C4054.26 31.7252 4054.45 31.8161 4061.08 31.8161H4067.9V20.4532V9.09033H4051.99H4036.08V22.7258Z" fill="#556B2F"/>
<path d="M4072.44 22.7258V36.3612H4061.08H4049.72V29.5435V22.7258H4054.26C4058.54 22.7258 4058.81 22.544 4058.81 20.4532C4058.81 18.2716 4058.63 18.1807 4051.99 18.1807H4045.17V29.5435V40.9063H4061.08H4076.99V27.2709V13.6355H4088.35H4099.72V20.4532V27.2709H4095.17C4090.9 27.2709 4090.63 27.4527 4090.63 29.5435C4090.63 31.7252 4090.81 31.8161 4097.44 31.8161H4104.26V20.4532V9.09033H4088.35H4072.44V22.7258Z" fill="#556B2F"/>
<path d="M4108.81 22.7258V36.3612H4097.44H4086.08V29.5435V22.7258H4090.63C4094.9 22.7258 4095.17 22.544 4095.17 20.4532C4095.17 18.2716 4094.99 18.1807 4088.35 18.1807H4081.53V29.5435V40.9063H4097.44H4113.35V27.2709V13.6355H4124.71H4136.08V20.4532V27.2709H4131.53C4127.26 27.2709 4126.99 27.4527 4126.99 29.5435C4126.99 31.7252 4127.17 31.8161 4133.8 31.8161H4140.62V20.4532V9.09033H4124.71H4108.81V22.7258Z" fill="#556B2F"/>
<path d="M4145.17 22.7258V36.3612H4133.8H4122.44V29.5435V22.7258H4126.99C4131.26 22.7258 4131.53 22.544 4131.53 20.4532C4131.53 18.2716 4131.35 18.1807 4124.71 18.1807H4117.9V29.5435V40.9063H4133.8H4149.71V27.2709V13.6355H4161.07H4172.44V20.4532V27.2709H4167.89C4163.62 27.2709 4163.35 27.4527 4163.35 29.5435C4163.35 31.7252 4163.53 31.8161 4170.17 31.8161H4176.98V20.4532V9.09033H4161.07H4145.17V22.7258Z" fill="#556B2F"/>
<path d="M4181.53 22.7258V36.3612H4170.16H4158.8V29.5435V22.7258H4163.35C4167.62 22.7258 4167.89 22.544 4167.89 20.4532C4167.89 18.2716 4167.71 18.1807 4161.07 18.1807H4154.26V29.5435V40.9063H4170.16H4186.07V27.2709V13.6355H4197.44H4208.8V20.4532V27.2709H4204.25C4199.98 27.2709 4199.71 27.4527 4199.71 29.5435C4199.71 31.7252 4199.89 31.8161 4206.53 31.8161H4213.34V20.4532V9.09033H4197.44H4181.53V22.7258Z" fill="#556B2F"/>
<path d="M4217.89 22.7258V36.3612H4206.53H4195.16V29.5435V22.7258H4199.71C4203.98 22.7258 4204.25 22.544 4204.25 20.4532C4204.25 18.2716 4204.07 18.1807 4197.44 18.1807H4190.62V29.5435V40.9063H4206.53H4222.43V27.2709V13.6355H4233.8H4245.16V20.4532V27.2709H4240.61C4236.34 27.2709 4236.07 27.4527 4236.07 29.5435C4236.07 31.7252 4236.25 31.8161 4242.89 31.8161H4249.7V20.4532V9.09033H4233.8H4217.89V22.7258Z" fill="#556B2F"/>
<path d="M4254.25 22.7258V36.3612H4242.89H4231.52V29.5435V22.7258H4236.07C4240.34 22.7258 4240.61 22.544 4240.61 20.4532C4240.61 18.2716 4240.43 18.1807 4233.8 18.1807H4226.98V29.5435V40.9063H4242.89H4258.79V27.2709V13.6355H4270.16H4281.52V20.4532V27.2709H4276.98C4272.7 27.2709 4272.43 27.4527 4272.43 29.5435C4272.43 31.7252 4272.61 31.8161 4279.25 31.8161H4286.07V20.4532V9.09033H4270.16H4254.25V22.7258Z" fill="#556B2F"/>
<path d="M4290.61 22.7258V36.3612H4279.25H4267.89V29.5435V22.7258H4272.43C4276.7 22.7258 4276.98 22.544 4276.98 20.4532C4276.98 18.2716 4276.79 18.1807 4270.16 18.1807H4263.34V29.5435V40.9063H4279.25H4295.16V27.2709V13.6355H4306.52H4317.88V20.4532V27.2709H4313.34C4309.06 27.2709 4308.79 27.4527 4308.79 29.5435C4308.79 31.7252 4308.97 31.8161 4315.61 31.8161H4322.43V20.4532V9.09033H4306.52H4290.61V22.7258Z" fill="#556B2F"/>
<path d="M4326.97 22.7258V36.3612H4315.61H4304.25V29.5435V22.7258H4308.79C4313.06 22.7258 4313.34 22.544 4313.34 20.4532C4313.34 18.2716 4313.16 18.1807 4306.52 18.1807H4299.7V29.5435V40.9063H4315.61H4331.52V27.2709V13.6355H4342.88H4354.24V20.4532V27.2709H4349.7C4345.43 27.2709 4345.15 27.4527 4345.15 29.5435C4345.15 31.7252 4345.33 31.8161 4351.97 31.8161H4358.79V20.4532V9.09033H4342.88H4326.97V22.7258Z" fill="#556B2F"/>
<path d="M4363.33 22.7258V36.3612H4351.97H4340.61V29.5435V22.7258H4345.15C4349.43 22.7258 4349.7 22.544 4349.7 20.4532C4349.7 18.2716 4349.52 18.1807 4342.88 18.1807H4336.06V29.5435V40.9063H4351.97H4367.88V27.2709V13.6355H4379.24H4390.6V20.4532V27.2709H4386.06C4381.79 27.2709 4381.51 27.4527 4381.51 29.5435C4381.51 31.7252 4381.7 31.8161 4388.33 31.8161H4395.15V20.4532V9.09033H4379.24H4363.33V22.7258Z" fill="#556B2F"/>
<path d="M4399.69 22.7258V36.3612H4388.33H4376.97V29.5435V22.7258H4381.51C4385.79 22.7258 4386.06 22.544 4386.06 20.4532C4386.06 18.2716 4385.88 18.1807 4379.24 18.1807H4372.42V29.5435V40.9063H4388.33H4404.24V27.2709V13.6355H4415.6H4426.97V20.4532V27.2709H4422.42C4418.15 27.2709 4417.88 27.4527 4417.88 29.5435C4417.88 31.7252 4418.06 31.8161 4424.69 31.8161H4431.51V20.4532V9.09033H4415.6H4399.69V22.7258Z" fill="#556B2F"/>
<path d="M4436.06 22.7258V36.3612H4424.69H4413.33V29.5435V22.7258H4417.88C4422.15 22.7258 4422.42 22.544 4422.42 20.4532C4422.42 18.2716 4422.24 18.1807 4415.6 18.1807H4408.79V29.5435V40.9063H4424.69H4440.6V27.2709V13.6355H4451.96H4463.33V20.4532V27.2709H4458.78C4454.51 27.2709 4454.24 27.4527 4454.24 29.5435C4454.24 31.7252 4454.42 31.8161 4461.05 31.8161H4467.87V20.4532V9.09033H4451.96H4436.06V22.7258Z" fill="#556B2F"/>
<path d="M4472.42 22.7258V36.3612H4461.05H4449.69V29.5435V22.7258H4454.24C4458.51 22.7258 4458.78 22.544 4458.78 20.4532C4458.78 18.2716 4458.6 18.1807 4451.96 18.1807H4445.15V29.5435V40.9063H4461.05H4476.96V27.2709V13.6355H4488.32H4499.69V20.4532V27.2709H4495.14C4490.87 27.2709 4490.6 27.4527 4490.6 29.5435C4490.6 31.7252 4490.78 31.8161 4497.42 31.8161H4504.23V20.4532V9.09033H4488.32H4472.42V22.7258Z" fill="#556B2F"/>
<path d="M4508.78 22.7258V36.3612H4497.41H4486.05V29.5435V22.7258H4490.6C4494.87 22.7258 4495.14 22.544 4495.14 20.4532C4495.14 18.2716 4494.96 18.1807 4488.32 18.1807H4481.51V29.5435V40.9063H4497.41H4513.32V27.2709V13.6355H4524.69H4536.05V20.4532V27.2709H4531.5C4527.23 27.2709 4526.96 27.4527 4526.96 29.5435C4526.96 31.7252 4527.14 31.8161 4533.78 31.8161H4540.59V20.4532V9.09033H4524.69H4508.78V22.7258Z" fill="#556B2F"/>
<path d="M4545.14 22.7258V36.3612H4533.78H4522.41V29.5435V22.7258H4526.96C4531.23 22.7258 4531.5 22.544 4531.5 20.4532C4531.5 18.2716 4531.32 18.1807 4524.69 18.1807H4517.87V29.5435V40.9063H4533.78H4549.68V27.2709V13.6355H4561.05H4572.41V20.4532V27.2709H4567.86C4563.59 27.2709 4563.32 27.4527 4563.32 29.5435C4563.32 31.7252 4563.5 31.8161 4570.14 31.8161H4576.95V20.4532V9.09033H4561.05H4545.14V22.7258Z" fill="#556B2F"/>
<path d="M4581.5 22.7258V36.3612H4570.14H4558.77V29.5435V22.7258H4563.32C4567.59 22.7258 4567.86 22.544 4567.86 20.4532C4567.86 18.2716 4567.68 18.1807 4561.05 18.1807H4554.23V29.5435V40.9063H4570.14H4586.04V27.2709V13.6355H4597.41H4608.77V20.4532V27.2709H4604.23C4599.95 27.2709 4599.68 27.4527 4599.68 29.5435C4599.68 31.7252 4599.86 31.8161 4606.5 31.8161H4613.32V20.4532V9.09033H4597.41H4581.5V22.7258Z" fill="#556B2F"/>
<path d="M4617.86 22.7258V36.3612H4606.5H4595.14V29.5435V22.7258H4599.68C4603.95 22.7258 4604.23 22.544 4604.23 20.4532C4604.23 18.2716 4604.04 18.1807 4597.41 18.1807H4590.59V29.5435V40.9063H4606.5H4622.41V27.2709V13.6355H4633.77H4645.13V20.4532V27.2709H4640.59C4636.31 27.2709 4636.04 27.4527 4636.04 29.5435C4636.04 31.7252 4636.22 31.8161 4642.86 31.8161H4649.68V20.4532V9.09033H4633.77H4617.86V22.7258Z" fill="#556B2F"/>
<path d="M4654.22 22.7258V36.3612H4642.86H4631.5V29.5435V22.7258H4636.04C4640.31 22.7258 4640.59 22.544 4640.59 20.4532C4640.59 18.2716 4640.41 18.1807 4633.77 18.1807H4626.95V29.5435V40.9063H4642.86H4658.77V27.2709V13.6355H4670.13H4681.49V20.4532V27.2709H4676.95C4672.68 27.2709 4672.4 27.4527 4672.4 29.5435C4672.4 31.7252 4672.58 31.8161 4679.22 31.8161H4686.04V20.4532V9.09033H4670.13H4654.22V22.7258Z" fill="#556B2F"/>
<path d="M4690.58 22.7258V36.3612H4679.22H4667.86V29.5435V22.7258H4672.4C4676.68 22.7258 4676.95 22.544 4676.95 20.4532C4676.95 18.2716 4676.77 18.1807 4670.13 18.1807H4663.31V29.5435V40.9063H4679.22H4695.13V27.2709V13.6355H4706.49H4717.85V20.4532V27.2709H4713.31C4709.04 27.2709 4708.76 27.4527 4708.76 29.5435C4708.76 31.7252 4708.95 31.8161 4715.58 31.8161H4722.4V20.4532V9.09033H4706.49H4690.58V22.7258Z" fill="#556B2F"/>
<path d="M4726.94 22.7258V36.3612H4715.58H4704.22V29.5435V22.7258H4708.76C4713.04 22.7258 4713.31 22.544 4713.31 20.4532C4713.31 18.2716 4713.13 18.1807 4706.49 18.1807H4699.67V29.5435V40.9063H4715.58H4731.49V27.2709V13.6355H4742.85H4754.22V20.4532V27.2709H4749.67C4745.4 27.2709 4745.13 27.4527 4745.13 29.5435C4745.13 31.7252 4745.31 31.8161 4751.94 31.8161H4758.76V20.4532V9.09033H4742.85H4726.94V22.7258Z" fill="#556B2F"/>
<path d="M4763.31 22.7258V36.3612H4751.94H4740.58V29.5435V22.7258H4745.13C4749.4 22.7258 4749.67 22.544 4749.67 20.4532C4749.67 18.2716 4749.49 18.1807 4742.85 18.1807H4736.04V29.5435V40.9063H4751.94H4767.85V27.2709V13.6355H4779.21H4790.58V20.4532V27.2709H4786.03C4781.76 27.2709 4781.49 27.4527 4781.49 29.5435C4781.49 31.7252 4781.67 31.8161 4788.3 31.8161H4795.12V20.4532V9.09033H4779.21H4763.31V22.7258Z" fill="#556B2F"/>
<path d="M4799.67 22.7258V36.3612H4788.3H4776.94V29.5435V22.7258H4781.49C4785.76 22.7258 4786.03 22.544 4786.03 20.4532C4786.03 18.2716 4785.85 18.1807 4779.21 18.1807H4772.4V29.5435V40.9063H4788.3H4804.21V27.2709V13.6355H4815.57H4826.94V20.4532V27.2709H4822.39C4818.12 27.2709 4817.85 27.4527 4817.85 29.5435C4817.85 31.7252 4818.03 31.8161 4824.67 31.8161H4831.48V20.4532V9.09033H4815.57H4799.67V22.7258Z" fill="#556B2F"/>
<path d="M4836.03 22.7258V36.3612H4824.66H4813.3V29.5435V22.7258H4817.85C4822.12 22.7258 4822.39 22.544 4822.39 20.4532C4822.39 18.2716 4822.21 18.1807 4815.57 18.1807H4808.76V29.5435V40.9063H4824.66H4840.57V27.2709V13.6355H4851.94H4863.3V20.4532V27.2709H4858.75C4854.48 27.2709 4854.21 27.4527 4854.21 29.5435C4854.21 31.7252 4854.39 31.8161 4861.03 31.8161H4867.84V20.4532V9.09033H4851.94H4836.03V22.7258Z" fill="#556B2F"/>
<path d="M4872.39 22.7258V36.3612H4861.03H4849.66V29.5435V22.7258H4854.21C4858.48 22.7258 4858.75 22.544 4858.75 20.4532C4858.75 18.2716 4858.57 18.1807 4851.94 18.1807H4845.12V29.5435V40.9063H4861.03H4876.93V27.2709V13.6355H4888.3H4899.66V20.4532V27.2709H4895.11C4890.84 27.2709 4890.57 27.4527 4890.57 29.5435C4890.57 31.7252 4890.75 31.8161 4897.39 31.8161H4904.2V20.4532V9.09033H4888.3H4872.39V22.7258Z" fill="#556B2F"/>
<path d="M4908.75 22.7258V36.3612H4897.39H4886.02V29.5435V22.7258H4890.57C4894.84 22.7258 4895.11 22.544 4895.11 20.4532C4895.11 18.2716 4894.93 18.1807 4888.3 18.1807H4881.48V29.5435V40.9063H4897.39H4913.29V27.2709V13.6355H4924.66H4936.02V20.4532V27.2709H4931.48C4927.2 27.2709 4926.93 27.4527 4926.93 29.5435C4926.93 31.7252 4927.11 31.8161 4933.75 31.8161H4940.57V20.4532V9.09033H4924.66H4908.75V22.7258Z" fill="#556B2F"/>
<path d="M4945.11 22.7258V36.3612H4933.75H4922.39V29.5435V22.7258H4926.93C4931.2 22.7258 4931.48 22.544 4931.48 20.4532C4931.48 18.2716 4931.29 18.1807 4924.66 18.1807H4917.84V29.5435V40.9063H4933.75H4949.66V27.2709V13.6355H4961.02H4972.38V20.4532V27.2709H4967.84C4963.56 27.2709 4963.29 27.4527 4963.29 29.5435C4963.29 31.7252 4963.47 31.8161 4970.11 31.8161H4976.93V20.4532V9.09033H4961.02H4945.11V22.7258Z" fill="#556B2F"/>
<path d="M4981.47 22.7258V36.3612H4970.11H4958.75V29.5435V22.7258H4963.29C4967.56 22.7258 4967.84 22.544 4967.84 20.4532C4967.84 18.2716 4967.66 18.1807 4961.02 18.1807H4954.2V29.5435V40.9063H4970.11H4986.02V27.2709V13.6355H4997.38H5008.74V20.4532V27.2709H5004.2C4999.93 27.2709 4999.65 27.4527 4999.65 29.5435C4999.65 31.7252 4999.83 31.8161 5006.47 31.8161H5013.29V20.4532V9.09033H4997.38H4981.47V22.7258Z" fill="#556B2F"/>
<path d="M5017.83 22.7258V36.3612H5006.47H4995.11V29.5435V22.7258H4999.65C5003.93 22.7258 5004.2 22.544 5004.2 20.4532C5004.2 18.2716 5004.02 18.1807 4997.38 18.1807H4990.56V29.5435V40.9063H5006.47H5022.38V27.2709V13.6355H5033.74H5045.1V20.4532V27.2709H5040.56C5036.29 27.2709 5036.01 27.4527 5036.01 29.5435C5036.01 31.7252 5036.2 31.8161 5042.83 31.8161H5049.65V20.4532V9.09033H5033.74H5017.83V22.7258Z" fill="#556B2F"/>
<path d="M5054.19 22.7258V36.3612H5042.83H5031.47V29.5435V22.7258H5036.01C5040.29 22.7258 5040.56 22.544 5040.56 20.4532C5040.56 18.2716 5040.38 18.1807 5033.74 18.1807H5026.92V29.5435V40.9063H5042.83H5058.74V27.2709V13.6355H5070.1H5081.47V20.4532V27.2709H5076.92C5072.65 27.2709 5072.38 27.4527 5072.38 29.5435C5072.38 31.7252 5072.56 31.8161 5079.19 31.8161H5086.01V20.4532V9.09033H5070.1H5054.19V22.7258Z" fill="#556B2F"/>
<path d="M5090.56 22.7258V36.3612H5079.19H5067.83V29.5435V22.7258H5072.38C5076.65 22.7258 5076.92 22.544 5076.92 20.4532C5076.92 18.2716 5076.74 18.1807 5070.1 18.1807H5063.29V29.5435V40.9063H5079.19H5095.1V27.2709V13.6355H5106.46H5117.83V20.4532V27.2709H5113.28C5109.01 27.2709 5108.74 27.4527 5108.74 29.5435C5108.74 31.7252 5108.92 31.8161 5115.55 31.8161H5122.37V20.4532V9.09033H5106.46H5090.56V22.7258Z" fill="#556B2F"/>
<path d="M5126.92 22.7258V36.3612H5115.55H5104.19V29.5435V22.7258H5108.74C5113.01 22.7258 5113.28 22.544 5113.28 20.4532C5113.28 18.2716 5113.1 18.1807 5106.46 18.1807H5099.65V29.5435V40.9063H5115.55H5131.46V27.2709V13.6355H5142.82H5154.19V20.4532V27.2709H5149.64C5145.37 27.2709 5145.1 27.4527 5145.1 29.5435C5145.1 31.7252 5145.28 31.8161 5151.92 31.8161H5158.73V20.4532V9.09033H5142.82H5126.92V22.7258Z" fill="#556B2F"/>
<path d="M5163.28 22.7258V36.3612H5151.92H5140.55V29.5435V22.7258H5145.1C5149.37 22.7258 5149.64 22.544 5149.64 20.4532C5149.64 18.2716 5149.46 18.1807 5142.83 18.1807H5136.01V29.5435V40.9063H5151.92H5167.82V27.2709V13.6355H5179.19H5190.55V20.4532V27.2709H5186C5181.73 27.2709 5181.46 27.4527 5181.46 29.5435C5181.46 31.7252 5181.64 31.8161 5188.28 31.8161H5195.09V20.4532V9.09033H5179.19H5163.28V22.7258Z" fill="#556B2F"/>
<path d="M5199.64 22.7258V36.3612H5188.28H5176.91V29.5435V22.7258H5181.46C5185.73 22.7258 5186 22.544 5186 20.4532C5186 18.2716 5185.82 18.1807 5179.19 18.1807H5172.37V29.5435V40.9063H5188.28H5204.18V27.2709V13.6355H5215.55H5226.91V20.4532V27.2709H5222.36C5218.09 27.2709 5217.82 27.4527 5217.82 29.5435C5217.82 31.7252 5218 31.8161 5224.64 31.8161H5231.45V20.4532V9.09033H5215.55H5199.64V22.7258Z" fill="#556B2F"/>
<path d="M5208.73 29.5435V40.9063H5222.36H5236V38.6338V36.3612H5224.64H5213.27V29.5435V22.7258H5217.82C5222.09 22.7258 5222.36 22.544 5222.36 20.4532C5222.36 18.2716 5222.18 18.1807 5215.55 18.1807H5208.73V29.5435Z" fill="#556B2F"/>
<path d="M0 47.7238V49.9964H2618H5236V47.7238V45.4512H2618H0V47.7238Z" fill="#556B2F"/>
</g>
<defs>
<clipPath id="clip0_92_2280">
<rect width="5236" height="50" fill="white"/>
</clipPath>
</defs>
</svg>
