<svg width="145" height="50" viewBox="0 0 145 50" fill="none" xmlns="http://www.w3.org/2000/svg">
<g clip-path="url(#clip0_98_37)">
<path d="M0 2.27257V4.54514H2618H5236V2.27257V0H2618H0V2.27257Z" fill="#556B2F"/>
<path d="M0 24.9984V40.9063H2.27257H4.54514V27.2709V13.6355H15.908H27.2708V20.4532V27.2709H22.7257C18.4533 27.2709 18.1806 27.4527 18.1806 29.5435C18.1806 31.7252 18.3624 31.8161 24.9983 31.8161H31.816V20.4532V9.09033H15.908H0V24.9984Z" fill="#556B2F"/>
<path d="M36.361 22.7258V36.3612H24.9982H13.6353V29.5435V22.7258H18.1805C22.4529 22.7258 22.7256 22.544 22.7256 20.4532C22.7256 18.2716 22.5438 18.1807 15.9079 18.1807H9.09021V29.5435V40.9063H24.9982H40.9062V27.2709V13.6355H52.269H63.6319V20.4532V27.2709H59.0867C54.8143 27.2709 54.5416 27.4527 54.5416 29.5435C54.5416 31.7252 54.7234 31.8161 61.3593 31.8161H68.177V20.4532V9.09033H52.269H36.361V22.7258Z" fill="#556B2F"/>
<path d="M72.7223 22.7258V36.3612H61.3594H49.9966V29.5435V22.7258H54.5417C58.8141 22.7258 59.0868 22.544 59.0868 20.4532C59.0868 18.2716 58.905 18.1807 52.2691 18.1807H45.4514V29.5435V40.9063H61.3594H77.2674V27.2709V13.6355H88.6302H99.9931V20.4532V27.2709H95.4479C91.1755 27.2709 90.9028 27.4527 90.9028 29.5435C90.9028 31.7252 91.0846 31.8161 97.7205 31.8161H104.538V20.4532V9.09033H88.6302H72.7223V22.7258Z" fill="#556B2F"/>
<path d="M109.083 22.7258V36.3612H97.7205H86.3576V29.5435V22.7258H90.9028C95.1752 22.7258 95.4479 22.544 95.4479 20.4532C95.4479 18.2716 95.2661 18.1807 88.6302 18.1807H81.8125V29.5435V40.9063H97.7205H113.628V27.2709V13.6355H124.991H136.354V20.4532V27.2709H131.809C127.537 27.2709 127.264 27.4527 127.264 29.5435C127.264 31.7252 127.446 31.8161 134.082 31.8161H140.899V20.4532V9.09033H124.991H109.083V22.7258Z" fill="#556B2F"/>
<path d="M145.444 22.7258V36.3612H134.082H122.719V29.5435V22.7258H127.264C131.536 22.7258 131.809 22.544 131.809 20.4532C131.809 18.2716 131.627 18.1807 124.991 18.1807H118.174V29.5435V40.9063H134.082H149.99V27.2709V13.6355H161.352H172.715V20.4532V27.2709H168.17C163.898 27.2709 163.625 27.4527 163.625 29.5435C163.625 31.7252 163.807 31.8161 170.443 31.8161H177.26V20.4532V9.09033H161.352H145.444V22.7258Z" fill="#556B2F"/>
<path d="M0 47.7238V49.9964H2618H5236V47.7238V45.4512H2618H0V47.7238Z" fill="#556B2F"/>
</g>
<defs>
<clipPath id="clip0_98_37">
<rect width="145" height="50" fill="white"/>
</clipPath>
</defs>
</svg>
