<?xml version="1.0" standalone="no"?>
<!DOCTYPE svg PUBLIC "-//W3C//DTD SVG 20010904//EN"
 "http://www.w3.org/TR/2001/REC-SVG-20010904/DTD/svg10.dtd">
<svg version="1.0" xmlns="http://www.w3.org/2000/svg"
 width="48.000000pt" height="48.000000pt" viewBox="0 0 48.000000 48.000000"
 preserveAspectRatio="xMidYMid meet">

<g transform="translate(0.000000,48.000000) scale(0.100000,-0.100000)"
fill="#000000" stroke="none">
<path d="M7 463 c-12 -11 -8 -108 5 -121 15 -15 58 -16 58 -2 0 6 -11 10 -25
10 -24 0 -25 3 -25 55 l0 55 65 0 c60 0 80 -9 55 -25 -5 -3 -10 -13 -10 -22 0
-11 6 -8 20 10 11 14 20 30 20 36 0 12 -152 16 -163 4z"/>
<path d="M197 463 c-4 -3 -7 -23 -7 -44 l0 -38 -47 -3 c-37 -2 -49 -7 -51 -22
-5 -23 14 -36 51 -36 15 0 27 -4 27 -10 0 -5 -9 -10 -20 -10 -15 0 -20 -7 -20
-25 0 -23 -3 -24 -67 -28 l-68 -3 72 -2 c39 -1 75 -7 78 -12 3 -5 1 -10 -4
-10 -6 0 -11 -15 -11 -34 0 -19 -4 -38 -10 -41 -6 -4 -10 6 -10 23 0 16 -7 35
-15 42 -23 19 -48 -6 -43 -42 3 -18 0 -28 -8 -28 -24 0 -44 -32 -44 -70 0 -46
30 -70 90 -70 40 0 40 0 40 39 0 25 5 41 15 45 11 4 15 -2 15 -22 0 -15 9 -35
20 -45 22 -18 100 -24 100 -7 0 6 11 10 25 10 14 0 25 -4 25 -10 0 -5 23 -10
50 -10 l50 0 0 38 c0 27 6 41 20 50 18 11 21 21 18 70 -3 49 -6 57 -23 57 -16
0 -21 -8 -23 -37 -2 -21 -7 -38 -12 -38 -5 0 -7 13 -4 28 4 19 1 32 -10 41
-25 21 -46 6 -46 -34 0 -24 -4 -35 -15 -35 -16 0 -20 36 -9 78 6 20 13 22 78
24 l71 2 -68 3 c-45 3 -67 8 -66 16 3 27 -2 37 -21 37 -11 0 -20 5 -20 10 0 6
12 10 28 10 36 0 55 13 50 36 -2 15 -14 20 -51 22 -42 3 -47 6 -47 27 0 13 5
27 10 30 6 3 10 13 10 21 0 10 -13 14 -48 14 -27 0 -52 -3 -55 -7z m78 -13
c-3 -5 -19 -10 -36 -10 -16 0 -29 5 -29 10 0 6 16 10 36 10 21 0 33 -4 29 -10z
m-5 -39 c0 -24 -25 -45 -45 -37 -8 3 -15 17 -15 31 0 21 5 25 30 25 23 0 30
-5 30 -19z m-140 -61 c0 -5 -4 -10 -9 -10 -6 0 -13 5 -16 10 -3 6 1 10 9 10 9
0 16 -4 16 -10z m85 -10 c7 -21 0 -40 -16 -40 -5 0 -9 9 -9 20 0 15 -7 20 -25
20 -14 0 -25 5 -25 10 0 6 15 10 34 10 26 0 36 -5 41 -20z m115 10 c0 -5 -11
-10 -25 -10 -18 0 -25 -5 -25 -20 0 -22 -16 -27 -23 -7 -9 29 5 47 39 47 19 0
34 -4 34 -10z m40 0 c0 -5 -4 -10 -10 -10 -5 0 -10 5 -10 10 0 6 5 10 10 10 6
0 10 -4 10 -10z m-45 -70 c4 -6 -28 -10 -90 -10 -62 0 -94 4 -90 10 3 6 44 10
90 10 46 0 87 -4 90 -10z m-15 -59 c0 -59 -11 -89 -31 -84 -14 4 -17 11 -13
32 4 18 0 32 -10 40 -25 21 -46 6 -46 -33 0 -25 -5 -35 -20 -39 -17 -4 -20 0
-20 31 0 21 -3 47 -6 60 -6 21 -4 22 70 22 l76 0 0 -29z m-214 -32 c10 -17
-13 -36 -27 -22 -12 12 -4 33 11 33 5 0 12 -5 16 -11z m154 -9 c0 -11 -7 -20
-15 -20 -8 0 -15 9 -15 20 0 11 7 20 15 20 8 0 15 -9 15 -20z m140 0 c0 -11
-7 -20 -15 -20 -8 0 -15 9 -15 20 0 11 7 20 15 20 8 0 15 -9 15 -20z m-230
-36 c0 -27 -5 -37 -20 -41 -16 -4 -20 -14 -20 -44 0 -38 -1 -39 -35 -39 -34 0
-35 1 -35 43 -1 39 -2 41 -15 23 -15 -19 -15 -19 -15 2 0 27 28 42 79 42 33 0
41 4 41 18 0 17 8 32 17 32 2 0 3 -16 3 -36z m300 6 c0 -29 -11 -50 -26 -50
-10 0 -14 -12 -14 -40 0 -39 -1 -40 -35 -40 -33 0 -35 2 -35 34 0 19 -4 38
-10 41 -5 3 -10 -1 -10 -9 0 -9 -4 -16 -10 -16 -31 0 7 59 38 61 9 0 31 2 47
2 23 2 31 7 33 25 4 26 22 20 22 -8z m-162 -58 c4 -26 -14 -30 -21 -4 -3 9 -5
-2 -6 -25 -1 -41 -3 -43 -31 -43 -28 0 -30 3 -30 34 0 19 -4 38 -10 41 -5 3
-10 -1 -10 -9 0 -9 -4 -16 -10 -16 -12 0 -13 20 -2 37 25 39 114 28 120 -15z"/>
<path d="M315 461 c-3 -5 -1 -12 5 -16 5 -3 10 -15 10 -26 0 -10 5 -19 10 -19
13 0 13 16 -1 41 -10 19 -7 20 53 17 l63 -3 0 -35 c0 -31 -3 -35 -27 -38 -31
-4 -38 -22 -9 -22 42 0 51 10 51 61 l0 49 -74 0 c-41 0 -77 -4 -81 -9z"/>
<path d="M48 433 c12 -2 30 -2 40 0 9 3 -1 5 -23 4 -22 0 -30 -2 -17 -4z"/>
<path d="M378 433 c12 -2 32 -2 45 0 12 2 2 4 -23 4 -25 0 -35 -2 -22 -4z"/>
<path d="M48 403 c12 -2 30 -2 40 0 9 3 -1 5 -23 4 -22 0 -30 -2 -17 -4z"/>
<path d="M378 403 c12 -2 32 -2 45 0 12 2 2 4 -23 4 -25 0 -35 -2 -22 -4z"/>
<path d="M35 370 c3 -5 13 -10 21 -10 8 0 14 5 14 10 0 6 -9 10 -21 10 -11 0
-17 -4 -14 -10z"/>
</g>
</svg>
