<?xml version="1.0" standalone="no"?>
<!DOCTYPE svg PUBLIC "-//W3C//DTD SVG 20010904//EN"
 "http://www.w3.org/TR/2001/REC-SVG-20010904/DTD/svg10.dtd">
<svg version="1.0" xmlns="http://www.w3.org/2000/svg"
 width="45.000000pt" height="48.000000pt" viewBox="0 0 45.000000 48.000000"
 preserveAspectRatio="xMidYMid meet">

<g transform="translate(0.000000,48.000000) scale(0.100000,-0.100000)"
fill="#000000" stroke="none">
<path d="M20 457 c0 -8 8 -17 19 -20 16 -4 19 -17 23 -96 5 -114 23 -144 86
-149 l42 -3 0 -73 c0 -66 -2 -74 -21 -79 -38 -10 -15 -32 36 -35 85 -6 121 13
70 36 -25 11 -26 16 -23 79 l3 68 42 3 c67 5 83 33 83 144 0 85 1 89 25 100
14 6 24 16 22 22 -7 21 -45 17 -73 -7 -25 -22 -28 -31 -32 -111 -4 -82 -6 -87
-29 -92 -13 -4 -29 -2 -34 3 -5 5 -9 48 -7 94 3 76 5 85 26 94 39 17 18 30
-56 33 -58 2 -72 0 -72 -12 0 -8 9 -18 20 -21 18 -6 20 -15 20 -101 0 -100 -5
-108 -51 -84 -16 9 -19 22 -19 89 0 90 -14 117 -67 127 -26 5 -33 3 -33 -9z"/>
</g>
</svg>
