<svg width="45" height="48" viewBox="0 0 45 48" fill="none" xmlns="http://www.w3.org/2000/svg">
<g clip-path="url(#clip0_113_2677)">
<path d="M21.5386 0.247903C21.0953 0.501068 20.7074 1.14917 20.7074 1.64537C20.7074 2.14157 21.0953 2.78968 21.5386 3.03271C21.7603 3.16436 22.0558 3.26562 22.1851 3.26562C22.3144 3.26562 22.61 3.16436 22.8316 3.03271C23.2749 2.78968 23.6628 2.14157 23.6628 1.64537C23.6628 1.14917 23.2749 0.501068 22.8316 0.247903C22.61 0.126384 22.3144 0.0251186 22.1851 0.0251186C22.0558 0.0251186 21.7603 0.126384 21.5386 0.247903Z" fill="black"/>
<path d="M17.1978 4.43023L15.3968 6.40491H11.6747H7.96195L7.47245 5.96947C7.21384 5.73656 6.72435 5.40238 6.39186 5.24035C5.82847 4.95681 5.71764 4.93656 4.68323 4.93656C3.5934 4.93656 3.5657 4.94668 2.8453 5.32137C0.831894 6.37453 -0.128631 8.79478 0.545584 11.1138C0.693357 11.6201 1.36757 12.8454 1.63541 13.0885C1.75548 13.1998 1.77395 14.7695 1.77395 26.4353V39.6505L1.39528 40.0961C0.582527 41.0581 0.166915 42.648 0.379339 43.9543C0.545584 44.9973 0.933488 45.8074 1.62617 46.5669C2.31886 47.3264 3.05773 47.7518 4.00902 47.934C5.20044 48.1669 6.65046 47.7112 7.52786 46.8201L7.93424 46.4049H22.1851H36.436L36.8423 46.8201C37.3688 47.3568 38.2185 47.7821 39.0497 47.9442C41.8482 48.4606 44.4896 45.5442 43.9909 42.4758C43.8431 41.5847 43.4552 40.6733 42.9749 40.0961L42.5963 39.6505V26.4353C42.5963 14.7695 42.6147 13.1998 42.7348 13.0885C43.0026 12.8454 43.6769 11.6201 43.8246 11.1138C44.4988 8.79478 43.5383 6.37453 41.5249 5.32137C40.8045 4.94668 40.7768 4.93656 39.687 4.93656C38.6526 4.93656 38.5417 4.95681 37.9784 5.24035C37.6459 5.40238 37.1564 5.73656 36.8978 5.96947L36.4083 6.40491H32.6955H28.9734L27.1724 4.43023C25.2329 2.30365 25.1406 2.24289 24.6418 2.6682C24.4664 2.8201 24.4017 2.96187 24.4017 3.23529C24.4017 3.56947 24.5125 3.73149 25.667 5.00744L26.9323 6.40491H22.1851H17.4379L18.7032 5.00744C19.8577 3.73149 19.9685 3.56947 19.9685 3.23529C19.9685 2.96187 19.9039 2.8201 19.7284 2.6682C19.2296 2.24289 19.1373 2.30365 17.1978 4.43023ZM5.89312 6.74921C6.14249 6.88086 6.56734 7.21504 6.83518 7.50871L7.3062 8.02517H22.1851H37.064L37.5443 7.50871C38.2185 6.77959 38.8558 6.4758 39.687 6.4758C40.823 6.4758 41.7466 7.10365 42.2915 8.25808C42.4947 8.69352 42.5408 8.9163 42.5408 9.59478C42.5501 10.6074 42.3377 11.1644 41.6265 11.9847L41.1185 12.572V26.3543C41.1185 35.9543 41.1462 40.1973 41.2201 40.3391C41.2755 40.4505 41.4787 40.7036 41.6727 40.9062C41.8759 41.0986 42.1529 41.5138 42.2915 41.8277C42.6332 42.5872 42.6517 43.7619 42.3469 44.491C42.0698 45.1593 41.5526 45.7467 40.9523 46.0707C40.509 46.3138 40.3058 46.3543 39.687 46.3543C38.8096 46.3543 38.2831 46.1214 37.6182 45.4226C37.3873 45.1695 37.1194 44.9264 37.0363 44.8758C36.8054 44.734 7.5371 44.7543 7.3062 44.8961C7.20461 44.9568 6.97371 45.1796 6.789 45.3923C6.61352 45.615 6.23485 45.9188 5.94854 46.0707C5.24661 46.4555 4.16602 46.4758 3.51952 46.1214C2.87301 45.7771 2.36504 45.2404 2.07873 44.6024C1.85707 44.1163 1.82013 43.8935 1.82013 43.215C1.82013 42.5366 1.85707 42.3138 2.07873 41.8277C2.21727 41.5138 2.49434 41.0986 2.69753 40.9062C2.89148 40.7036 3.09467 40.4505 3.15008 40.3391C3.22397 40.1973 3.25168 35.9644 3.25168 26.3543V12.572L2.716 11.9442C2.03255 11.1442 1.82013 10.5669 1.82013 9.54415C1.82936 8.9163 1.87554 8.69352 2.07873 8.25808C2.83607 6.65808 4.42463 6.03023 5.89312 6.74921Z" fill="black"/>
<path d="M4.96955 9.85822L4.72942 10.0607V26.4152C4.72942 42.6278 4.72942 42.7595 4.91413 42.962C5.12656 43.1949 5.63453 43.2354 5.85619 43.0329C5.93007 42.9721 6.21638 42.557 6.47499 42.1215C7.6387 40.2076 9.57822 37.919 10.9451 36.8557C11.7579 36.2177 12.8385 35.6304 13.5958 35.4177C14.4824 35.1645 16.5513 35.2557 17.7704 35.6C19.4513 36.0861 20.9013 36.8557 22.0835 37.8886C22.8039 38.5164 23.0995 38.557 23.4597 38.081C24.8912 36.1975 26.4244 35.0329 28.6502 34.1215C30.4419 33.3924 32.5015 32.9772 34.7458 32.8759C35.4847 32.8456 36.1958 32.7747 36.3344 32.7139C36.6761 32.5721 36.8331 32.1164 36.6853 31.7215C36.6207 31.5494 36.4822 31.357 36.3806 31.2962C36.0481 31.1038 32.677 31.357 31.2639 31.681L30.9591 31.7418V30.638V29.5342L31.4486 29.362C32.4461 29.0076 33.2773 28.0658 33.6468 26.8709C33.8315 26.2633 33.8407 26.081 33.7945 24.5924C33.6191 19.8532 32.5939 16.3392 31.1439 15.519C29.7677 14.7494 28.4562 15.6608 27.6527 17.9494C27.1447 19.3873 26.7661 21.6354 26.6183 24.1266C26.4798 26.4354 26.683 27.3063 27.6065 28.3899C28.0221 28.8759 28.9734 29.4937 29.3152 29.4937C29.4722 29.4937 29.4814 29.5949 29.4814 30.8V32.1063L28.4932 32.481C26.4705 33.2405 24.7527 34.3342 23.4689 35.6608C23.0902 36.0557 22.7762 36.3797 22.767 36.3797C22.7577 36.3797 22.4622 36.1772 22.1205 35.9342C20.7905 34.9924 19.1465 34.2633 17.521 33.8987C16.3665 33.6253 14.427 33.5848 13.5404 33.7975C11.1668 34.3645 8.85783 36.2278 6.30874 39.6202L6.12402 39.8734L6.11479 25.5645V11.2658H22.1851H38.2554L38.237 26.4253L38.2093 41.5949L23.081 41.6456L7.94348 41.6962L7.768 41.9392C7.5371 42.243 7.54634 42.5671 7.78647 42.9013L7.97119 43.1646H23.6259C39.1513 43.1646 39.2714 43.1646 39.4561 42.962C39.6408 42.7595 39.6408 42.6278 39.6408 26.4152V10.0607L39.4007 9.85822L39.1513 9.64556H22.1851H5.21891L4.96955 9.85822ZM30.6266 17.0481C31.1623 17.5139 31.7904 19.4785 32.1229 21.757C32.1967 22.3139 32.2891 23.5392 32.3168 24.481C32.363 26.0911 32.3537 26.243 32.1783 26.6177C31.7349 27.5696 30.9961 28.0253 29.9986 27.9544C29.2597 27.9038 28.7425 27.5595 28.3269 26.8101L28.0499 26.3139L28.0683 24.8456C28.096 21.6557 28.8072 18.2835 29.6661 17.2101C30.0078 16.7848 30.2665 16.7342 30.6266 17.0481Z" fill="black"/>
<path d="M13.6327 13.0986C13.485 13.2808 13.4573 13.5036 13.4295 14.6986L13.4018 16.096L12.7461 16.3694L12.0996 16.653L11.1945 15.6808C10.2247 14.6277 10.0308 14.5365 9.58744 14.9213C9.41196 15.0732 9.34731 15.215 9.34731 15.4884C9.34731 15.8125 9.44891 15.9644 10.2247 16.8353L11.1021 17.8175L10.8805 18.3644C10.7604 18.6682 10.6403 18.9922 10.6126 19.0834C10.5572 19.2454 10.4094 19.2656 9.30113 19.2656C8.09124 19.2656 8.03583 19.2758 7.8234 19.5188C7.54633 19.8226 7.52786 20.1669 7.78646 20.5213C7.97118 20.7846 7.98041 20.7846 9.26419 20.7846C10.4094 20.7846 10.5572 20.8049 10.6126 20.9568C10.6403 21.0581 10.7604 21.3821 10.8805 21.6859L11.1021 22.2327L10.2247 23.215C9.44891 24.0859 9.34731 24.2378 9.34731 24.5618C9.34731 24.8353 9.41196 24.977 9.58744 25.1289C10.0308 25.5137 10.2247 25.4226 11.1945 24.3694L12.0996 23.3973L12.7461 23.6808L13.4018 23.9543L13.4295 25.3517C13.4573 26.6378 13.4757 26.7694 13.6604 26.972C13.9283 27.2758 14.3624 27.2656 14.6579 26.9618C14.8796 26.7289 14.8888 26.6884 14.8888 25.3213C14.8888 24.3593 14.9165 23.9239 14.9904 23.9239C15.0458 23.9239 15.3414 23.8024 15.6461 23.6505L16.1911 23.3872L17.0962 24.3593C17.8258 25.1492 18.0567 25.3416 18.2691 25.3416C18.6755 25.3315 19.0449 24.9264 19.0449 24.4707C19.0449 24.3796 18.6293 23.8429 18.1306 23.2758C17.2347 22.2834 17.2162 22.2429 17.3363 21.9998C17.4102 21.8581 17.5395 21.534 17.6134 21.2606L17.7704 20.7846H19.0357C20.2456 20.7846 20.3195 20.7745 20.5042 20.5517C20.772 20.2378 20.772 19.772 20.4949 19.4884C20.2918 19.2859 20.1902 19.2656 19.0265 19.2656H17.7704L17.6595 18.8808C17.5949 18.6783 17.4656 18.3543 17.364 18.1618L17.1885 17.8175L18.1121 16.7846C18.6293 16.2175 19.0449 15.6707 19.0449 15.5796C19.0449 15.1239 18.6755 14.7188 18.2691 14.7087C18.0567 14.7087 17.8258 14.9011 17.0962 15.691L16.1911 16.6631L15.6461 16.3998C15.3414 16.2479 15.0458 16.1264 14.9904 16.1264C14.9165 16.1264 14.8888 15.7112 14.8888 14.7694C14.8888 13.5543 14.8703 13.3922 14.6949 13.1492C14.4455 12.8049 13.9006 12.7745 13.6327 13.0986ZM15.0366 17.8378C15.9694 18.3036 16.4958 19.4074 16.2926 20.4808C16.0156 21.8884 14.7872 22.6986 13.4942 22.3036C13.0509 22.172 12.4044 21.5441 12.2012 21.0479C11.9703 20.5011 11.9795 19.5492 12.2012 19.0024C12.3951 18.5365 12.9678 17.9694 13.4203 17.7872C13.8913 17.6049 14.6025 17.6251 15.0366 17.8378Z" fill="black"/>
</g>
<defs>
<clipPath id="clip0_113_2677">
<rect width="43.7778" height="48" fill="white" transform="translate(0.273148)"/>
</clipPath>
</defs>
</svg>
