<?xml version="1.0" standalone="no"?>
<!DOCTYPE svg PUBLIC "-//W3C//DTD SVG 20010904//EN"
 "http://www.w3.org/TR/2001/REC-SVG-20010904/DTD/svg10.dtd">
<svg version="1.0" xmlns="http://www.w3.org/2000/svg"
 width="45.000000pt" height="48.000000pt" viewBox="0 0 45.000000 48.000000"
 preserveAspectRatio="xMidYMid meet">

<g transform="translate(0.000000,48.000000) scale(0.100000,-0.100000)"
fill="#000000" stroke="none">
<path d="M35 445 c-15 -14 -25 -36 -25 -53 0 -29 33 -82 51 -82 5 0 18 -9 29
-20 18 -18 20 -33 20 -150 0 -80 4 -130 10 -130 6 0 10 52 10 135 l0 136 88
-3 87 -3 3 -132 c3 -175 22 -177 22 -3 0 138 2 145 56 176 49 28 55 93 14 134
-18 18 -34 20 -180 20 -157 0 -161 -1 -185 -25z m353 -17 c25 -25 5 -98 -27
-98 -17 0 -33 30 -26 47 6 17 7 17 21 -1 17 -24 28 -16 19 13 -9 31 -53 28
-65 -4 -9 -23 -14 -25 -80 -25 -56 0 -70 -3 -70 -15 0 -12 15 -15 79 -15 44 0
83 -4 86 -10 4 -6 -34 -10 -106 -10 -96 0 -110 2 -100 14 7 8 11 30 9 48 -3
29 -6 33 -33 33 -23 0 -31 -5 -33 -22 -4 -27 6 -30 24 -5 12 16 13 16 20 -1
10 -28 -18 -52 -44 -38 -29 16 -37 47 -18 76 16 25 18 25 174 25 110 0 162 -4
170 -12z"/>
<path d="M160 130 c0 -73 4 -120 10 -120 6 0 10 47 10 120 0 73 -4 120 -10
120 -6 0 -10 -47 -10 -120z"/>
<path d="M210 130 c0 -73 4 -120 10 -120 6 0 10 47 10 120 0 73 -4 120 -10
120 -6 0 -10 -47 -10 -120z"/>
<path d="M260 130 c0 -73 4 -120 10 -120 6 0 10 47 10 120 0 73 -4 120 -10
120 -6 0 -10 -47 -10 -120z"/>
</g>
</svg>
