<?xml version="1.0" standalone="no"?>
<!DOCTYPE svg PUBLIC "-//W3C//DTD SVG 20010904//EN"
 "http://www.w3.org/TR/2001/REC-SVG-20010904/DTD/svg10.dtd">
<svg version="1.0" xmlns="http://www.w3.org/2000/svg"
 width="45.000000pt" height="48.000000pt" viewBox="0 0 45.000000 48.000000"
 preserveAspectRatio="xMidYMid meet">

<g transform="translate(0.000000,48.000000) scale(0.100000,-0.100000)"
fill="#000000" stroke="none">
<path d="M195 449 c-4 -6 -4 -27 0 -47 7 -37 7 -37 -14 -18 -21 19 -26 19
-128 -10 -29 -9 -53 -20 -53 -25 0 -21 157 -83 184 -73 13 5 16 -1 16 -36 0
-34 -3 -41 -16 -36 -9 3 -18 6 -20 6 -2 0 -4 5 -4 10 0 6 7 10 15 10 8 0 15 7
15 15 0 20 -24 19 -41 -1 -12 -14 -9 -20 18 -43 25 -21 29 -29 19 -43 -8 -14
-8 -23 3 -40 10 -16 10 -23 2 -26 -18 -6 -13 -46 9 -59 38 -24 86 22 57 55
-13 15 -13 19 -1 30 18 16 18 27 -1 46 -14 14 -12 17 15 31 23 12 30 22 28 38
-4 26 -48 38 -48 13 0 -10 9 -16 21 -16 18 0 19 -2 9 -15 -24 -28 -40 -18 -40
26 0 33 3 40 16 35 33 -13 202 60 183 79 -4 3 -39 15 -80 27 -59 16 -77 18
-92 8 -18 -11 -19 -10 -13 15 4 16 2 33 -5 41 -14 17 -45 18 -54 3z m42 -15
c8 -21 -13 -42 -28 -27 -13 13 -5 43 11 43 6 0 13 -7 17 -16z m-37 -121 c0
-25 -2 -25 -45 -20 -24 4 -53 11 -62 16 -10 5 -30 14 -45 22 -16 7 -26 14 -23
17 2 3 33 13 67 22 l63 18 23 -24 c12 -14 22 -37 22 -51z m29 -25 c-1 -69 -4
-93 -9 -73 -12 45 -12 175 0 175 6 0 10 -40 9 -102z m135 80 c22 -6 45 -14 49
-18 13 -12 -85 -53 -128 -54 -46 -1 -56 18 -29 58 18 29 44 32 108 14z m-137
-235 c-3 -10 -5 -4 -5 12 0 17 2 24 5 18 2 -7 2 -21 0 -30z m20 -5 c-3 -7 -5
-2 -5 12 0 14 2 19 5 13 2 -7 2 -19 0 -25z m-37 6 c0 -8 -4 -12 -10 -9 -5 3
-10 10 -10 16 0 5 5 9 10 9 6 0 10 -7 10 -16z m0 -69 c0 -8 -4 -15 -10 -15 -5
0 -10 7 -10 15 0 8 5 15 10 15 6 0 10 -7 10 -15z m37 -7 c-3 -8 -6 -5 -6 6 -1
11 2 17 5 13 3 -3 4 -12 1 -19z"/>
<path d="M300 366 c0 -2 7 -6 15 -10 8 -3 15 -1 15 4 0 6 -7 10 -15 10 -8 0
-15 -2 -15 -4z"/>
</g>
</svg>
