<?xml version="1.0" standalone="no"?>
<!DOCTYPE svg PUBLIC "-//W3C//DTD SVG 20010904//EN"
 "http://www.w3.org/TR/2001/REC-SVG-20010904/DTD/svg10.dtd">
<svg version="1.0" xmlns="http://www.w3.org/2000/svg"
 width="45.000000pt" height="48.000000pt" viewBox="0 0 45.000000 48.000000"
 preserveAspectRatio="xMidYMid meet">

<g transform="translate(0.000000,48.000000) scale(0.100000,-0.100000)"
fill="#000000" stroke="none">
<path d="M239 455 c-12 -12 -20 -13 -45 -3 -40 15 -68 5 -59 -22 3 -11 2 -20
-4 -20 -18 0 -72 -53 -90 -89 -40 -80 -32 -178 20 -235 16 -17 29 -26 29 -19
0 6 -4 14 -10 18 -5 3 -1 19 10 38 32 51 34 59 23 76 -7 11 -23 15 -47 14 -26
-2 -36 2 -36 12 0 8 9 15 20 15 28 0 36 27 15 50 -19 21 -12 41 27 76 36 33
68 48 80 36 13 -13 -31 -73 -49 -67 -6 2 -19 -5 -29 -16 -17 -19 -17 -20 3
-25 11 -3 26 -17 32 -31 10 -21 14 -23 27 -12 8 7 14 20 12 28 -3 9 10 29 29
44 l33 29 9 -25 c13 -33 26 -40 41 -22 10 12 10 21 1 41 -6 14 -11 33 -11 42
1 15 2 15 15 -2 8 -11 15 -16 15 -12 0 5 7 3 15 -4 9 -8 15 -29 15 -56 0 -37
-3 -43 -22 -46 -22 -3 -23 -7 -25 -113 0 -60 -5 -111 -10 -112 -4 -2 -14 7
-22 19 -12 19 -11 23 4 34 21 16 16 58 -8 62 -11 2 -29 -5 -40 -16 -12 -10
-30 -22 -41 -26 -16 -5 -17 -13 -12 -47 4 -25 3 -38 -3 -35 -5 4 -12 2 -15 -3
-13 -21 86 -28 131 -9 15 6 60 14 98 17 l70 6 0 110 c0 106 -1 110 -22 113
-19 3 -22 10 -25 60 l-3 57 -35 -2 -35 -3 24 20 c27 23 41 25 41 8 1 -7 7 -2
15 12 12 22 12 26 -2 38 -21 15 -41 16 -25 0 9 -9 3 -17 -24 -36 -41 -27 -71
-24 -54 7 5 11 10 24 10 30 0 16 -44 13 -61 -4z m26 -35 c-14 -16 -15 -24 -5
-54 15 -47 8 -69 -9 -28 -16 39 -21 39 -51 7 -13 -14 -27 -25 -32 -25 -16 0
-8 24 18 51 l26 27 -31 18 c-17 10 -31 22 -31 26 0 11 2 10 41 -6 31 -13 36
-12 59 6 29 24 41 7 15 -22z m110 -100 c0 -26 -5 -45 -12 -47 -9 -3 -13 10
-13 47 0 37 4 50 13 48 7 -3 12 -22 12 -48z m-225 -35 c0 -11 -5 -10 -20 5
-11 11 -20 22 -20 25 0 3 9 1 20 -5 11 -6 20 -17 20 -25z m-90 -16 c0 -5 -7
-9 -15 -9 -9 0 -12 6 -9 15 6 15 24 11 24 -6z m368 -111 l3 -98 -66 0 -65 0 0
100 0 101 63 -3 62 -3 3 -97z m-336 -3 c-21 -43 -37 -44 -51 -4 -15 44 -14 47
17 51 44 6 54 -8 34 -47z m163 -16 c4 -5 0 -18 -9 -28 -19 -21 -20 -43 -4 -59
14 -14 11 -18 -23 -27 -23 -6 -29 -2 -43 26 -19 39 -20 49 -3 49 8 0 24 11 37
25 26 27 35 30 45 14z"/>
<path d="M324 155 c0 -50 1 -71 3 -48 2 23 2 64 0 90 -2 26 -3 8 -3 -42z"/>
<path d="M350 155 c0 -50 4 -85 10 -85 6 0 10 35 10 85 0 50 -4 85 -10 85 -6
0 -10 -35 -10 -85z"/>
<path d="M394 155 c0 -50 1 -71 3 -48 2 23 2 64 0 90 -2 26 -3 8 -3 -42z"/>
<path d="M182 258 c-35 -59 -66 -142 -77 -209 -10 -63 7 -39 21 29 13 61 49
146 84 200 12 17 18 32 13 32 -5 0 -23 -24 -41 -52z"/>
<path d="M206 225 c-9 -14 -14 -30 -11 -35 16 -26 79 5 73 37 -5 29 -43 28
-62 -2z m54 -5 c0 -5 -4 -10 -9 -10 -5 0 -18 -3 -28 -7 -16 -6 -16 -5 -4 10
15 19 41 23 41 7z"/>
</g>
</svg>
