<svg width="32" height="32" viewBox="0 0 32 32" fill="none" xmlns="http://www.w3.org/2000/svg">
  <g clip-path="url(#clip0_88_546)">
    <path d="M31.2746 2.92398C30.7719 3.14695 30.2551 3.33513 29.727 3.4879C30.3522 2.7808 30.8289 1.9488 31.1199 1.03835C31.1851 0.834274 31.1175 0.610894 30.9498 0.477423C30.7822 0.343849 30.5495 0.327849 30.365 0.437165C29.2434 1.10235 28.0334 1.58039 26.7647 1.85993C25.4866 0.6111 23.7508 -0.0996094 21.9563 -0.0996094C18.1684 -0.0996094 15.0867 2.98199 15.0867 6.76976C15.0867 7.06808 15.1056 7.36475 15.143 7.65729C10.4426 7.2446 6.07276 4.9343 3.07198 1.25337C2.96504 1.12217 2.80029 1.05146 2.63162 1.06498C2.46285 1.0782 2.31121 1.17337 2.22595 1.31964C1.61733 2.36398 1.29557 3.5584 1.29557 4.77368C1.29557 6.42891 1.88654 7.99938 2.93046 9.22653C2.61304 9.1166 2.30502 8.9792 2.01103 8.816C1.8532 8.72816 1.66058 8.7295 1.50378 8.81941C1.34687 8.90932 1.2485 9.07469 1.24437 9.25543C1.24365 9.28589 1.24365 9.31634 1.24365 9.3472C1.24365 11.8179 2.5734 14.0423 4.60644 15.2547C4.43178 15.2373 4.25722 15.212 4.0838 15.1788C3.90502 15.1447 3.72117 15.2073 3.6006 15.3437C3.47983 15.48 3.43988 15.6699 3.49552 15.8433C4.24804 18.1927 6.18548 19.9208 8.52767 20.4477C6.58507 21.6644 4.36355 22.3017 2.03147 22.3017C1.54486 22.3017 1.05547 22.2731 0.5765 22.2165C0.338565 22.1882 0.111055 22.3287 0.0300229 22.5549C-0.0510093 22.7813 0.0348745 23.0337 0.2373 23.1635C3.23322 25.0844 6.69738 26.0997 10.2551 26.0997C17.249 26.0997 21.6242 22.8017 24.063 20.0349C27.104 16.585 28.8481 12.0186 28.8481 7.50669C28.8481 7.3182 28.8452 7.12785 28.8394 6.93812C30.0392 6.03417 31.0722 4.94018 31.9128 3.68279C32.0404 3.49182 32.0266 3.23944 31.8787 3.06364C31.731 2.88775 31.4848 2.83087 31.2746 2.92398Z" fill="#556B2F" fill-opacity="1"/>
  </g>
  <defs>
    <clipPath id="clip0_88_546">
      <rect width="32" height="32" fill="white"/>
    </clipPath>
  </defs>
</svg>
