<svg width="48" height="48" viewBox="0 0 48 48" fill="none" xmlns="http://www.w3.org/2000/svg">
<g clip-path="url(#clip0_117_34)">
<path d="M47.3085 8.71987C45.3621 6.5187 40.1139 7.6091 35.9562 8.94406C34.0301 7.44605 31.8086 6.33527 29.3832 5.68307C24.5732 4.38886 19.5493 5.06144 15.2285 7.56833C8.53323 11.4611 5.13976 18.941 6.02634 26.2579C2.8163 29.152 -0.801362 33.1773 0.156555 35.9797C0.462273 36.8663 1.31828 37.9567 3.73346 38.1503C3.74365 38.1503 3.74365 38.1503 3.75384 38.1503C3.93727 38.1605 4.13089 38.1707 4.3347 38.1707C6.09768 38.1707 8.38037 37.7529 10.9892 36.9682C13.3432 39.5363 16.3698 41.3808 19.7837 42.3081C21.3938 42.7463 23.0243 42.9603 24.6446 42.9603C27.875 42.9603 31.0647 42.1043 33.9486 40.433C38.2796 37.8752 41.3674 33.7684 42.6514 28.8769C43.5278 25.5242 43.487 22.0492 42.5597 18.778C44.9341 16.5666 46.6359 14.5285 47.4308 12.8267C48.4397 10.6867 47.9199 9.41283 47.3085 8.71987ZM3.88632 36.1122C3.29526 36.0613 2.28639 35.8982 2.09277 35.3275C1.78705 34.4206 2.78573 32.1583 6.47473 28.6323C6.89255 30.273 7.53455 31.8831 8.41095 33.4219C8.76762 34.0639 9.16505 34.6753 9.59306 35.2562C7.28998 35.888 5.33338 36.1938 3.88632 36.1122ZM10.1739 32.4232C5.55758 24.3115 8.28866 13.9578 16.2577 9.33131C18.8257 7.84348 21.6689 7.07918 24.5529 7.07918C25.9897 7.07918 27.4368 7.27281 28.8635 7.64986C33.1741 8.81159 36.7714 11.5936 38.993 15.4966C39.4821 16.3628 39.8897 17.2494 40.2056 18.1564C36.7816 21.1626 32.0939 24.4847 26.805 27.5623C21.5364 30.6602 16.1354 33.1366 11.6516 34.6244C11.1115 33.9314 10.6121 33.1977 10.1739 32.4232ZM32.9194 38.6701C29.0673 40.912 24.5936 41.5031 20.3238 40.3413C17.5927 39.5974 15.1469 38.2013 13.1496 36.2651C17.5927 34.7161 22.7491 32.3111 27.8444 29.3151C32.899 26.37 37.3828 23.2415 40.8273 20.3066C42.3355 27.3381 39.3292 34.869 32.9194 38.6701ZM45.5863 11.9605C44.9647 13.2853 43.6501 14.9056 41.8259 16.6685C41.5202 15.9246 41.1636 15.2011 40.7661 14.4878C39.9305 13.0203 38.9114 11.6853 37.7497 10.5236C42.6616 9.08673 45.1481 9.3415 45.7799 10.065C46.1773 10.5134 45.8309 11.4408 45.5863 11.9605Z" fill="black"/>
</g>
<defs>
<clipPath id="clip0_117_34">
<rect width="48" height="48" fill="white"/>
</clipPath>
</defs>
</svg>
