<?xml version="1.0" standalone="no"?>
<!DOCTYPE svg PUBLIC "-//W3C//DTD SVG 20010904//EN"
 "http://www.w3.org/TR/2001/REC-SVG-20010904/DTD/svg10.dtd">
<svg version="1.0" xmlns="http://www.w3.org/2000/svg"
 width="48.000000pt" height="48.000000pt" viewBox="0 0 48.000000 48.000000"
 preserveAspectRatio="xMidYMid meet">

<g transform="translate(0.000000,48.000000) scale(0.100000,-0.100000)"
fill="#000000" stroke="none">
<path d="M290 419 c-61 -60 -62 -62 -56 -102 l7 -42 -95 93 c-73 72 -100 93
-118 90 -37 -5 -37 -68 -2 -120 40 -57 93 -98 129 -98 29 -1 27 -4 -57 -84
-87 -81 -102 -108 -76 -134 23 -23 43 -11 128 73 l86 86 68 -78 c38 -43 75
-82 83 -86 20 -12 51 1 59 25 5 16 -11 37 -80 107 -84 84 -99 111 -51 89 29
-13 65 10 126 83 39 47 41 51 25 67 -15 15 -20 12 -73 -38 -59 -57 -55 -43 5
22 22 23 32 42 29 52 -10 26 -25 19 -85 -36 l-57 -52 54 56 c36 37 52 62 48
72 -11 28 -32 18 -97 -45z m31 -13 c-54 -58 -61 -73 -35 -83 10 -4 35 12 72
48 l56 54 -47 -57 c-81 -97 -50 -124 42 -35 38 36 48 43 33 21 -12 -17 -40
-48 -62 -68 -39 -35 -43 -36 -65 -22 -21 14 -24 13 -39 -3 -9 -10 -16 -22 -16
-27 0 -5 39 -48 86 -95 79 -80 95 -109 60 -109 -6 0 -48 41 -92 91 l-79 92
-85 -92 c-47 -50 -93 -91 -103 -91 -37 0 -14 38 69 115 65 61 84 84 79 98 -5
11 -18 17 -40 17 -27 0 -42 10 -84 56 -41 44 -51 63 -51 90 0 20 5 34 12 34 7
0 56 -43 108 -95 96 -96 96 -96 115 -75 14 16 16 23 7 32 -24 24 -11 53 44
105 73 69 81 68 15 -1z"/>
</g>
</svg>
